<svg width="79" height="24" viewBox="0 0 79 24" fill="none" xmlns="http://www.w3.org/2000/svg">
<g id="Group 13">
<rect id="Rectangle 6" width="78.2039" height="23.1715" rx="3" fill="black"/>
<g id="Group 10">
<path id="Google Play" d="M39.486 12.1566C38.1235 12.1566 37.013 13.193 37.013 14.6203C37.013 16.039 38.1235 17.084 39.486 17.084C40.8491 17.084 41.9596 16.039 41.9596 14.6203C41.959 13.193 40.8485 12.1566 39.486 12.1566ZM39.486 16.1143C38.7393 16.1143 38.0957 15.4985 38.0957 14.6209C38.0957 13.734 38.7399 13.1275 39.486 13.1275C40.2327 13.1275 40.8763 13.734 40.8763 14.6209C40.8763 15.4979 40.2327 16.1143 39.486 16.1143ZM34.0905 12.1566C32.728 12.1566 31.6175 13.193 31.6175 14.6203C31.6175 16.039 32.728 17.084 34.0905 17.084C35.4536 17.084 36.5641 16.039 36.5641 14.6203C36.5641 13.193 35.4536 12.1566 34.0905 12.1566ZM34.0905 16.1143C33.3438 16.1143 32.7002 15.4985 32.7002 14.6209C32.7002 13.734 33.3444 13.1275 34.0905 13.1275C34.8372 13.1275 35.4808 13.734 35.4808 14.6209C35.4814 15.4979 34.8372 16.1143 34.0905 16.1143ZM27.6732 12.9132V13.9582H30.1745C30.0998 14.5462 29.904 14.9754 29.6051 15.2738C29.2413 15.6376 28.6719 16.039 27.6732 16.039C26.1334 16.039 24.9297 14.7976 24.9297 13.2578C24.9297 11.7181 26.1334 10.4767 27.6732 10.4767C28.5039 10.4767 29.1104 10.8034 29.5582 11.2234L30.2956 10.4859C29.67 9.8887 28.8398 9.43164 27.6732 9.43164C25.564 9.43164 23.7908 11.1487 23.7908 13.2578C23.7908 15.367 25.564 17.084 27.6732 17.084C28.8115 17.084 29.6705 16.7104 30.3419 16.0106C31.0325 15.3201 31.2474 14.3492 31.2474 13.5654C31.2474 13.3233 31.2288 13.0991 31.1912 12.9126H27.6732V12.9132ZM53.9195 13.7247C53.7145 13.1744 53.0888 12.1566 51.8104 12.1566C50.5411 12.1566 49.4863 13.1553 49.4863 14.6203C49.4863 16.0013 50.5319 17.084 51.9314 17.084C53.0605 17.084 53.7139 16.3935 53.985 15.9921L53.145 15.4319C52.8652 15.8426 52.4823 16.1131 51.9314 16.1131C51.3811 16.1131 50.9889 15.8612 50.7369 15.3664L54.0313 14.004L53.9195 13.7247ZM50.5597 14.5462C50.5319 13.5938 51.2971 13.109 51.848 13.109C52.2773 13.109 52.6411 13.3239 52.7627 13.6315L50.5597 14.5462ZM47.8816 16.9352H48.9637V9.69348H47.8816V16.9352ZM46.1078 12.7075H46.0708C45.828 12.4179 45.3611 12.1566 44.7737 12.1566C43.5416 12.1566 42.4126 13.2393 42.4126 14.6302C42.4126 16.0112 43.5416 17.0846 44.7737 17.0846C45.3617 17.0846 45.828 16.8234 46.0708 16.525H46.1078V16.8795C46.1078 17.822 45.6039 18.326 44.7923 18.326C44.1296 18.326 43.7189 17.8504 43.5509 17.449L42.6084 17.8412C42.8789 18.494 43.5972 19.2969 44.7923 19.2969C46.0615 19.2969 47.1349 18.5502 47.1349 16.7301V12.3066H46.1084V12.7075H46.1078ZM44.867 16.1143C44.1203 16.1143 43.4953 15.4887 43.4953 14.6302C43.4953 13.7618 44.1203 13.1275 44.867 13.1275C45.6039 13.1275 46.1826 13.7618 46.1826 14.6302C46.1826 15.4887 45.6039 16.1143 44.867 16.1143ZM58.9906 9.69348H56.4006V16.9352H57.481V14.1916H58.9901C60.188 14.1916 61.3663 13.3245 61.3663 11.9429C61.3663 10.5613 60.1886 9.69348 58.9906 9.69348ZM59.0184 13.1837H57.481V10.7014H59.0184C59.8265 10.7014 60.2853 11.3705 60.2853 11.9429C60.2853 12.5036 59.8265 13.1837 59.0184 13.1837ZM65.6988 12.1439C64.9162 12.1439 64.1057 12.4885 63.7703 13.2526L64.7296 13.6529C64.9347 13.2526 65.317 13.1217 65.7173 13.1217C66.2763 13.1217 66.8446 13.4571 66.8539 14.0532V14.1279C66.6581 14.0161 66.2387 13.8487 65.7266 13.8487C64.6926 13.8487 63.6394 14.417 63.6394 15.4788C63.6394 16.448 64.4875 17.0719 65.4375 17.0719C66.164 17.0719 66.5648 16.7457 66.8162 16.3634H66.8533V16.9224H67.8972V14.1459C67.8978 12.861 66.9373 12.1439 65.6988 12.1439ZM65.5679 16.1126C65.2145 16.1126 64.7204 15.9353 64.7204 15.4974C64.7204 14.9384 65.3356 14.724 65.8668 14.724C66.3412 14.724 66.5654 14.8266 66.8539 14.9662C66.7699 15.6376 66.1923 16.1126 65.5679 16.1126ZM71.6985 12.302L70.4594 15.4418H70.4223L69.1363 12.302H67.9719L69.9004 16.6901L68.8009 19.1312H69.9282L72.9005 12.302H71.6985ZM61.963 16.9352H63.0433V9.69348H61.963V16.9352Z" fill="white"/>
<g id="Get it on">
<path d="M27.4844 5.49001C27.4844 5.97545 27.3407 6.36184 27.0528 6.65032C26.7261 6.99326 26.2997 7.16473 25.776 7.16473C25.2744 7.16473 24.8474 6.99095 24.497 6.64337C24.1459 6.29522 23.9704 5.86423 23.9704 5.34982C23.9704 4.83484 24.1459 4.40385 24.497 4.05627C24.8474 3.70812 25.2744 3.53434 25.776 3.53434C26.0251 3.53434 26.2632 3.58299 26.4891 3.67974C26.7156 3.77706 26.897 3.90624 27.0325 4.06786L26.7272 4.37372C26.4973 4.09856 26.1804 3.96127 25.7755 3.96127C25.4093 3.96127 25.0931 4.08987 24.826 4.34708C24.559 4.60428 24.4257 4.93853 24.4257 5.34924C24.4257 5.75996 24.559 6.09421 24.826 6.35141C25.0931 6.60862 25.4093 6.73722 25.7755 6.73722C26.1636 6.73722 26.4874 6.60804 26.7463 6.34909C26.9143 6.18052 27.0117 5.94591 27.0377 5.64526H25.7755V5.22759H27.4594C27.4768 5.31854 27.4844 5.40601 27.4844 5.49001Z" fill="white"/>
<path d="M30.1549 4.03835H28.5723V5.14015H29.9997V5.55782H28.5723V6.65963H30.1549V7.08714H28.1257V3.61141H30.1549V4.03835Z" fill="white"/>
<path d="M32.0381 7.08714H31.5915V4.03835H30.6206V3.61141H33.009V4.03835H32.0381V7.08714Z" fill="white"/>
<path d="M34.737 7.08714V3.61141H35.1836V7.08714H34.737Z" fill="white"/>
<path d="M37.1643 7.08714H36.7177V4.03835H35.7468V3.61141H38.1352V4.03835H37.1643V7.08714Z" fill="white"/>
<path d="M42.6564 6.63819C42.3146 6.98924 41.89 7.16476 41.382 7.16476C40.874 7.16476 40.4493 6.98924 40.1081 6.63819C39.7664 6.28714 39.596 5.85731 39.596 5.34927C39.596 4.84124 39.7664 4.4114 40.1081 4.06036C40.4493 3.70931 40.874 3.5332 41.382 3.5332C41.8871 3.5332 42.3112 3.70989 42.6541 4.06267C42.997 4.41546 43.1685 4.84413 43.1685 5.34927C43.1685 5.85731 42.9976 6.28714 42.6564 6.63819ZM40.4377 6.34681C40.695 6.60748 41.0095 6.73725 41.382 6.73725C41.7545 6.73725 42.0696 6.60691 42.3262 6.34681C42.5834 6.08613 42.7126 5.75361 42.7126 5.34927C42.7126 4.94493 42.5834 4.61242 42.3262 4.35174C42.0696 4.09106 41.7545 3.9613 41.382 3.9613C41.0095 3.9613 40.695 4.09164 40.4377 4.35174C40.1811 4.61242 40.0519 4.94493 40.0519 5.34927C40.0519 5.75361 40.1811 6.08613 40.4377 6.34681Z" fill="white"/>
<path d="M43.7953 7.08714V3.61141H44.3387L46.0279 6.31495H46.047L46.0279 5.64529V3.61141H46.4745V7.08714H46.0082L44.2408 4.25211H44.2217L44.2408 4.92176V7.08714H43.7953Z" fill="white"/>
</g>
<path id="Get it on (Stroke)" fill-rule="evenodd" clip-rule="evenodd" d="M41.382 3.59144C40.889 3.59144 40.4796 3.76165 40.1497 4.10104C39.8189 4.4408 39.654 4.85596 39.654 5.34958C39.654 5.8432 39.8189 6.25833 40.1496 6.59809C40.4795 6.93745 40.8889 7.10714 41.382 7.10714C41.875 7.10714 42.2845 6.93749 42.6149 6.59809C42.9452 6.25829 43.1106 5.84314 43.1106 5.34958C43.1106 4.85908 42.9447 4.44502 42.6126 4.10336C42.2808 3.76211 41.8719 3.59144 41.382 3.59144ZM40.0666 4.02029C40.4191 3.65759 40.8589 3.47559 41.382 3.47559C41.9023 3.47559 42.3415 3.65828 42.6957 4.02261C43.0494 4.38652 43.2264 4.8298 43.2264 5.34958C43.2264 5.87208 43.0501 6.31658 42.698 6.67887C42.3448 7.04157 41.905 7.223 41.382 7.223C40.859 7.223 40.4192 7.04161 40.0666 6.67887C39.7138 6.31654 39.5381 5.87202 39.5381 5.34958C39.5381 4.82713 39.7138 4.38263 40.0666 4.02029ZM25.776 3.59258C25.2894 3.59258 24.8772 3.76053 24.5378 4.09768C24.1982 4.43388 24.0283 4.84989 24.0283 5.35013C24.0283 5.84978 24.1982 6.26575 24.5378 6.60255C24.8772 6.93915 25.2894 7.10712 25.776 7.10712C26.2858 7.10712 26.6963 6.94084 27.0109 6.61068L27.0118 6.6097C27.2868 6.33412 27.4264 5.96357 27.4264 5.49032C27.4264 5.4244 27.4216 5.35625 27.4107 5.28583H25.8334V5.58764H27.1009L27.0954 5.65058C27.0685 5.9611 26.9673 6.20977 26.7874 6.3903C26.5168 6.66084 26.1779 6.79546 25.7755 6.79546C25.3941 6.79546 25.0635 6.66089 24.7858 6.39345C24.5061 6.12406 24.3678 5.7741 24.3678 5.34956C24.3678 4.92502 24.5061 4.57505 24.7858 4.30566C25.0635 4.03822 25.3941 3.90365 25.7755 3.90365C26.1715 3.90365 26.4914 4.03112 26.7299 4.28935L26.9532 4.06565C26.8286 3.93028 26.6667 3.81936 26.4663 3.73327C26.2476 3.63965 26.0174 3.59258 25.776 3.59258ZM24.4562 4.01545C24.8177 3.65632 25.2594 3.47672 25.776 3.47672C26.0329 3.47672 26.2787 3.52694 26.512 3.6268C26.7453 3.72706 26.9346 3.86125 27.0769 4.03094L27.111 4.07157L26.7234 4.45983L26.6828 4.41118C26.4653 4.15099 26.1657 4.01951 25.7755 4.01951C25.4246 4.01951 25.1226 4.14215 24.8662 4.38911C24.6118 4.63413 24.4837 4.95266 24.4837 5.34956C24.4837 5.74645 24.6118 6.06498 24.8662 6.31C25.1226 6.55696 25.4246 6.6796 25.7755 6.6796C26.1493 6.6796 26.458 6.55581 26.7053 6.30852C26.8499 6.1634 26.9408 5.96339 26.9734 5.7035H25.7175V5.16998H27.5074L27.5164 5.21703C27.5344 5.31171 27.5423 5.40283 27.5423 5.49032C27.5423 5.9877 27.3947 6.38974 27.0943 6.69108C26.7554 7.04647 26.3134 7.22297 25.776 7.22297C25.2594 7.22297 24.8177 7.04337 24.4562 6.68482C24.0937 6.32531 23.9125 5.8793 23.9125 5.35013C23.9125 4.82042 24.0937 4.3744 24.4562 4.01545ZM28.0678 3.5538H30.2129V4.09659H28.6303V5.08254H30.0576V5.61606H28.6303V6.60201H30.2129V7.14538H28.0678V3.5538ZM28.1836 3.66965V7.02952H30.097V6.71787H28.5144V5.5002H29.9418V5.19839H28.5144V3.98073H30.097V3.66965H28.1836ZM30.5627 3.5538H33.067V4.09659H32.0961V7.14538H31.5336V4.09659H30.5627V3.5538ZM30.6785 3.66965V3.98073H31.6494V7.02952H31.9802V3.98073H32.9511V3.66965H30.6785ZM34.6791 3.5538H35.2416V7.14538H34.6791V3.5538ZM34.7949 3.66965V7.02952H35.1257V3.66965H34.7949ZM35.6889 3.5538H38.1931V4.09659H37.2223V7.14538H36.6598V4.09659H35.6889V3.5538ZM35.8047 3.66965V3.98073H36.7756V7.02952H37.1064V3.98073H38.0773V3.66965H35.8047ZM43.7374 3.5538H44.3708L45.9839 6.13557L45.97 5.64726L45.97 5.6456V3.5538H46.5325V7.14538H45.976L44.2848 4.43246L44.2987 4.92207L44.2987 7.14538H43.7374V3.5538ZM43.8532 3.66965V7.02952H44.1829V4.92207L44.1621 4.19449H44.2729L46.0403 7.02952H46.4166V3.66965H46.0858V5.6456L46.1066 6.37319H45.9958L44.3066 3.66965H43.8532ZM40.3966 4.31132C40.6648 4.04002 40.9943 3.90368 41.382 3.90368C41.7696 3.90368 42.0997 4.03936 42.3675 4.31136C42.6365 4.58402 42.7705 4.93168 42.7705 5.34958C42.7705 5.76748 42.6365 6.11515 42.3675 6.3878C42.0997 6.65917 41.7696 6.79549 41.382 6.79549C40.9944 6.79549 40.6649 6.65976 40.3965 6.3878C40.1281 6.11516 39.994 5.76748 39.994 5.34958C39.994 4.93169 40.1282 4.58396 40.3966 4.31132ZM40.4789 4.39278C40.2342 4.64149 40.1099 4.95884 40.1099 5.34958C40.1099 5.74035 40.2342 6.05772 40.479 6.30643C40.7251 6.55583 41.0247 6.67963 41.382 6.67963C41.7393 6.67963 42.0395 6.55526 42.285 6.30643C42.5304 6.05773 42.6547 5.74037 42.6547 5.34958C42.6547 4.9588 42.5304 4.64144 42.285 4.39273C42.0395 4.14341 41.7394 4.01954 41.382 4.01954C41.0247 4.01954 40.7251 4.14388 40.4789 4.39278Z" fill="white"/>
<g id="Google Play logo" filter="url(#filter0_ii_12521_46653)">
<path id="Vector" d="M6.06112 3.92315C5.89255 4.10157 5.79291 4.37847 5.79291 4.73705V17.5486C5.79291 17.9077 5.89255 18.1841 6.06112 18.3625L6.10399 18.4042L13.2808 11.2274V11.1428V11.0582L6.10399 3.88086L6.06112 3.92315Z" fill="url(#paint0_linear_12521_46653)"/>
<path id="Vector_2" d="M15.6726 13.6207L13.2808 11.2276V11.1431V11.0585L15.6732 8.66602L15.7271 8.69672L18.5616 10.3071C19.3708 10.7671 19.3708 11.5196 18.5616 11.9801L15.7271 13.5905L15.6726 13.6207Z" fill="url(#paint1_linear_12521_46653)"/>
<g id="Vector_3" filter="url(#filter1_i_12521_46653)">
<path d="M15.7271 13.5895L13.2802 11.1426L6.0611 18.3622C6.32757 18.6449 6.76841 18.6797 7.26486 18.3982L15.7271 13.5895Z" fill="url(#paint2_linear_12521_46653)"/>
</g>
<path id="Vector_4" d="M15.7271 8.69613L7.26486 3.88804C6.76841 3.60593 6.32757 3.64127 6.0611 3.92396L13.2808 11.1436L15.7271 8.69613Z" fill="url(#paint3_linear_12521_46653)"/>
</g>
</g>
</g>
<defs>
<filter id="filter0_ii_12521_46653" x="5.79291" y="3.69336" width="13.3756" height="14.8994" filterUnits="userSpaceOnUse" color-interpolation-filters="sRGB">
<feFlood flood-opacity="0" result="BackgroundImageFix"/>
<feBlend mode="normal" in="SourceGraphic" in2="BackgroundImageFix" result="shape"/>
<feColorMatrix in="SourceAlpha" type="matrix" values="0 0 0 0 0 0 0 0 0 0 0 0 0 0 0 0 0 0 127 0" result="hardAlpha"/>
<feOffset dy="-0.15"/>
<feComposite in2="hardAlpha" operator="arithmetic" k2="-1" k3="1"/>
<feColorMatrix type="matrix" values="0 0 0 0 0 0 0 0 0 0 0 0 0 0 0 0 0 0 0.12 0"/>
<feBlend mode="normal" in2="shape" result="effect1_innerShadow_12521_46653"/>
<feColorMatrix in="SourceAlpha" type="matrix" values="0 0 0 0 0 0 0 0 0 0 0 0 0 0 0 0 0 0 127 0" result="hardAlpha"/>
<feOffset dy="0.15"/>
<feComposite in2="hardAlpha" operator="arithmetic" k2="-1" k3="1"/>
<feColorMatrix type="matrix" values="0 0 0 0 1 0 0 0 0 1 0 0 0 0 1 0 0 0 0.25 0"/>
<feBlend mode="normal" in2="effect1_innerShadow_12521_46653" result="effect2_innerShadow_12521_46653"/>
</filter>
<filter id="filter1_i_12521_46653" x="6.0611" y="11.1426" width="9.66602" height="7.4502" filterUnits="userSpaceOnUse" color-interpolation-filters="sRGB">
<feFlood flood-opacity="0" result="BackgroundImageFix"/>
<feBlend mode="normal" in="SourceGraphic" in2="BackgroundImageFix" result="shape"/>
<feColorMatrix in="SourceAlpha" type="matrix" values="0 0 0 0 0 0 0 0 0 0 0 0 0 0 0 0 0 0 127 0" result="hardAlpha"/>
<feOffset dy="-0.15"/>
<feComposite in2="hardAlpha" operator="arithmetic" k2="-1" k3="1"/>
<feColorMatrix type="matrix" values="0 0 0 0 0 0 0 0 0 0 0 0 0 0 0 0 0 0 0.08 0"/>
<feBlend mode="normal" in2="shape" result="effect1_innerShadow_12521_46653"/>
</filter>
<linearGradient id="paint0_linear_12521_46653" x1="12.6446" y1="4.60149" x2="2.923" y2="14.3231" gradientUnits="userSpaceOnUse">
<stop stop-color="#00A0FF"/>
<stop offset="0.0066" stop-color="#00A1FF"/>
<stop offset="0.2601" stop-color="#00BEFF"/>
<stop offset="0.5122" stop-color="#00D2FF"/>
<stop offset="0.7604" stop-color="#00DFFF"/>
<stop offset="1" stop-color="#00E3FF"/>
</linearGradient>
<linearGradient id="paint1_linear_12521_46653" x1="19.615" y1="11.1431" x2="5.59859" y2="11.1431" gradientUnits="userSpaceOnUse">
<stop stop-color="#FFE000"/>
<stop offset="0.4087" stop-color="#FFBD00"/>
<stop offset="0.7754" stop-color="#FFA500"/>
<stop offset="1" stop-color="#FF9C00"/>
</linearGradient>
<linearGradient id="paint2_linear_12521_46653" x1="14.3983" y1="12.4714" x2="1.21454" y2="25.6551" gradientUnits="userSpaceOnUse">
<stop stop-color="#FF3A44"/>
<stop offset="1" stop-color="#C31162"/>
</linearGradient>
<linearGradient id="paint3_linear_12521_46653" x1="4.24294" y1="-0.340874" x2="10.1298" y2="5.54602" gradientUnits="userSpaceOnUse">
<stop stop-color="#32A071"/>
<stop offset="0.0685" stop-color="#2DA771"/>
<stop offset="0.4762" stop-color="#15CF74"/>
<stop offset="0.8009" stop-color="#06E775"/>
<stop offset="1" stop-color="#00F076"/>
</linearGradient>
</defs>
</svg>
