<svg width="356" height="260" viewBox="0 0 356 260" fill="none" xmlns="http://www.w3.org/2000/svg">
<g opacity="0.3">
<g opacity="0.56">
<path d="M349.978 223.187C349.929 224.646 349.816 226.12 349.621 227.611C349.589 227.854 349.556 228.113 349.524 228.356C349.199 230.592 348.696 232.877 348.015 235.177C347.95 235.42 347.869 235.647 347.788 235.89C347.318 237.397 346.766 238.936 346.117 240.46C343.814 245.92 340.439 251.461 335.784 256.905C334.908 257.942 333.983 258.963 333.01 259.984H7.41357C7.4298 258.979 7.47846 257.958 7.55957 256.905C7.96513 251.088 9.19802 244.721 11.826 238.191C12.9129 235.501 14.2269 232.779 15.8167 230.057C15.9465 229.847 16.0762 229.62 16.206 229.409C16.4007 229.069 16.6116 228.745 16.8062 228.421C16.9198 228.227 17.0496 228.048 17.1631 227.854C18.1689 226.282 19.272 224.711 20.4887 223.155C20.6347 222.961 20.7807 222.766 20.9429 222.572C21.17 222.296 21.3971 222.005 21.6242 221.729C23.944 218.894 26.6044 216.091 29.6704 213.352C34.0504 209.431 39.2253 205.656 45.3411 202.108C45.5195 202.011 45.698 201.897 45.8764 201.8C48.1151 200.52 50.4673 199.256 52.9655 198.041C53.8578 197.603 54.7338 197.182 55.5935 196.745C55.6098 196.728 55.626 196.728 55.6422 196.712C55.8855 196.583 56.1289 196.469 56.3722 196.356C56.4209 196.34 56.4533 196.307 56.502 196.291C56.6966 196.194 56.8913 196.097 57.1022 195.983C57.67 195.708 58.2378 195.416 58.7893 195.141C60.2169 194.428 61.5795 193.731 62.9097 193.034C115.129 166.008 97.2684 159.997 99.3935 118.145C99.4097 117.692 99.4584 117.238 99.4908 116.784C99.507 116.59 99.5233 116.396 99.5557 116.201C104.731 71.5789 194.034 -18.2163 247.81 3.26843C261.356 8.68012 270.619 17.5916 276.718 28.2044C295.179 60.3505 284.473 121.499 274.966 134.672C274.496 135.32 274.058 136.001 273.652 136.714C273.555 136.892 273.442 137.07 273.344 137.248C273.231 137.459 273.117 137.67 273.004 137.88C272.922 138.042 272.841 138.188 272.76 138.35C272.663 138.545 272.566 138.723 272.484 138.917C272.387 139.112 272.306 139.306 272.225 139.501C264.438 156.918 269.062 188.222 295.698 187.007C295.958 186.991 296.234 186.991 296.493 186.958C297.596 186.877 298.748 186.748 299.932 186.553C301.474 186.31 303.096 185.954 304.767 185.5C305.805 185.225 306.876 184.901 307.979 184.528C310.071 183.815 312.18 183.394 314.273 183.215C315.376 183.118 316.463 183.086 317.566 183.134C317.826 183.151 318.101 183.151 318.361 183.183C321.232 183.377 324.039 184.009 326.732 185.063C327.024 185.16 327.299 185.273 327.575 185.403C330.025 186.44 332.377 187.801 334.551 189.47C343.96 196.518 350.416 208.913 349.978 223.187Z" fill="#BBDEFB"/>
</g>
<g opacity="0.56">
<path d="M355.883 224.597C355.834 225.375 355.753 226.137 355.656 226.914C355.623 227.157 355.591 227.4 355.558 227.66C355.396 228.875 355.169 230.074 354.909 231.305C353.028 239.844 348.599 248.626 340.942 256.922C339.985 257.959 338.979 258.979 337.925 260H12.2639C12.491 258.996 12.7181 257.959 12.9939 256.922C13.7888 253.859 14.8432 250.619 16.2059 247.297C16.6439 246.228 17.0981 245.159 17.601 244.089C17.9417 243.344 18.3148 242.598 18.6879 241.837C19.9208 239.407 21.3321 236.944 22.9381 234.465C23.0517 234.27 23.1815 234.092 23.3112 233.898C23.3761 233.8 23.441 233.703 23.5059 233.622C23.6519 233.412 23.7817 233.201 23.9277 232.99C24.9172 231.548 25.9717 230.09 27.091 228.648C27.4966 228.146 27.9021 227.627 28.3239 227.125C28.9241 226.396 29.5406 225.667 30.1732 224.938C31.4061 223.528 32.7201 222.118 34.1152 220.725C36.2403 218.586 38.5601 216.464 41.0908 214.39C41.3179 214.195 41.545 214.017 41.7721 213.823C44.0108 212.008 46.3792 210.242 48.9423 208.492C49.1045 208.378 49.283 208.265 49.4614 208.152C51.4405 206.823 53.517 205.494 55.707 204.214C55.9017 204.101 56.0801 204.004 56.2748 203.89C56.875 203.534 57.4752 203.194 58.0917 202.853C58.2377 202.772 58.3836 202.691 58.5296 202.61C58.5945 202.562 58.6594 202.529 58.7405 202.497C58.773 202.481 58.7892 202.464 58.8217 202.448C59.0001 202.351 59.1785 202.254 59.357 202.157C61.2063 201.152 63.1205 200.147 65.0996 199.175C129.421 167.726 97.171 162.428 99.4258 118.129C99.4421 117.676 99.4907 117.222 99.5232 116.768C99.5394 116.574 99.5556 116.38 99.5881 116.185C104.974 71.8384 201.188 -8.18666 254.964 13.2981C264.341 17.0409 271.446 22.161 276.751 28.1884C302.285 57.175 285.478 120.155 274.999 134.656C274.528 135.304 274.09 135.985 273.685 136.698C273.587 136.876 273.474 137.054 273.377 137.232C273.263 137.443 273.149 137.654 273.036 137.864C272.955 138.026 272.874 138.172 272.793 138.334C272.695 138.529 272.598 138.707 272.517 138.901C272.419 139.096 272.338 139.29 272.257 139.485C264.909 156.141 270.229 184.285 295.471 184.026C295.65 184.026 295.844 184.026 296.023 184.01C296.055 184.01 296.071 184.01 296.104 184.01C296.363 184.01 296.639 183.993 296.899 183.977C298.683 183.896 300.549 183.669 302.512 183.28C302.771 183.232 303.031 183.183 303.29 183.118C305.318 182.697 307.443 182.114 309.666 181.369C312.034 180.575 314.403 180.089 316.739 179.878C321.216 179.473 325.612 180.105 329.749 181.579C330.041 181.676 330.349 181.79 330.641 181.903C332.863 182.762 335.005 183.864 337.049 185.192C348.94 192.872 357.083 207.892 355.883 224.597Z" fill="#BBDEFB"/>
</g>
</g>
<g opacity="0.56">
<g opacity="0.56">
<path d="M332.426 155.004C344.656 140.571 345.04 120.816 333.284 110.878C321.529 100.941 302.085 104.586 289.855 119.018C277.626 133.451 277.242 153.206 288.998 163.144C300.753 173.081 320.197 169.436 332.426 155.004Z" fill="#BBDEFB"/>
</g>
<g opacity="0.56">
<path d="M330.533 161.863C342.763 147.43 343.147 127.674 331.391 117.737C319.636 107.8 300.192 111.445 287.963 125.877C275.733 140.31 275.349 160.065 287.105 170.002C298.86 179.94 318.304 176.295 330.533 161.863Z" fill="#BBDEFB"/>
</g>
</g>
<g opacity="0.56">
<g opacity="0.56">
<path d="M87.5742 163.72C99.8499 149.233 100.233 129.4 88.4293 119.423C76.6259 109.445 57.1058 113.101 44.8301 127.588C32.5544 142.076 32.1716 161.908 43.9751 171.886C55.7785 181.863 75.2985 178.207 87.5742 163.72Z" fill="#BBDEFB"/>
</g>
<g opacity="0.56">
<path d="M85.6743 170.616C97.95 156.128 98.3329 136.296 86.5294 126.318C74.726 116.341 55.2059 119.997 42.9302 134.484C30.6545 148.971 30.2717 168.804 42.0752 178.781C53.8786 188.759 73.3986 185.103 85.6743 170.616Z" fill="#BBDEFB"/>
</g>
</g>
<g opacity="0.56">
<g opacity="0.56">
<path d="M99.5039 87.2885C111.435 78.4504 115.271 63.4256 108.071 53.7297C100.871 44.0339 85.3627 43.3386 73.4316 52.1768C61.5005 61.0149 57.6649 76.0397 64.8645 85.7356C72.0642 95.4314 87.5728 96.1267 99.5039 87.2885Z" fill="#BBDEFB"/>
</g>
<g opacity="0.56">
<path d="M96.8408 92.1923C108.772 83.3542 112.608 68.3294 105.408 58.6335C98.2082 48.9377 82.6996 48.2424 70.7685 57.0806C58.8374 65.9187 55.0018 80.9435 62.2014 90.6394C69.4011 100.335 84.9097 101.031 96.8408 92.1923Z" fill="#BBDEFB"/>
</g>
</g>
<path d="M289.031 235.031L288.285 234.853C288.318 234.335 288.22 225.974 288.188 223.787C288.188 223.447 288.188 223.09 288.22 222.75C288.382 220.838 288.545 218.975 288.723 217.176C288.837 215.977 288.966 214.794 289.08 213.66C289.096 213.563 289.096 213.449 289.112 213.352C290.086 204.295 291.124 197.555 291.27 196.615C291.286 196.55 291.286 196.501 291.286 196.501L292.016 196.615C292.016 196.631 291.935 197.15 291.789 198.089C291.546 199.71 291.14 202.561 290.686 206.255C290.654 206.547 290.621 206.855 290.572 207.147C290.199 210.128 289.81 213.611 289.437 217.354C289.275 219.072 289.112 220.838 288.95 222.636C288.902 223.171 288.885 223.722 288.902 224.257C288.95 226.8 289.048 234.497 289.031 235.031Z" fill="#9DC89E"/>
<path d="M289.128 213.709C289.128 213.709 282.964 200.86 285.186 196.793C287.409 192.726 290.248 195.805 289.664 202.059C289.08 208.329 289.128 213.709 289.128 213.709Z" fill="#9DC89E"/>
<path d="M288.966 229.28C288.966 229.28 280.547 217.792 281.974 213.385C283.402 208.978 286.776 211.473 287.344 217.743C287.928 223.998 288.966 229.28 288.966 229.28Z" fill="#9DC89E"/>
<path d="M290.426 207.438C290.426 207.438 292.032 198.9 296.201 195.87C300.37 192.856 301.506 196.809 297.84 200.439C294.19 204.084 290.945 206.077 290.426 207.438Z" fill="#9DC89E"/>
<path d="M288.366 222.507C288.366 222.507 289.972 213.968 294.141 210.938C298.31 207.924 299.446 211.878 295.78 215.507C292.113 219.137 288.885 221.129 288.366 222.507Z" fill="#9DC89E"/>
<path d="M291.708 198.656C291.708 198.656 289.209 187.849 291.383 184.511C293.557 181.174 296.558 184.998 294.336 190.425C292.097 195.853 291.708 198.656 291.708 198.656Z" fill="#9DC89E"/>
<path d="M283.645 258.056C283.645 258.056 289.923 240.686 304.653 235.129L300.841 243.019L308.076 234.173C308.076 234.173 313.024 231.516 319.35 230.916C325.661 230.317 327.153 230.479 327.153 230.479L322.579 236.052L332.669 230.203C332.669 230.203 345.419 230.171 355.575 234.221C355.575 234.221 349.102 235.275 344.917 240.216C340.731 245.158 334.534 246.649 334.534 246.649C334.534 246.649 331.095 244.624 325.531 244.526C325.531 244.526 330.544 246.746 331.452 248.35C331.452 248.35 326.78 250.456 324.347 252.028C321.913 253.6 316.317 255.739 316.317 255.739L308.855 252.255L313.478 256.84C313.478 256.84 309.585 259.903 302.252 258.687C294.92 257.521 283.645 258.056 283.645 258.056Z" fill="#9DC89E"/>
<path d="M300.695 246.601C300.581 246.601 300.484 246.536 300.435 246.422C300.37 246.276 300.435 246.114 300.581 246.05C300.841 245.936 327.299 234.627 351.795 233.865C351.957 233.865 352.087 233.979 352.087 234.141C352.087 234.303 351.973 234.432 351.811 234.432C327.429 235.178 301.068 246.455 300.808 246.568C300.776 246.584 300.744 246.601 300.695 246.601Z" fill="#599E85"/>
<path d="M328.354 250.149C328.338 250.149 328.321 250.149 328.321 250.149C328.273 250.149 326.894 249.938 322.433 247.718C318.053 245.531 309.779 243.165 309.698 243.149C309.552 243.1 309.455 242.955 309.504 242.793C309.552 242.647 309.698 242.549 309.861 242.598C309.942 242.614 318.264 244.996 322.692 247.216C327.007 249.371 328.386 249.581 328.386 249.598C328.549 249.614 328.646 249.76 328.63 249.922C328.613 250.035 328.484 250.149 328.354 250.149Z" fill="#599E85"/>
<path d="M344.057 241.237C343.067 241.237 338.996 241.156 336.059 239.957C332.847 238.645 328.11 237.948 328.062 237.932C327.9 237.915 327.802 237.77 327.818 237.608C327.835 237.446 327.981 237.348 328.143 237.365C328.192 237.365 333.009 238.077 336.27 239.422C339.45 240.719 344.219 240.654 344.268 240.654C344.43 240.654 344.56 240.783 344.56 240.929C344.56 241.091 344.43 241.221 344.284 241.221C344.252 241.221 344.187 241.237 344.057 241.237Z" fill="#599E85"/>
<path d="M307.07 257.861C307.022 257.861 306.957 257.845 306.908 257.813L299.9 253.098C299.77 253.017 299.738 252.838 299.819 252.693C299.9 252.563 300.078 252.531 300.224 252.612L307.232 257.327C307.362 257.408 307.395 257.586 307.314 257.732C307.249 257.813 307.168 257.861 307.07 257.861Z" fill="#599E85"/>
<path d="M326.245 238.256C326.18 238.256 326.099 238.224 326.05 238.175C325.937 238.062 325.937 237.883 326.05 237.77C326.115 237.705 327.656 236.15 329.668 234.821C331.631 233.509 335.135 230.155 335.167 230.122C335.281 230.009 335.459 230.009 335.573 230.138C335.686 230.252 335.686 230.43 335.556 230.543C335.41 230.689 331.971 233.978 329.976 235.307C328.013 236.603 326.472 238.175 326.456 238.191C326.407 238.224 326.326 238.256 326.245 238.256Z" fill="#599E85"/>
<path d="M308.108 243.733C308.076 243.733 308.044 243.733 307.995 243.716C307.849 243.652 307.784 243.49 307.833 243.344C307.849 243.311 308.19 242.501 310.574 239.536C312.926 236.62 316.349 230.932 316.382 230.884C316.463 230.754 316.641 230.706 316.771 230.787C316.901 230.868 316.95 231.046 316.868 231.176C316.836 231.24 313.397 236.96 311.012 239.893C308.709 242.728 308.368 243.522 308.352 243.554C308.319 243.668 308.206 243.733 308.108 243.733Z" fill="#599E85"/>
<path d="M286.403 259.692C286.403 259.692 279.833 258.979 279.282 258.266C276.378 254.491 279.395 242.939 280.271 238.645C281.91 230.608 288.723 235.307 289.745 231.257C290.751 227.206 288.69 216.269 293.444 212.251C298.213 208.233 298.034 214.908 306.178 202.578C314.338 190.248 315.571 198.43 320.032 195.821C324.477 193.213 333.301 184.528 335.848 188.579C338.395 192.629 325.32 208.557 320.372 213.725C315.425 218.894 317.452 219.915 320.794 221.405C324.136 222.88 319.107 232.456 309.422 237.608C299.754 242.76 302.139 244.203 303.907 247.151C305.675 250.1 300.127 258.947 286.403 259.692Z" fill="#599E85"/>
<path d="M286.792 253.859L286.062 253.648C291.221 235.161 302.901 219.639 311.791 209.885C321.427 199.305 329.96 193.018 330.041 192.953L330.495 193.569C330.414 193.634 321.93 199.888 312.342 210.42C303.501 220.109 291.902 235.518 286.792 253.859Z" fill="#9DC89E"/>
<path d="M297.029 230.576L296.704 229.879C305.448 225.844 313.689 224.937 313.77 224.921L313.851 225.682C313.786 225.699 305.659 226.59 297.029 230.576Z" fill="#9DC89E"/>
<path d="M307.979 215.41L307.313 215.021C312.472 206.126 311.401 198.932 311.401 198.867L312.164 198.754C312.213 199.062 313.299 206.272 307.979 215.41Z" fill="#9DC89E"/>
<path d="M298.391 228.486L297.661 228.243C300.273 220.498 298.651 214.908 298.618 214.843L299.348 214.616C299.446 214.875 301.1 220.514 298.391 228.486Z" fill="#9DC89E"/>
<path d="M313.267 209.367L312.959 208.67C313.153 208.589 317.696 206.645 321.881 206.645C321.913 206.645 321.946 206.645 321.978 206.645V207.406C321.946 207.406 321.913 207.406 321.881 207.406C317.858 207.39 313.316 209.35 313.267 209.367Z" fill="#9DC89E"/>
<path d="M48.8451 214.325C48.8614 214.179 49.6725 198.9 45.5845 187.688L46.3469 187.412C50.4836 198.786 49.6725 214.228 49.6562 214.373L48.8451 214.325Z" fill="#599E85"/>
<path d="M49.1369 202.481C49.1369 202.481 45.1463 194.412 41.6098 188.643C38.0572 182.875 29.8487 190.588 49.1369 202.481Z" fill="#599E85"/>
<path d="M49.2507 207.228C49.2507 207.228 51.7814 200.018 52.2843 195.157C52.7872 190.296 56.6156 189.162 57.5565 194.509C58.5136 199.823 49.2507 207.228 49.2507 207.228Z" fill="#599E85"/>
<path d="M47.8555 217.403C47.8555 217.403 52.0895 211.036 53.7766 206.45C55.4637 201.865 59.4543 201.719 59.0488 207.115C58.6432 212.51 47.8555 217.403 47.8555 217.403Z" fill="#599E85"/>
<path d="M46.5416 189.227C46.5416 189.227 45.6169 175.811 43.1025 173.931C40.5881 172.052 38.4143 176.038 40.1825 180.331C41.9507 184.609 46.5416 189.227 46.5416 189.227Z" fill="#599E85"/>
<path d="M38.6896 242.517C38.6896 242.517 34.9423 238.612 30.903 235.728C26.8636 232.844 24.5601 230.252 24.5601 230.252L25.5659 239.033L22.1105 231.839C22.1105 231.839 17.3574 228.81 10.8685 227.384C4.37967 225.942 0.194336 222.539 0.194336 222.539C0.194336 222.539 3.79567 239.114 11.1443 245.271C11.1443 245.271 18.639 245.66 20.5208 247.248C20.5208 247.248 14.0319 246.957 10.8685 248.399C10.8685 248.399 14.7619 250.991 18.8012 254.442C22.8405 257.893 32.947 258.574 39.8576 258.817C46.7683 259.06 55.2687 258.817 55.2687 258.817C55.2687 258.817 54.5387 255.366 49.7856 251.169C45.0325 246.957 38.6896 242.517 38.6896 242.517Z" fill="#599E85"/>
<path d="M50.9215 257.861C44.092 256.727 36.5486 251.445 29.8813 246.778C27.3182 244.996 24.9173 243.295 22.6462 241.918C14.4378 236.862 0.146 222.88 0 222.734L0.405555 222.329C0.551555 222.474 14.8109 236.409 22.9706 241.415C25.2418 242.809 27.6751 244.51 30.2382 246.309C36.8569 250.943 44.3353 256.176 51.0351 257.294L50.9215 257.861Z" fill="#9DC89E"/>
<path d="M16.4979 237.446C16.4655 237.43 13.5455 236.474 10.9337 236.214C8.25706 235.955 4.03928 234.513 3.86084 234.448L4.05551 233.914C4.10417 233.93 8.38684 235.388 10.9986 235.647C13.6753 235.906 16.5791 236.862 16.6926 236.895L16.4979 237.446Z" fill="#9DC89E"/>
<path d="M20.3912 252.433C17.7794 252.433 15.6218 252.093 15.4758 252.06L15.5732 251.493C15.6381 251.51 21.4618 252.417 25.5174 251.25C27.1234 250.78 28.4049 250.229 29.5405 249.743C31.3249 248.966 32.6227 248.415 33.8556 248.836L33.6771 249.371C32.6389 249.014 31.4385 249.533 29.7676 250.262C28.6807 250.732 27.318 251.315 25.6796 251.801C24.0087 252.287 22.0945 252.433 20.3912 252.433Z" fill="#9DC89E"/>
<path d="M34.9425 250.262C33.6448 249.42 33.5799 248.091 33.4825 246.26C33.4176 245.126 33.3528 243.846 32.9959 242.307C32.055 238.369 31.2276 236.279 31.2114 236.247L31.7468 236.036C31.763 236.052 32.6065 238.191 33.5474 242.177C33.9205 243.749 34.0016 245.126 34.0503 246.228C34.1476 247.945 34.1963 249.095 35.2508 249.776L34.9425 250.262Z" fill="#9DC89E"/>
<path d="M21.1375 240.897C20.4238 239.844 20.002 238.58 19.4667 236.976C19.2882 236.425 19.0773 235.842 18.8502 235.21C17.9742 232.763 16.7413 229.442 16.7251 229.409L17.2604 229.215C17.2767 229.247 18.5095 232.569 19.3855 235.015C19.6127 235.647 19.8073 236.247 20.002 236.798C20.5211 238.353 20.9429 239.585 21.608 240.573L21.1375 240.897Z" fill="#9DC89E"/>
<path d="M34.5856 257.845L34.3748 257.31C34.4072 257.294 37.5056 256.03 39.2576 255.155C39.7443 254.912 40.1336 254.685 40.4419 254.507C41.2692 254.037 41.7234 253.762 42.4372 254.134L42.1776 254.637C41.7559 254.41 41.545 254.523 40.7176 254.993C40.3932 255.171 40.0039 255.398 39.501 255.658C37.7328 256.549 34.6181 257.829 34.5856 257.845Z" fill="#9DC89E"/>
<path d="M59.568 258.801C59.568 258.801 68.1495 258.752 71.3128 257.699C71.5886 257.602 72.1239 242.323 70.1124 237.187C67.1275 229.555 58.0917 234.351 57.232 230.284C56.356 226.201 58.8217 215.345 54.1984 211.149C49.5751 206.953 49.5264 213.644 41.8046 201.039C34.0829 188.433 32.558 196.567 28.2104 193.796C23.8466 191.025 15.3462 182.049 12.6695 186.002C9.97666 189.972 22.484 206.337 27.2533 211.667C32.0226 216.998 29.9624 217.97 26.572 219.331C23.1815 220.692 27.8698 230.446 37.3598 235.923C46.8497 241.416 44.4164 242.777 42.5346 245.645C40.6366 248.529 45.8764 257.586 59.568 258.801Z" fill="#9DC89E"/>
<path d="M59.3732 252.952L60.1194 252.773C55.6259 234.124 44.4812 218.197 35.9483 208.135C26.6855 197.231 18.3797 190.636 18.2986 190.571L17.8281 191.171C17.9092 191.236 26.1663 197.798 35.3806 208.637C43.8485 218.651 54.9121 234.464 59.3732 252.952Z" fill="#599E85"/>
<path d="M49.948 229.328L50.2887 228.648C41.6909 224.306 33.4825 223.107 33.4014 223.09L33.2878 223.852C33.3852 223.868 41.4638 225.051 49.948 229.328Z" fill="#599E85"/>
<path d="M39.5496 213.79L40.2309 213.433C35.3805 204.36 36.7107 197.215 36.7107 197.15L35.9645 197.004C35.8996 197.296 34.5694 204.473 39.5496 213.79Z" fill="#599E85"/>
<path d="M48.6667 227.206L49.3967 226.979C47.0445 219.153 48.8776 213.611 48.9101 213.563L48.1801 213.32C48.0989 213.547 46.2496 219.137 48.6667 227.206Z" fill="#599E85"/>
<path d="M34.4884 207.568L34.8128 206.871C34.6181 206.774 30.157 204.684 25.9717 204.522C25.9393 204.522 25.9068 204.522 25.8744 204.522L25.8582 205.283C25.8906 205.283 25.923 205.283 25.9555 205.283C29.9624 205.446 34.4397 207.536 34.4884 207.568Z" fill="#599E85"/>
<path d="M347.366 257.569H8.24097V259.984H347.366V257.569Z" fill="#70617F"/>
<path d="M275.291 183.475L275.015 181.806C276.702 181.53 278.357 181.109 279.963 180.558L280.514 182.162C278.827 182.746 277.075 183.183 275.291 183.475ZM269.921 183.896C268.121 183.88 266.32 183.702 264.552 183.361L264.86 181.692C266.531 182 268.234 182.179 269.937 182.195L269.921 183.896ZM285.446 179.943L284.619 178.468C286.095 177.642 287.522 176.67 288.836 175.6L289.907 176.913C288.512 178.047 287.003 179.068 285.446 179.943ZM259.344 181.887C257.673 181.255 256.035 180.461 254.478 179.538L255.337 178.079C256.797 178.954 258.355 179.7 259.928 180.299L259.344 181.887ZM293.768 173.137L292.486 172.036C293.589 170.756 294.595 169.362 295.471 167.904L296.931 168.763C295.99 170.302 294.936 171.776 293.768 173.137ZM250.098 176.41C248.735 175.244 247.47 173.948 246.318 172.554L247.632 171.485C248.703 172.797 249.903 174.012 251.201 175.13L250.098 176.41ZM299.267 163.918L297.677 163.319C298.278 161.731 298.748 160.078 299.073 158.409L300.743 158.717C300.403 160.483 299.9 162.233 299.267 163.918ZM243.284 168.098C242.408 166.527 241.662 164.874 241.062 163.189L242.668 162.638C243.236 164.242 243.933 165.798 244.761 167.288L243.284 168.098ZM301.263 153.354L299.575 153.338C299.592 151.653 299.462 149.968 299.202 148.299L300.873 147.991V148.023C301.149 149.789 301.295 151.588 301.263 153.354ZM241.403 157.696L239.732 157.972L239.715 157.907C239.423 156.108 239.294 154.31 239.31 152.528L240.997 152.544C240.981 154.229 241.094 155.946 241.37 157.631L241.403 157.696ZM297.937 143.308C297.385 141.704 296.672 140.149 295.844 138.658L297.321 137.832C298.197 139.403 298.943 141.056 299.527 142.741L297.937 143.308ZM241.532 147.472L239.862 147.148C240.202 145.382 240.689 143.649 241.338 141.963L242.928 142.563C242.327 144.151 241.857 145.804 241.532 147.472ZM292.973 134.462C291.902 133.149 290.702 131.918 289.404 130.816L290.507 129.536C291.87 130.703 293.135 132.015 294.271 133.392L292.973 134.462ZM245.15 137.978L243.69 137.103C244.615 135.563 245.669 134.089 246.853 132.728L248.135 133.83C247.032 135.142 246.026 136.519 245.15 137.978ZM285.267 127.835C283.807 126.96 282.266 126.214 280.677 125.615L281.277 124.027C282.948 124.659 284.586 125.453 286.127 126.376L285.267 127.835ZM251.801 130.298L250.73 128.985C252.125 127.851 253.618 126.83 255.191 125.955L256.019 127.43C254.526 128.256 253.115 129.228 251.801 130.298ZM275.777 124.222C274.107 123.897 272.403 123.735 270.7 123.719L270.716 122.034C272.517 122.05 274.317 122.245 276.086 122.569L275.777 124.222ZM260.658 125.34L260.107 123.735C261.794 123.152 263.562 122.698 265.33 122.423L265.606 124.092C263.919 124.367 262.264 124.789 260.658 125.34Z" fill="#7BCEEF"/>
<path d="M97.8686 74.1553V71.8869C99.7017 71.8869 101.535 71.7249 103.319 71.4008L103.725 73.6368C101.794 73.9771 99.8315 74.1553 97.8686 74.1553ZM92.0286 73.6692C90.0982 73.3452 88.2002 72.8429 86.3509 72.1786L87.1295 70.0398C88.8491 70.6555 90.6173 71.1254 92.418 71.4333L92.0286 73.6692ZM109.37 72.0976L108.592 69.9588C110.295 69.3269 111.966 68.5492 113.539 67.6256L114.691 69.5861C112.988 70.5907 111.203 71.4333 109.37 72.0976ZM81.0138 69.7158C79.3266 68.7436 77.7044 67.6256 76.1958 66.3618L77.6558 64.6119C79.0509 65.7785 80.5595 66.8317 82.1493 67.739L81.0138 69.7158ZM119.477 66.2322L118 64.4985C119.396 63.3319 120.693 62.0195 121.861 60.6261L123.613 62.0843C122.348 63.5749 120.969 64.9684 119.477 66.2322ZM72.0429 62.2463C70.7775 60.7557 69.642 59.1516 68.6524 57.4665L70.6153 56.3161C71.54 57.8878 72.5944 59.3947 73.7786 60.7719L72.0429 62.2463ZM126.971 57.2721L124.992 56.1379C125.901 54.5663 126.679 52.8974 127.296 51.1799L129.437 51.9576C128.772 53.7885 127.945 55.587 126.971 57.2721ZM66.1542 52.1683C65.4729 50.3374 64.9538 48.4416 64.6131 46.5135L66.8518 46.1085C67.1762 47.907 67.6629 49.673 68.2793 51.3743L66.1542 52.1683ZM130.929 46.2867L128.691 45.8978C128.999 44.1317 129.145 42.3332 129.145 40.5185V40.4537H131.416V40.5185C131.432 42.4628 131.27 44.4072 130.929 46.2867ZM66.3651 40.6643H64.094V40.5347C64.094 38.558 64.2562 36.5975 64.5969 34.6856L66.8355 35.0744C66.5273 36.8567 66.3651 38.6876 66.3651 40.5185V40.6643ZM128.675 35.0096C128.35 33.2111 127.88 31.445 127.247 29.7437L129.388 28.966C130.053 30.7969 130.573 32.7088 130.913 34.6207L128.675 35.0096ZM68.2469 29.8085L66.1055 29.0308C66.7707 27.1999 67.6142 25.4176 68.5875 23.7163L70.5667 24.8505C69.642 26.4384 68.8633 28.1073 68.2469 29.8085ZM124.927 24.8019C124.019 23.2303 122.948 21.7234 121.78 20.33L123.516 18.8555C124.781 20.3462 125.917 21.9664 126.89 23.6515L124.927 24.8019ZM73.6975 20.3786L71.9455 18.9203C73.1947 17.4297 74.5898 16.0363 76.0984 14.7725L77.5584 16.5223C76.1633 17.6889 74.8655 18.9852 73.6975 20.3786ZM117.903 16.4737C116.508 15.3071 114.999 14.254 113.426 13.3466L114.561 11.3699C116.248 12.3421 117.871 13.4762 119.363 14.7238L117.903 16.4737ZM82.0358 13.379L80.9002 11.4185C82.5873 10.4463 84.3718 9.6038 86.2049 8.93949L86.9835 11.0782C85.2802 11.6777 83.6093 12.4555 82.0358 13.379ZM108.462 11.0296C106.758 10.4139 104.974 9.94405 103.173 9.62L103.563 7.38403C105.493 7.72429 107.391 8.22657 109.24 8.89088L108.462 11.0296ZM92.272 9.65241L91.8826 7.41644C93.7969 7.07618 95.7597 6.91415 97.7226 6.89795V9.16633C95.8895 9.16633 94.0564 9.32835 92.272 9.65241Z" fill="#7BCEEF"/>
<path d="M277.578 89.3531C267.245 91.022 257.479 83.9738 255.808 73.6527C254.137 63.3316 261.194 53.5776 271.527 51.9087C281.861 50.2398 291.627 57.288 293.298 67.6091C294.969 77.9302 287.928 87.6842 277.578 89.3531ZM271.755 53.3669C262.216 54.9062 255.711 63.9149 257.252 73.4259C258.793 82.9368 267.813 89.4503 277.335 87.9111C286.874 86.3718 293.379 77.3631 291.838 67.8521C290.313 58.325 281.293 51.8277 271.755 53.3669Z" fill="#7BCEEF"/>
<path d="M292.389 108.44C290.085 108.813 287.895 107.241 287.522 104.94C287.149 102.64 288.723 100.452 291.026 100.08C293.33 99.7069 295.52 101.279 295.893 103.596C296.282 105.88 294.709 108.068 292.389 108.44ZM291.205 101.084C289.453 101.36 288.268 103.012 288.544 104.762C288.82 106.512 290.475 107.695 292.227 107.419C293.979 107.144 295.163 105.491 294.887 103.741C294.595 101.992 292.957 100.809 291.205 101.084Z" fill="#7BCEEF"/>
<path d="M72.6107 127.365C62.1149 127.365 53.582 118.842 53.582 108.359C53.582 97.876 62.1311 89.3696 72.6107 89.3696C83.0902 89.3696 91.6393 97.8922 91.6393 108.375C91.6393 118.859 83.1065 127.365 72.6107 127.365ZM72.6107 90.8927C62.9585 90.8927 55.1231 98.7348 55.1231 108.359C55.1231 118 62.9747 125.826 72.6107 125.826C82.2467 125.826 90.0982 117.984 90.0982 108.359C90.0982 98.7348 82.2629 90.8927 72.6107 90.8927Z" fill="#7BCEEF"/>
<path d="M40.2149 134.024C37.1165 134.024 34.6021 131.513 34.6021 128.418C34.6021 125.323 37.1165 122.812 40.2149 122.812C43.3134 122.812 45.8278 125.323 45.8278 128.418C45.8278 131.513 43.3134 134.024 40.2149 134.024ZM40.2149 123.898C37.7167 123.898 35.6727 125.923 35.6727 128.434C35.6727 130.93 37.7005 132.971 40.2149 132.971C42.7294 132.971 44.7572 130.946 44.7572 128.434C44.7572 125.923 42.7132 123.898 40.2149 123.898Z" fill="#7BCEEF"/>
<path d="M270.862 28.3824V247.653C270.862 253.13 266.417 257.569 260.934 257.569H93.7481C88.265 257.569 83.8201 253.13 83.8201 247.653V28.3824C83.8201 27.2806 83.9985 26.2274 84.323 25.239C84.3392 25.1742 84.3554 25.1094 84.3878 25.0608C85.7505 21.2208 89.433 18.4663 93.7481 18.4663H260.934C265.249 18.4663 268.932 21.2208 270.294 25.0608C270.327 25.1256 270.343 25.1742 270.359 25.239C270.684 26.2274 270.862 27.2806 270.862 28.3824Z" fill="#374C82"/>
<path d="M264.373 29.9058V246.114C264.373 248.853 262.151 251.072 259.409 251.072H95.2892C92.5476 251.072 90.3252 248.853 90.3252 246.114V29.9058C90.3252 27.1675 92.5476 24.9478 95.2892 24.9478H259.425C262.151 24.9478 264.373 27.1675 264.373 29.9058Z" fill="#E1EAFF"/>
<path d="M255.467 38.0233V237.997C255.467 240.525 253.472 242.582 251.006 242.582H103.676C101.21 242.582 99.2151 240.525 99.2151 237.997V38.0233C99.2151 35.4957 101.21 33.438 103.676 33.438H251.023C253.472 33.438 255.467 35.4957 255.467 38.0233Z" fill="white"/>
<path d="M248.038 48.069V227.967C248.038 230.673 245.848 232.861 243.139 232.861H111.56C108.851 232.861 106.661 230.673 106.661 227.967V48.069C106.661 45.3631 108.851 43.1758 111.56 43.1758H243.139C245.831 43.1758 248.038 45.3631 248.038 48.069Z" fill="white"/>
<path d="M243.139 233.508H111.56C108.494 233.508 106.012 231.013 106.012 227.967V48.0687C106.012 45.0064 108.494 42.5273 111.56 42.5273H243.139C246.205 42.5273 248.687 45.0064 248.687 48.0687V227.967C248.687 231.013 246.188 233.508 243.139 233.508ZM111.56 43.8236C109.224 43.8236 107.31 45.7193 107.31 48.0687V227.967C107.31 230.3 109.208 232.212 111.56 232.212H243.139C245.475 232.212 247.389 230.316 247.389 227.967V48.0687C247.389 45.7355 245.491 43.8236 243.139 43.8236H111.56Z" fill="#E1EAFF"/>
<g opacity="0.1">
<path d="M248.038 48.069V227.967C248.038 230.673 245.848 232.861 243.139 232.861H111.56C108.851 232.861 106.661 230.673 106.661 227.967V48.069C106.661 45.3631 108.851 43.1758 111.56 43.1758H243.139C245.831 43.1758 248.038 45.3631 248.038 48.069Z" fill="#E1EAFF"/>
</g>
<path d="M222.066 257.57H199.241C199.241 257.57 200.945 252.595 206.314 254.41C206.314 254.41 207.677 250.165 211.408 250.311C215.139 250.457 216.339 253.94 216.339 253.94C216.339 253.94 221.352 253.325 222.066 257.57Z" fill="#599E85"/>
<path d="M174.194 257.57H130.881C130.881 257.57 134.109 248.123 144.297 251.558C144.297 251.558 146.876 243.522 153.965 243.781C161.054 244.056 163.309 250.667 163.309 250.667C163.309 250.667 172.832 249.517 174.194 257.57Z" fill="#9DC89E"/>
<path d="M277.578 257.57H227.792C227.792 257.57 231.491 246.714 243.22 250.667C243.22 250.667 246.188 241.415 254.332 241.723C262.475 242.031 265.071 249.63 265.071 249.63C265.071 249.63 276.005 248.318 277.578 257.57Z" fill="#9DC89E"/>
<path d="M107.959 257.569H65.3755C65.3755 257.569 68.5388 248.285 78.5641 251.655C78.5641 251.655 81.0948 243.748 88.0704 244.008C95.0459 244.267 97.2521 250.78 97.2521 250.78C97.2521 250.78 106.629 249.646 107.959 257.569Z" fill="#599E85"/>
<path d="M159.545 162.395H231.361H231.929H238.969L234.622 166.964V182.146C234.622 183.637 233.405 184.852 231.913 184.852H159.545C158.053 184.852 156.836 183.637 156.836 182.146V165.101C156.836 163.61 158.053 162.395 159.545 162.395Z" fill="#C2D5F9"/>
<path d="M229.382 168.179H162.092V171.42H229.382V168.179Z" fill="white"/>
<path d="M229.382 175.811H184.836V179.051H229.382V175.811Z" fill="white"/>
<path d="M159.545 88.9966H231.361H231.929H238.969L234.622 93.5657V119.441C234.622 120.932 233.405 122.147 231.913 122.147H159.545C158.053 122.147 156.836 120.932 156.836 119.441V91.7024C156.836 90.2118 158.053 88.9966 159.545 88.9966Z" fill="#C2D5F9"/>
<path d="M229.382 96.8711H162.092V100.112H229.382V96.8711Z" fill="white"/>
<path d="M229.382 103.401H162.092V106.641H229.382V103.401Z" fill="white"/>
<path d="M229.382 111.016H184.836V114.257H229.382V111.016Z" fill="white"/>
<path d="M115.729 66.9448H122.769H123.337H188.664C190.156 66.9448 191.373 68.16 191.373 69.6507V76.0021C191.373 77.4928 190.156 78.708 188.664 78.708H122.769C121.277 78.708 120.06 77.4928 120.06 76.0021V71.5302L115.729 66.9448Z" fill="#E1EAFF"/>
<path d="M177.86 71.1899H129.242V74.4305H177.86V71.1899Z" fill="white"/>
<path d="M115.729 132.501H122.769H123.337H188.988C190.481 132.501 191.698 133.716 191.698 135.207V152.252C191.698 153.743 190.481 154.958 188.988 154.958H122.769C121.277 154.958 120.06 153.743 120.06 152.252V137.07L115.729 132.501Z" fill="#E1EAFF"/>
<path d="M182.938 138.285H128.821V141.526H182.938V138.285Z" fill="white"/>
<path d="M182.954 145.917H151.564V149.158H182.954V145.917Z" fill="white"/>
<path d="M115.729 192.208H122.769H123.337H188.988C190.481 192.208 191.698 193.423 191.698 194.914V204.83C191.698 206.321 190.481 207.536 188.988 207.536H122.769C121.277 207.536 120.06 206.321 120.06 204.83V196.777L115.729 192.208Z" fill="#E1EAFF"/>
<path d="M183.733 198.251H127.636V201.492H183.733V198.251Z" fill="white"/>
<path d="M115.729 214.567H122.769H123.337H188.988C190.481 214.567 191.698 215.783 191.698 217.273V223.625C191.698 225.115 190.481 226.331 188.988 226.331H122.769C121.277 226.331 120.06 225.115 120.06 223.625V219.153L115.729 214.567Z" fill="#E1EAFF"/>
<path d="M185.728 218.812H141.912V222.053H185.728V218.812Z" fill="white"/>
<path d="M248.038 48.069V60.5613H106.661V48.069C106.661 45.3631 108.851 43.1758 111.56 43.1758H243.139C245.831 43.1758 248.038 45.3631 248.038 48.069Z" fill="#E1EAFF"/>
<path d="M119.271 54.2244C120.576 52.9209 120.576 50.8076 119.271 49.5041C117.966 48.2007 115.85 48.2007 114.545 49.5041C113.24 50.8076 113.24 52.9209 114.545 54.2244C115.85 55.5278 117.966 55.5278 119.271 54.2244Z" fill="white"/>
<path d="M130.789 52.4014C131.087 50.5821 129.851 48.8661 128.03 48.5686C126.208 48.2711 124.491 49.5047 124.194 51.324C123.896 53.1433 125.132 54.8593 126.953 55.1568C128.775 55.4543 130.492 54.2207 130.789 52.4014Z" fill="white"/>
<path d="M141.333 52.6373C141.76 50.8441 140.652 49.044 138.856 48.6167C137.061 48.1894 135.259 49.2967 134.831 51.0899C134.403 52.8832 135.512 54.6833 137.307 55.1106C139.102 55.5379 140.905 54.4306 141.333 52.6373Z" fill="white"/>
<path d="M220.525 53.6748H211.278V55.6029H220.525V53.6748Z" fill="white"/>
<path d="M230.08 50.6289L228.441 52.2654L230.08 53.9019C230.469 54.2907 230.469 54.9064 230.08 55.2953C229.69 55.6842 229.074 55.6842 228.685 55.2953L227.046 53.6588L225.408 55.2953C225.018 55.6842 224.402 55.6842 224.013 55.2953C223.623 54.9064 223.623 54.2907 224.013 53.9019L225.651 52.2654L224.013 50.6289C223.623 50.2401 223.623 49.6244 224.013 49.2355C224.402 48.8466 225.018 48.8466 225.408 49.2355L227.046 50.872L228.685 49.2355C229.074 48.8466 229.69 48.8466 230.08 49.2355C230.469 49.6244 230.469 50.2563 230.08 50.6289Z" fill="white"/>
<path d="M241.111 55.6028H233.811V48.1172H241.111V55.6028ZM235.271 54.1608H239.651V49.5916H235.271V54.1608Z" fill="white"/>
</svg>
