<svg width="156" height="27" viewBox="0 0 156 27" fill="none" xmlns="http://www.w3.org/2000/svg">
<path fill-rule="evenodd" clip-rule="evenodd" d="M25.5396 0.0852791C26.3551 0.31362 27.0063 0.923482 27.3449 1.79204L27.463 2.09408L27.4788 8.53677C27.4889 14.1571 27.4846 15.069 27.4126 15.6948C26.9415 19.815 24.6795 23.1448 20.925 25.2287C19.1501 26.2144 16.7657 26.8719 14.5714 26.9789C11.2837 27.1436 8.20636 26.343 5.59722 24.6463C4.0326 23.6289 2.54001 22.0797 1.66838 20.568C1.03734 19.4711 0.504279 18.0866 0.268001 16.9247L0.16571 16.4362H1.63668H3.1091L3.25317 16.9247C4.09455 19.8627 6.35648 22.1635 9.48427 23.2821C10.9408 23.8067 12.0689 23.9873 13.7718 23.9873C15.4488 23.9815 16.5265 23.8067 17.9672 23.298C21.4235 22.0782 23.8137 19.4118 24.4346 16.0922C24.5931 15.2497 24.6089 14.6239 24.6147 8.83881L24.6205 2.96843H16.0554H7.49032V1.48422V0L16.3723 0.00578642C24.0139 0.00578642 25.3005 0.0159098 25.5425 0.0852791H25.5396Z" fill="white"/>
<path fill-rule="evenodd" clip-rule="evenodd" d="M5.69231 1.91049V3.3947H4.28184H2.87138V9.20148V15.0083H1.43643H3.05176e-05V8.97459C3.05176e-05 4.89625 0.0158784 2.83397 0.0562185 2.62153C0.236308 1.58821 1.11226 0.670506 2.09772 0.479741C2.24611 0.447947 3.11774 0.42627 4.03116 0.42627H5.69231V1.91049Z" fill="#6882A0"/>
<path d="M37.7913 24.0263V3.14197H44.8261C46.4594 3.14197 47.7945 3.4377 48.8314 4.02915C49.8751 4.6138 50.6477 5.40581 51.1493 6.40516C51.6508 7.4045 51.9015 8.51942 51.9015 9.74992C51.9015 10.9804 51.6508 12.0987 51.1493 13.1049C50.6545 14.111 49.8887 14.9132 48.8518 15.5115C47.8149 16.1029 46.4865 16.3986 44.8668 16.3986H39.8245V14.1552H44.7854C45.9037 14.1552 46.8017 13.9615 47.4794 13.574C48.1571 13.1865 48.6485 12.663 48.9534 12.0035C49.2652 11.3373 49.4211 10.5861 49.4211 9.74992C49.4211 8.91373 49.2652 8.16591 48.9534 7.50648C48.6485 6.84704 48.1537 6.33037 47.4692 5.95647C46.7847 5.57576 45.8766 5.38541 44.7448 5.38541H40.3125V24.0263H37.7913Z" fill="white"/>
<path d="M73.5294 13.5842C73.5294 15.7868 73.1329 17.6903 72.34 19.2947C71.5471 20.8991 70.4593 22.1364 69.0768 23.0066C67.6942 23.8768 66.1151 24.3119 64.3395 24.3119C62.5638 24.3119 60.9847 23.8768 59.6022 23.0066C58.2196 22.1364 57.1319 20.8991 56.3389 19.2947C55.546 17.6903 55.1495 15.7868 55.1495 13.5842C55.1495 11.3815 55.546 9.47798 56.3389 7.87359C57.1319 6.26919 58.2196 5.0319 59.6022 4.16172C60.9847 3.29154 62.5638 2.85645 64.3395 2.85645C66.1151 2.85645 67.6942 3.29154 69.0768 4.16172C70.4593 5.0319 71.5471 6.26919 72.34 7.87359C73.1329 9.47798 73.5294 11.3815 73.5294 13.5842ZM71.0896 13.5842C71.0896 11.7758 70.788 10.2496 70.1848 9.0055C69.5884 7.76141 68.7786 6.81985 67.7552 6.18081C66.7386 5.54177 65.6 5.22225 64.3395 5.22225C63.0789 5.22225 61.9369 5.54177 60.9136 6.18081C59.897 6.81985 59.0871 7.76141 58.4839 9.0055C57.8875 10.2496 57.5893 11.7758 57.5893 13.5842C57.5893 15.3925 57.8875 16.9187 58.4839 18.1628C59.0871 19.4069 59.897 20.3485 60.9136 20.9875C61.9369 21.6265 63.0789 21.9461 64.3395 21.9461C65.6 21.9461 66.7386 21.6265 67.7552 20.9875C68.7786 20.3485 69.5884 19.4069 70.1848 18.1628C70.788 16.9187 71.0896 15.3925 71.0896 13.5842Z" fill="white"/>
<path d="M94.5219 9.66834H92.0008C91.8517 8.94092 91.5908 8.30188 91.218 7.75122C90.852 7.20055 90.4047 6.73827 89.8761 6.36437C89.3543 5.98366 88.7748 5.69813 88.1377 5.50778C87.5007 5.31743 86.8365 5.22225 86.1452 5.22225C84.8847 5.22225 83.7427 5.54177 82.7193 6.18081C81.7028 6.81985 80.8929 7.76141 80.2897 9.0055C79.6933 10.2496 79.3951 11.7758 79.3951 13.5842C79.3951 15.3925 79.6933 16.9187 80.2897 18.1628C80.8929 19.4069 81.7028 20.3485 82.7193 20.9875C83.7427 21.6265 84.8847 21.9461 86.1452 21.9461C86.8365 21.9461 87.5007 21.8509 88.1377 21.6605C88.7748 21.4702 89.3543 21.188 89.8761 20.8141C90.4047 20.4334 90.852 19.9677 91.218 19.4171C91.5908 18.8596 91.8517 18.2206 92.0008 17.5H94.5219C94.3322 18.5673 93.9865 19.5225 93.485 20.3654C92.9835 21.2084 92.36 21.9257 91.6145 22.5171C90.869 23.1018 90.032 23.547 89.1035 23.853C88.1818 24.1589 87.1957 24.3119 86.1452 24.3119C84.3696 24.3119 82.7905 23.8768 81.408 23.0066C80.0254 22.1364 78.9376 20.8991 78.1447 19.2947C77.3518 17.6903 76.9553 15.7868 76.9553 13.5842C76.9553 11.3815 77.3518 9.47798 78.1447 7.87359C78.9376 6.26919 80.0254 5.0319 81.408 4.16172C82.7905 3.29154 84.3696 2.85645 86.1452 2.85645C87.1957 2.85645 88.1818 3.00941 89.1035 3.31533C90.032 3.62125 90.869 4.06994 91.6145 4.66139C92.36 5.24605 92.9835 5.95987 93.485 6.80285C93.9865 7.63904 94.3322 8.5942 94.5219 9.66834Z" fill="white"/>
<path d="M98.5959 24.0263V3.14197H101.117V13.5026H101.361L110.714 3.14197H114.007L105.265 12.5644L114.007 24.0263H110.958L103.719 14.3184L101.117 17.2552V24.0263H98.5959Z" fill="white"/>
<path d="M117.271 24.0263V3.14197H129.836V5.38541H119.792V12.442H129.185V14.6855H119.792V21.7829H129.998V24.0263H117.271Z" fill="white"/>
<path d="M133.241 5.38541V3.14197H148.856V5.38541H142.309V24.0263H139.788V5.38541H133.241Z" fill="white"/>
<path d="M154.17 24.1895C153.669 24.1895 153.238 24.0093 152.879 23.649C152.52 23.2887 152.34 22.857 152.34 22.3539C152.34 21.8509 152.52 21.4192 152.879 21.0589C153.238 20.6986 153.669 20.5184 154.17 20.5184C154.672 20.5184 155.102 20.6986 155.461 21.0589C155.82 21.4192 156 21.8509 156 22.3539C156 22.6871 155.915 22.993 155.746 23.2717C155.583 23.5504 155.363 23.7748 155.085 23.9447C154.814 24.1079 154.509 24.1895 154.17 24.1895Z" fill="white"/>
</svg>
