<svg width="429" height="261" viewBox="0 0 429 261" fill="none" xmlns="http://www.w3.org/2000/svg">
<path d="M418.704 53.7636C407.914 32.3039 384.241 16.1693 361.206 21.1154C347.404 24.087 333.703 34.0191 320.46 29.0331C310.927 25.4432 305.542 15.232 297.525 8.82997C285.179 -1.02231 267.689 -0.90265 252.651 3.50495C237.613 7.91255 223.852 16.0297 209.014 21.0556C183.705 29.6115 155.444 28.6741 130.734 18.4828C119.884 13.9954 109.713 7.83277 98.6641 3.88388C87.6152 -0.0650078 75.0904 -1.58074 64.4204 3.3454C53.7504 8.27154 46.092 21.1752 49.8016 32.5433C50.5395 34.8169 51.6962 37.0506 51.5367 39.4438C51.2973 43.2731 47.6875 46.0652 44.0378 46.9228C40.388 47.7804 36.5987 47.222 32.8492 47.3217C16.0764 47.7604 1.07862 63.4563 0.998846 80.6679C0.939015 94.9477 9.51489 107.472 16.8542 119.618C24.1936 131.744 30.795 146.303 26.4273 159.845C23.8346 167.883 17.7517 174.165 13.7629 181.584C3.432 200.79 5.36656 228.492 23.3759 242.453C34.5844 251.128 68.3893 256.952 80.8542 256.952C109.773 256.952 138.711 256.952 167.63 256.952C200.358 256.952 233.066 256.952 265.794 256.952C289.647 256.952 313.56 258.627 337.333 256.952C388.808 253.322 417.786 173.507 420.12 168.102C425.365 155.936 425.824 137.668 427.24 124.604C429.812 100.592 429.473 75.2232 418.704 53.7636Z" fill="#F5F5F5"/>
<path d="M402.629 70.397C392.378 50.473 369.861 35.4752 347.962 40.0623C334.839 42.8146 321.796 52.0486 309.231 47.4216C300.157 44.071 295.051 34.5977 287.433 28.6544C275.706 19.5002 259.053 19.5999 244.753 23.7083C230.453 27.8168 217.37 35.3556 203.25 40.0224C179.177 47.9601 152.313 47.1025 128.799 37.6292C114.639 31.9252 103.65 24.0673 87.7744 28.2555C83.7059 29.3325 79.6772 30.7884 76.2469 33.2415C67.0527 39.7831 63.6623 52.0486 54.9667 59.2284C45.3737 67.1661 34.4844 64.1944 23.4753 67.8442C17.7714 69.7388 12.4264 73.5681 10.1728 79.1125C8.7368 82.6226 8.63708 86.5515 9.01601 90.3209C9.97332 99.9937 12.6059 106.974 19.0677 114.034C25.2105 120.735 33.4672 124.704 40.6071 130.189C50.9381 138.126 54.9069 149.654 62.5853 159.786C70.503 170.216 79.7171 179.769 86.0393 191.297C88.5722 195.904 90.5865 200.77 92.8003 205.557C97.3675 215.389 102.772 224.783 108.177 234.176C109.832 237.048 111.488 239.94 113.582 242.533C131.232 264.292 163.142 258.588 187.574 258.588C209.811 258.588 232.068 258.588 254.306 258.588C264.796 258.588 275.267 259.325 285.498 257.052C295.749 254.778 305.263 250.131 314.517 245.305C333.184 235.552 351.333 224.563 367.567 211.121C375.684 204.4 383.323 197.081 390.164 189.043C396.765 181.285 404.364 172.649 405.8 162.259C406.996 153.503 409.988 145.087 410.766 136.192C413.199 113.895 412.88 90.3209 402.629 70.397Z" fill="#EDEDED"/>
<g opacity="0.5">
<g opacity="0.72">
<path d="M357.835 43.6122C357.735 41.8771 355.402 41.4383 354.664 42.994C347.664 58.1713 328.079 97.381 304.605 116.088C266.352 146.563 235.459 201.029 251.514 234.356C251.494 234.356 367.966 231.603 357.835 43.6122Z" fill="#5E8A00"/>
<path opacity="0.43" d="M350.874 65.7499C350.815 65.9892 350.755 66.2086 350.675 66.428L350.456 67.0861L350.017 68.4024C349.718 69.28 349.418 70.1575 349.119 71.0151C348.501 72.7502 347.883 74.4853 347.245 76.2204C345.968 79.6907 344.652 83.141 343.296 86.5713C340.583 93.432 337.711 100.233 334.7 106.994C331.708 113.755 328.557 120.436 325.286 127.037C323.651 130.348 321.976 133.639 320.261 136.91C318.545 140.181 316.79 143.431 315.015 146.662C313.22 149.893 311.405 153.104 309.511 156.275C307.636 159.446 305.721 162.617 303.747 165.729C301.773 168.86 299.778 171.951 297.704 175.003C295.63 178.054 293.536 181.105 291.342 184.077C289.168 187.049 286.934 190 284.621 192.892C282.307 195.784 279.974 198.636 277.521 201.408C276.922 202.106 276.304 202.784 275.686 203.482C275.068 204.161 274.449 204.859 273.811 205.537L271.917 207.551L269.982 209.545C267.389 212.178 264.737 214.751 261.984 217.224C261.945 217.264 261.885 217.264 261.845 217.224C261.805 217.184 261.805 217.124 261.845 217.084C264.557 214.591 267.19 211.998 269.763 209.346C272.335 206.693 274.788 203.941 277.202 201.169C279.615 198.397 281.948 195.525 284.242 192.633C286.535 189.741 288.729 186.789 290.903 183.798C299.559 171.851 307.317 159.287 314.497 146.383C316.292 143.152 318.047 139.921 319.762 136.65C321.477 133.38 323.152 130.109 324.808 126.798C326.443 123.487 328.059 120.177 329.634 116.846C331.21 113.516 332.765 110.165 334.281 106.794C337.313 100.073 340.204 93.2725 342.957 86.4317C344.333 83.0213 345.689 79.571 346.985 76.1207C347.643 74.3856 348.282 72.6704 348.9 70.9353C349.219 70.0578 349.518 69.2002 349.817 68.3227L350.256 67.0064L350.476 66.3482C350.535 66.1288 350.615 65.9094 350.675 65.6901V65.6701C350.695 65.6302 350.735 65.5903 350.795 65.6103C350.854 65.6502 350.894 65.6901 350.874 65.7499Z" fill="white"/>
</g>
<path d="M392.916 83.4401C396.187 102.566 410.667 214.651 307.936 247.14C307.936 247.14 279.396 175.8 390.244 82.4628C391.201 81.6451 392.697 82.2035 392.916 83.4401Z" fill="#5E8A00"/>
<path opacity="0.45" d="M384.101 100.831C382.685 106.874 381.129 112.877 379.534 118.86C377.938 124.844 376.263 130.827 374.528 136.77C371.038 148.677 367.308 160.503 363.2 172.19C359.091 183.897 354.624 195.485 349.538 206.793C347.005 212.457 344.273 218.041 341.341 223.526C338.39 228.991 335.218 234.355 331.629 239.461C331.409 239.76 330.99 239.84 330.691 239.621C330.392 239.401 330.312 238.982 330.532 238.683C334.102 233.657 337.293 228.352 340.244 222.948C343.196 217.523 345.948 211.978 348.501 206.334C353.627 195.066 358.134 183.538 362.322 171.871C366.49 160.204 370.28 148.417 373.83 136.551C375.605 130.607 377.3 124.664 378.935 118.681C380.571 112.698 382.146 106.715 383.602 100.692C383.642 100.532 383.782 100.452 383.941 100.492C384.041 100.532 384.141 100.692 384.101 100.831Z" fill="white"/>
<path d="M307.936 259.923C307.936 259.923 310.788 240.518 332.865 223.286C353.348 207.311 403.327 170.655 416.57 148.557C417.148 147.579 418.664 148.078 418.524 149.215C417.128 161.381 411.205 191.576 386.395 219.198C354.405 254.838 307.936 259.923 307.936 259.923Z" fill="#5E8A00"/>
<path opacity="0.45" d="M406.738 169.418C406.059 172.031 405.042 174.564 403.906 177.017C403.766 177.316 403.626 177.635 403.487 177.934L403.028 178.852L402.111 180.667L401.113 182.442C400.774 183.04 400.475 183.638 400.096 184.197C397.284 188.844 394.093 193.251 390.543 197.36C389.706 198.417 388.748 199.394 387.831 200.391L386.455 201.887C386.215 202.126 385.996 202.386 385.757 202.625L385.039 203.343L382.127 206.195C381.648 206.674 381.13 207.112 380.631 207.571L379.095 208.907L377.56 210.244L376.802 210.922L376.004 211.56L372.813 214.093C372.275 214.512 371.756 214.95 371.218 215.349L369.582 216.566L366.331 218.979L363.041 221.372C361.944 222.17 360.847 222.968 359.75 223.746C357.536 225.321 355.322 226.857 353.089 228.392C350.875 229.928 348.621 231.444 346.387 232.96L339.626 237.447C335.119 240.439 330.612 243.41 326.204 246.521C325.087 247.279 324.01 248.097 322.933 248.895C322.395 249.294 321.856 249.712 321.338 250.131C320.819 250.55 320.281 250.969 319.762 251.388C318.745 252.285 317.708 253.123 316.751 254.08L316.013 254.778C315.893 254.898 315.773 255.018 315.654 255.137L315.315 255.516L313.959 257.012C313.899 257.072 313.819 257.072 313.759 257.012C313.699 256.952 313.699 256.872 313.739 256.812C315.454 254.698 317.389 252.784 319.423 250.989C319.942 250.55 320.46 250.111 320.979 249.673C321.497 249.234 322.016 248.795 322.554 248.396C323.631 247.578 324.688 246.721 325.785 245.923L327.421 244.727C327.959 244.328 328.518 243.949 329.076 243.55L330.731 242.373L332.407 241.216C334.64 239.681 336.874 238.165 339.108 236.649C343.575 233.598 348.043 230.566 352.49 227.475C356.938 224.404 361.325 221.253 365.673 218.062L368.924 215.648L370.539 214.432C371.078 214.033 371.596 213.594 372.135 213.195L375.306 210.702L376.104 210.084L376.862 209.426L378.377 208.09C382.486 204.599 386.275 200.77 389.885 196.761C393.495 192.773 396.746 188.445 399.638 183.898C400.017 183.339 400.336 182.741 400.695 182.182L401.732 180.447L402.689 178.672L403.168 177.775C403.327 177.476 403.467 177.177 403.606 176.877C403.906 176.279 404.205 175.681 404.484 175.063L405.302 173.208C405.8 171.951 406.319 170.715 406.698 169.418L406.718 169.398C406.738 169.398 406.738 169.418 406.738 169.418Z" fill="white"/>
</g>
<g opacity="0.5">
<g opacity="0.9">
<path d="M34.1257 64.4935C30.097 88.7453 11.1902 229.908 112.705 249.174C112.705 249.174 144.076 155.418 36.8381 62.7385C35.9007 61.9208 34.385 62.898 34.1257 64.4935Z" fill="#5E8A00"/>
<path opacity="0.45" d="M40.3084 84.7565C41.7045 91.5973 43.2003 98.3982 44.7758 105.199C46.3514 112 47.9868 118.781 49.682 125.542C53.0924 139.064 56.802 152.526 60.8506 165.868C62.9048 172.53 65.0189 179.171 67.2725 185.772C69.5461 192.354 71.9394 198.915 74.4723 205.397C77.0451 211.879 79.7973 218.281 82.8088 224.543C85.8403 230.806 90.8861 236.25 94.7153 242.034C94.9148 242.353 93.0799 243.47 92.7608 243.689C92.4417 243.889 92.0229 243.809 91.8235 243.51C87.9544 237.646 84.6836 231.424 81.672 225.122C78.6605 218.799 75.9481 212.358 73.3953 205.856C70.8624 199.334 68.5091 192.753 66.2753 186.151C64.0616 179.53 61.9475 172.869 59.9332 166.187C55.9444 152.805 52.2947 139.323 48.9441 125.761C47.2688 118.98 45.6534 112.199 44.1177 105.379C42.582 98.5777 41.1061 91.7568 39.75 84.8962C39.7101 84.7366 39.8297 84.597 39.9693 84.5571C40.109 84.4973 40.2685 84.597 40.3084 84.7565Z" fill="white"/>
</g>
<path d="M14.0619 119.06C13.9622 117.684 15.458 117.066 16.0762 118.222C22.0594 129.491 38.533 158.429 55.6648 170.675C83.5863 190.599 108.875 230.407 101.416 258.627C101.416 258.647 24.692 269.417 14.0619 119.06Z" fill="#5E8A00"/>
<path opacity="0.43" d="M20.9626 135.753C21.0624 136.032 21.2219 136.371 21.3615 136.71L21.7803 137.688L22.6579 139.642L24.4329 143.531C25.6295 146.104 26.8461 148.657 28.0826 151.21C30.5556 156.295 33.1085 161.341 35.7211 166.327C41.0063 176.259 46.4908 186.052 52.3942 195.445C55.3659 200.132 58.3574 204.799 61.4886 209.306C64.6398 213.813 67.8707 218.241 71.2412 222.509C77.9423 231.065 85.2019 239.023 93.1196 245.923C93.2194 246.023 93.2593 246.202 93.1795 246.322C93.0997 246.442 92.9601 246.482 92.8604 246.402C88.7519 243.151 84.8429 239.541 81.0735 235.732C77.3241 231.883 73.7741 227.794 70.3038 223.586C63.4631 215.07 57.1209 205.976 51.2175 196.502C48.2658 191.775 45.4338 186.929 42.6815 182.023C39.9093 177.137 37.2369 172.151 34.684 167.105C32.1312 162.059 29.6183 156.953 27.245 151.768C26.0683 149.175 24.8916 146.563 23.7548 143.95C23.1964 142.634 22.618 141.317 22.0795 140.001L21.2618 138.007L20.8629 137.01C20.7433 136.67 20.6036 136.351 20.484 135.953C20.4441 135.813 20.5039 135.633 20.6236 135.574C20.7433 135.514 20.8629 135.594 20.9227 135.713L20.9626 135.753Z" fill="white"/>
</g>
<path d="M307.836 225.241L308.474 224.782C308.674 224.643 308.714 224.364 308.574 224.164C308.435 223.965 308.155 223.905 307.956 224.064L307.338 224.523C307.138 224.663 307.098 224.942 307.238 225.141C307.378 225.341 307.657 225.381 307.836 225.241Z" fill="white"/>
<path d="M309.95 223.666L310.549 223.167C310.748 223.008 310.768 222.728 310.608 222.529C310.449 222.33 310.17 222.31 309.99 222.469L309.392 222.968C309.192 223.127 309.172 223.407 309.332 223.606C309.472 223.785 309.751 223.825 309.95 223.666Z" fill="white"/>
<path d="M311.925 221.951L312.503 221.412C312.682 221.233 312.702 220.953 312.523 220.754C312.343 220.574 312.064 220.554 311.885 220.734L311.326 221.272C311.147 221.452 311.147 221.731 311.306 221.911C311.466 222.11 311.745 222.13 311.925 221.951Z" fill="white"/>
<path d="M313.779 220.096L314.318 219.518C314.497 219.338 314.477 219.039 314.298 218.859C314.118 218.68 313.819 218.7 313.64 218.879L313.121 219.458C312.942 219.637 312.962 219.936 313.141 220.116C313.321 220.295 313.62 220.275 313.779 220.096Z" fill="white"/>
<path d="M315.515 218.102L316.013 217.483C316.173 217.284 316.153 216.985 315.954 216.825C315.754 216.666 315.455 216.686 315.295 216.885L314.817 217.483C314.657 217.683 314.697 217.982 314.896 218.141C315.076 218.341 315.355 218.321 315.515 218.102Z" fill="white"/>
<path d="M317.11 216.007L317.569 215.349C317.709 215.13 317.669 214.83 317.449 214.691C317.23 214.551 316.951 214.591 316.791 214.81L316.352 215.449C316.213 215.668 316.253 215.967 316.472 216.107C316.672 216.286 316.971 216.226 317.11 216.007Z" fill="white"/>
<path d="M318.546 213.813L318.945 213.135C319.084 212.896 319.005 212.617 318.785 212.477C318.566 212.338 318.267 212.417 318.127 212.637L317.728 213.295C317.589 213.534 317.668 213.813 317.888 213.953C318.127 214.113 318.426 214.033 318.546 213.813Z" fill="white"/>
<path d="M319.842 211.5L320.201 210.782C320.321 210.543 320.221 210.244 319.982 210.124C319.743 210.004 319.443 210.104 319.324 210.343L318.985 211.041C318.865 211.281 318.965 211.58 319.204 211.7C319.424 211.839 319.723 211.739 319.842 211.5Z" fill="white"/>
<path d="M320.959 209.106L321.258 208.368C321.358 208.109 321.238 207.83 320.999 207.71C320.74 207.611 320.461 207.73 320.361 207.99V208.009L320.082 208.727V208.747C319.982 209.007 320.102 209.286 320.341 209.386C320.58 209.465 320.859 209.346 320.959 209.106Z" fill="white"/>
<path d="M321.897 206.614L322.136 205.856C322.216 205.597 322.076 205.297 321.817 205.218C321.558 205.138 321.279 205.278 321.199 205.537V205.557L320.959 206.295V206.315C320.88 206.574 321.019 206.853 321.279 206.953C321.538 207.033 321.817 206.893 321.897 206.614Z" fill="white"/>
<path d="M322.634 204.081L322.814 203.303C322.874 203.024 322.714 202.745 322.435 202.685C322.156 202.625 321.896 202.785 321.837 203.064V203.084L321.657 203.842V203.862C321.597 204.141 321.757 204.4 322.036 204.48C322.295 204.52 322.574 204.34 322.634 204.081Z" fill="white"/>
<path d="M323.173 201.468L323.293 200.69C323.333 200.411 323.153 200.152 322.874 200.092C322.595 200.052 322.335 200.232 322.296 200.531V200.551L322.176 201.309V201.328C322.136 201.608 322.316 201.867 322.595 201.907C322.874 201.947 323.133 201.747 323.173 201.468Z" fill="white"/>
<path d="M323.512 198.835L323.572 198.038C323.592 197.759 323.372 197.499 323.093 197.479C322.814 197.459 322.555 197.679 322.535 197.958V197.978L322.495 198.756V198.776C322.475 199.055 322.694 199.314 322.974 199.334C323.233 199.334 323.492 199.115 323.512 198.835Z" fill="white"/>
<path d="M323.612 196.183L323.592 195.385C323.592 195.086 323.352 194.867 323.053 194.867C322.774 194.867 322.535 195.106 322.535 195.405V195.425L322.555 196.203V196.223C322.555 196.522 322.794 196.741 323.093 196.741C323.392 196.702 323.612 196.462 323.612 196.183Z" fill="white"/>
<path d="M323.472 193.511L323.392 192.713C323.352 192.414 323.093 192.214 322.814 192.234C322.515 192.274 322.315 192.533 322.355 192.833V192.853L322.435 193.61V193.63C322.475 193.93 322.734 194.129 323.013 194.109C323.293 194.069 323.492 193.81 323.472 193.511Z" fill="white"/>
<path d="M323.113 190.878L322.954 190.1C322.894 189.801 322.615 189.622 322.316 189.681C322.016 189.741 321.837 190.02 321.897 190.32V190.34L322.056 191.097V191.117C322.116 191.417 322.395 191.596 322.694 191.536C322.974 191.456 323.153 191.177 323.113 190.878Z" fill="white"/>
<path d="M322.515 188.285L322.295 187.527C322.216 187.228 321.916 187.069 321.617 187.148C321.338 187.228 321.158 187.547 321.238 187.826V187.846L321.458 188.584V188.604C321.537 188.903 321.837 189.063 322.136 188.983C322.435 188.883 322.594 188.564 322.515 188.285Z" fill="white"/>
<path d="M321.717 185.753L321.438 185.015C321.338 184.735 321.019 184.576 320.72 184.695C320.441 184.815 320.301 185.134 320.401 185.413V185.433L320.68 186.151V186.171C320.78 186.451 321.099 186.59 321.378 186.49C321.677 186.351 321.817 186.032 321.717 185.753Z" fill="white"/>
<path d="M320.7 183.279L320.361 182.561C320.221 182.282 319.902 182.163 319.623 182.302C319.344 182.442 319.224 182.781 319.364 183.06V183.08L319.703 183.778V183.798C319.842 184.077 320.161 184.197 320.441 184.057C320.72 183.898 320.84 183.559 320.7 183.279Z" fill="white"/>
<path d="M319.483 180.926L319.084 180.248C318.925 179.968 318.586 179.889 318.307 180.048C318.047 180.208 317.948 180.567 318.107 180.826V180.846L318.506 181.504V181.524C318.666 181.783 319.005 181.883 319.284 181.723C319.563 181.544 319.643 181.185 319.483 180.926Z" fill="white"/>
<path d="M318.068 178.672L317.609 178.014C317.429 177.755 317.07 177.695 316.811 177.895C316.552 178.074 316.492 178.433 316.691 178.692V178.712L317.13 179.331V179.351C317.31 179.61 317.669 179.67 317.928 179.47C318.207 179.291 318.267 178.932 318.068 178.672Z" fill="white"/>
<path d="M316.472 176.558L315.953 175.96C315.754 175.721 315.375 175.701 315.136 175.9C314.896 176.12 314.876 176.479 315.076 176.718L315.096 176.738L315.594 177.316L315.614 177.336C315.814 177.575 316.193 177.595 316.432 177.396C316.651 177.177 316.671 176.798 316.472 176.558Z" fill="white"/>
<path d="M314.677 174.624L314.099 174.065C313.859 173.846 313.5 173.846 313.281 174.085C313.062 174.325 313.081 174.704 313.301 174.923L313.321 174.943L313.879 175.462L313.899 175.481C314.138 175.701 314.497 175.681 314.717 175.462C314.916 175.202 314.896 174.843 314.677 174.624Z" fill="white"/>
<path d="M312.683 172.848L312.064 172.35C311.805 172.15 311.446 172.19 311.247 172.449C311.047 172.709 311.087 173.088 311.346 173.287L311.366 173.307L311.965 173.766L311.985 173.786C312.244 173.985 312.603 173.925 312.802 173.666C313.002 173.427 312.942 173.048 312.683 172.848Z" fill="white"/>
<path d="M310.548 171.293L309.87 170.874C309.591 170.695 309.232 170.795 309.053 171.074C308.873 171.353 308.973 171.732 309.252 171.911H309.272L309.91 172.31H309.93C310.209 172.49 310.568 172.39 310.748 172.111C310.907 171.832 310.828 171.473 310.548 171.293Z" fill="white"/>
<path d="M308.255 169.977L307.537 169.618C307.238 169.478 306.879 169.598 306.739 169.897C306.6 170.196 306.719 170.555 307.018 170.715H307.038L307.716 171.054H307.736C308.036 171.193 308.395 171.074 308.534 170.774C308.674 170.475 308.554 170.116 308.255 169.977Z" fill="white"/>
<path d="M305.842 168.88L305.104 168.601C304.785 168.481 304.446 168.641 304.326 168.96C304.206 169.279 304.366 169.638 304.685 169.758H304.705L305.423 170.017H305.443C305.762 170.136 306.101 169.977 306.221 169.658C306.32 169.359 306.161 169 305.842 168.88Z" fill="white"/>
<path d="M303.349 168.022L302.591 167.803C302.272 167.703 301.933 167.902 301.833 168.241C301.733 168.58 301.933 168.919 302.252 168.999H302.272L303.01 169.199H303.03C303.349 169.278 303.688 169.099 303.787 168.76C303.867 168.461 303.688 168.122 303.349 168.022Z" fill="white"/>
<path d="M300.796 167.404L300.018 167.264C299.679 167.204 299.36 167.424 299.3 167.763C299.241 168.102 299.46 168.421 299.799 168.501H299.819L300.557 168.64H300.577C300.916 168.7 301.235 168.481 301.295 168.142C301.355 167.783 301.135 167.464 300.796 167.404Z" fill="white"/>
<path d="M298.203 166.985L297.426 166.905C297.087 166.866 296.787 167.125 296.748 167.464C296.708 167.803 296.947 168.122 297.286 168.162H297.306L298.064 168.242H298.084C298.423 168.282 298.722 168.022 298.762 167.683C298.802 167.324 298.542 167.025 298.203 166.985Z" fill="white"/>
<path d="M295.59 166.766L294.813 166.726C294.473 166.706 294.174 166.985 294.174 167.324C294.154 167.663 294.434 167.962 294.773 167.982H294.793L295.55 168.002H295.57C295.909 168.022 296.209 167.743 296.209 167.404C296.209 167.065 295.949 166.766 295.59 166.766Z" fill="white"/>
<path d="M292.978 166.726L292.2 166.746C291.861 166.746 291.582 167.045 291.602 167.404C291.602 167.763 291.901 168.022 292.24 168.022H292.26L293.018 168.002H293.038C293.377 167.982 293.656 167.703 293.636 167.344C293.616 166.985 293.317 166.706 292.978 166.726Z" fill="white"/>
<path d="M290.365 166.845L289.587 166.925C289.248 166.965 288.989 167.264 289.009 167.623C289.049 167.982 289.348 168.241 289.687 168.202H289.707L290.465 168.122H290.485C290.824 168.082 291.083 167.783 291.043 167.424C291.023 167.085 290.704 166.825 290.365 166.845Z" fill="white"/>
<path d="M287.773 167.145L286.995 167.265C286.656 167.324 286.417 167.643 286.456 168.002C286.516 168.361 286.835 168.601 287.174 168.541H287.194L287.952 168.421H287.972C288.311 168.361 288.551 168.042 288.491 167.683C288.431 167.344 288.112 167.085 287.773 167.145Z" fill="white"/>
<path d="M285.2 167.584L284.442 167.743C284.103 167.823 283.884 168.162 283.943 168.501C284.023 168.84 284.342 169.079 284.701 169L285.459 168.84C285.798 168.76 286.018 168.421 285.958 168.082C285.878 167.743 285.539 167.524 285.2 167.584Z" fill="white"/>
<path d="M282.647 168.162L281.889 168.361C281.55 168.441 281.331 168.8 281.43 169.139C281.51 169.478 281.869 169.697 282.208 169.618L282.946 169.418C283.285 169.338 283.485 168.979 283.405 168.64C283.345 168.281 282.986 168.062 282.647 168.162Z" fill="white"/>
<path d="M280.134 168.84L279.376 169.059C279.037 169.159 278.838 169.518 278.937 169.877C279.037 170.216 279.396 170.415 279.735 170.316L280.473 170.096C280.812 169.996 281.012 169.637 280.912 169.278C280.832 168.939 280.473 168.74 280.134 168.84Z" fill="white"/>
<path d="M277.661 169.618L276.923 169.877C276.584 169.997 276.405 170.356 276.524 170.715C276.644 171.054 277.003 171.233 277.342 171.133L278.06 170.894C278.399 170.774 278.579 170.415 278.459 170.056C278.359 169.697 277.98 169.518 277.661 169.618Z" fill="white"/>
<path d="M275.208 170.495L274.47 170.774C274.131 170.894 273.972 171.273 274.091 171.612C274.211 171.951 274.59 172.131 274.929 172.011L275.647 171.732C275.986 171.612 276.145 171.233 276.026 170.894C275.906 170.555 275.527 170.356 275.208 170.495Z" fill="white"/>
<path d="M272.775 171.413L272.057 171.712C271.718 171.851 271.558 172.23 271.698 172.569C271.838 172.908 272.216 173.068 272.536 172.948L273.254 172.649C273.593 172.509 273.752 172.131 273.613 171.791C273.493 171.452 273.114 171.293 272.775 171.413Z" fill="white"/>
<path d="M270.381 172.41L269.663 172.709C269.324 172.849 269.165 173.248 269.304 173.587C269.444 173.926 269.823 174.085 270.162 173.946L270.88 173.646C271.219 173.507 271.359 173.108 271.219 172.769C271.079 172.43 270.7 172.27 270.381 172.41Z" fill="white"/>
<path d="M267.988 173.447L267.27 173.766C266.931 173.906 266.792 174.305 266.931 174.644C267.071 174.983 267.47 175.142 267.789 174.983L268.487 174.664C268.826 174.524 268.965 174.125 268.826 173.786C268.706 173.447 268.327 173.287 267.988 173.447Z" fill="white"/>
<path d="M265.635 174.504L264.937 174.823C264.598 174.983 264.458 175.382 264.598 175.701C264.737 176.02 265.136 176.179 265.475 176.04L266.173 175.721C266.512 175.561 266.652 175.162 266.492 174.843C266.353 174.504 265.954 174.345 265.635 174.504Z" fill="white"/>
<path d="M263.281 175.581L262.583 175.92C262.244 176.08 262.105 176.478 262.264 176.818C262.424 177.157 262.803 177.296 263.142 177.157L263.84 176.818C264.179 176.658 264.318 176.259 264.159 175.92C263.999 175.581 263.62 175.441 263.281 175.581Z" fill="white"/>
<path d="M260.948 176.698L260.25 177.037C259.911 177.196 259.772 177.595 259.931 177.934C260.091 178.273 260.489 178.413 260.809 178.253L261.507 177.914C261.846 177.755 261.985 177.356 261.826 177.017C261.666 176.678 261.267 176.538 260.948 176.698Z" fill="white"/>
<path d="M258.615 177.814L257.917 178.153C257.578 178.313 257.438 178.732 257.598 179.051C257.757 179.39 258.156 179.53 258.495 179.37L259.193 179.031C259.532 178.871 259.672 178.453 259.512 178.133C259.333 177.794 258.934 177.655 258.615 177.814Z" fill="white"/>
<path d="M256.281 178.952L255.583 179.291C255.244 179.45 255.105 179.869 255.264 180.208C255.424 180.547 255.823 180.687 256.162 180.527L256.86 180.188C257.199 180.029 257.338 179.61 257.159 179.271C257.019 178.932 256.62 178.792 256.281 178.952Z" fill="white"/>
<path d="M253.968 180.108L253.27 180.447C252.931 180.607 252.791 181.026 252.971 181.365C253.13 181.704 253.549 181.843 253.868 181.684L254.566 181.325C254.905 181.165 255.045 180.746 254.865 180.407C254.706 180.088 254.307 179.949 253.968 180.108Z" fill="white"/>
<path d="M251.654 181.285L250.956 181.644C250.617 181.823 250.478 182.222 250.657 182.561C250.817 182.9 251.236 183.04 251.575 182.86L252.273 182.501C252.612 182.322 252.751 181.923 252.572 181.584C252.392 181.245 251.993 181.105 251.654 181.285Z" fill="white"/>
<path d="M249.36 182.461L248.662 182.82C248.323 183 248.184 183.419 248.363 183.758C248.543 184.097 248.942 184.236 249.281 184.057L249.979 183.698C250.318 183.518 250.457 183.1 250.278 182.761C250.098 182.422 249.68 182.282 249.36 182.461Z" fill="white"/>
<path d="M247.047 183.638L246.349 183.997C246.01 184.177 245.87 184.595 246.05 184.935C246.229 185.274 246.628 185.413 246.967 185.234L247.645 184.875C247.984 184.695 248.124 184.276 247.944 183.937C247.805 183.598 247.386 183.459 247.047 183.638Z" fill="white"/>
<path d="M244.754 184.835L244.056 185.194C243.716 185.373 243.577 185.792 243.756 186.131C243.936 186.47 244.335 186.61 244.674 186.43L245.352 186.071C245.691 185.892 245.831 185.473 245.651 185.134C245.511 184.795 245.093 184.655 244.754 184.835Z" fill="white"/>
<path d="M242.46 186.012L241.762 186.371C241.423 186.55 241.283 186.969 241.463 187.308C241.642 187.647 242.061 187.787 242.4 187.607L243.078 187.248C243.417 187.069 243.557 186.65 243.378 186.311C243.218 185.972 242.799 185.852 242.46 186.012Z" fill="white"/>
<path d="M240.167 187.208L239.469 187.567C239.13 187.747 238.99 188.165 239.169 188.524C239.349 188.863 239.768 189.003 240.107 188.823L240.785 188.464C241.124 188.285 241.264 187.866 241.084 187.507C240.925 187.168 240.506 187.029 240.167 187.208Z" fill="white"/>
<path d="M237.873 188.405L237.175 188.764C236.836 188.943 236.696 189.362 236.876 189.721C237.055 190.06 237.474 190.2 237.813 190.04L238.511 189.681C238.85 189.502 238.99 189.083 238.811 188.724C238.631 188.365 238.212 188.225 237.873 188.405Z" fill="white"/>
<path d="M235.579 189.602L234.881 189.961C234.542 190.14 234.403 190.559 234.582 190.918C234.762 191.277 235.18 191.416 235.519 191.237L236.217 190.878C236.557 190.698 236.696 190.28 236.517 189.921C236.337 189.562 235.918 189.422 235.579 189.602Z" fill="white"/>
<path d="M233.286 190.778L232.588 191.137C232.249 191.317 232.109 191.736 232.269 192.095C232.448 192.454 232.867 192.593 233.206 192.414L233.904 192.055C234.243 191.875 234.383 191.456 234.204 191.097C234.044 190.738 233.625 190.599 233.286 190.778Z" fill="white"/>
<path d="M230.972 191.955L230.274 192.314C229.915 192.493 229.775 192.912 229.955 193.271C230.134 193.63 230.553 193.77 230.912 193.59L231.61 193.231C231.949 193.052 232.109 192.613 231.929 192.274C231.75 191.935 231.331 191.775 230.972 191.955Z" fill="white"/>
<path d="M228.678 193.111L227.98 193.45C227.621 193.63 227.482 194.049 227.661 194.408C227.841 194.767 228.259 194.906 228.618 194.747L229.316 194.388C229.675 194.208 229.815 193.769 229.636 193.43C229.456 193.071 229.017 192.932 228.678 193.111Z" fill="white"/>
<path d="M226.365 194.269L225.667 194.608C225.308 194.787 225.168 195.226 225.328 195.585C225.507 195.944 225.926 196.103 226.285 195.924L226.983 195.585C227.342 195.405 227.482 194.967 227.302 194.608C227.143 194.229 226.724 194.089 226.365 194.269Z" fill="white"/>
<path d="M224.051 195.405L223.353 195.744C222.994 195.924 222.855 196.343 223.014 196.721C223.194 197.08 223.612 197.24 223.971 197.06L224.67 196.721C225.028 196.542 225.168 196.123 225.009 195.744C224.829 195.385 224.41 195.226 224.051 195.405Z" fill="white"/>
<path d="M221.718 196.522L221.02 196.861C220.661 197.04 220.502 197.459 220.681 197.838C220.861 198.217 221.279 198.357 221.638 198.197L222.336 197.858C222.695 197.679 222.855 197.26 222.675 196.881C222.516 196.502 222.077 196.342 221.718 196.522Z" fill="white"/>
<path d="M219.385 197.619L218.686 197.938C218.327 198.098 218.168 198.536 218.327 198.915C218.487 199.274 218.926 199.434 219.285 199.274L219.983 198.955C220.342 198.796 220.501 198.357 220.342 197.978C220.182 197.619 219.763 197.459 219.385 197.619Z" fill="white"/>
<path d="M217.051 198.716L216.353 199.035C215.994 199.195 215.834 199.633 215.994 199.992C216.154 200.351 216.572 200.531 216.951 200.351L217.649 200.032C218.008 199.873 218.168 199.434 218.008 199.075C217.849 198.716 217.41 198.536 217.051 198.716Z" fill="white"/>
<path d="M214.698 199.773L214 200.092C213.641 200.252 213.461 200.69 213.621 201.049C213.78 201.428 214.199 201.588 214.558 201.428L215.276 201.109C215.635 200.95 215.814 200.511 215.655 200.152C215.495 199.773 215.077 199.613 214.698 199.773Z" fill="white"/>
<path d="M212.344 200.79L211.626 201.089C211.267 201.249 211.088 201.668 211.248 202.047C211.407 202.426 211.826 202.585 212.185 202.445L212.903 202.146C213.262 201.987 213.441 201.568 213.282 201.189C213.142 200.81 212.723 200.651 212.344 200.79Z" fill="white"/>
<path d="M209.971 201.807L209.253 202.106C208.894 202.266 208.714 202.684 208.854 203.063C209.014 203.442 209.432 203.622 209.791 203.462L210.509 203.163C210.868 203.003 211.048 202.585 210.908 202.206C210.769 201.827 210.35 201.647 209.971 201.807Z" fill="white"/>
<path d="M207.597 202.764L206.88 203.044C206.501 203.183 206.321 203.622 206.481 204.001C206.62 204.38 207.039 204.559 207.418 204.42L208.136 204.141C208.515 204.001 208.694 203.562 208.535 203.183C208.375 202.804 207.976 202.625 207.597 202.764Z" fill="white"/>
<path d="M205.204 203.722L204.486 204.001C204.108 204.141 203.928 204.559 204.068 204.938C204.207 205.317 204.626 205.517 205.005 205.357L205.723 205.078C206.102 204.938 206.281 204.52 206.142 204.141C206.002 203.762 205.583 203.562 205.204 203.722Z" fill="white"/>
<path d="M202.791 204.619L202.073 204.879C201.694 205.018 201.495 205.437 201.634 205.816C201.774 206.195 202.173 206.394 202.552 206.255L203.29 205.995C203.669 205.856 203.868 205.437 203.729 205.058C203.589 204.679 203.17 204.48 202.791 204.619Z" fill="white"/>
<path d="M200.378 205.477L199.64 205.736C199.261 205.875 199.061 206.274 199.181 206.673C199.301 207.052 199.72 207.252 200.099 207.132L200.836 206.873C201.215 206.733 201.415 206.334 201.295 205.935C201.156 205.556 200.757 205.357 200.378 205.477Z" fill="white"/>
<path d="M197.945 206.314L197.207 206.554C196.828 206.673 196.628 207.092 196.748 207.471C196.868 207.85 197.286 208.069 197.665 207.95L198.403 207.71C198.782 207.591 198.982 207.172 198.862 206.793C198.722 206.394 198.324 206.195 197.945 206.314Z" fill="white"/>
<path d="M195.491 207.092L194.754 207.312C194.375 207.431 194.155 207.83 194.275 208.229C194.395 208.608 194.793 208.827 195.172 208.728L195.91 208.508C196.289 208.389 196.509 207.99 196.389 207.591C196.289 207.192 195.89 206.973 195.491 207.092Z" fill="white"/>
<path d="M193.038 207.83L192.3 208.05C191.922 208.169 191.702 208.568 191.802 208.947C191.902 209.346 192.3 209.565 192.699 209.446L193.437 209.226C193.816 209.107 194.036 208.708 193.936 208.329C193.816 207.95 193.417 207.73 193.038 207.83Z" fill="white"/>
<path d="M190.566 208.528L189.828 208.728C189.449 208.827 189.21 209.226 189.309 209.625C189.409 210.024 189.808 210.243 190.187 210.144L190.945 209.944C191.324 209.845 191.563 209.446 191.463 209.047C191.364 208.648 190.965 208.429 190.566 208.528Z" fill="white"/>
<path d="M188.093 209.166L187.355 209.346C186.976 209.446 186.736 209.845 186.816 210.223C186.916 210.622 187.295 210.862 187.694 210.762L188.452 210.582C188.83 210.483 189.07 210.084 188.99 209.705C188.87 209.326 188.471 209.067 188.093 209.166Z" fill="white"/>
<path d="M185.6 209.765L184.842 209.924C184.443 210.004 184.204 210.403 184.283 210.802C184.363 211.201 184.762 211.44 185.141 211.36L185.899 211.201C186.298 211.121 186.537 210.722 186.457 210.323C186.377 209.924 185.979 209.665 185.6 209.765Z" fill="white"/>
<path d="M183.086 210.303L182.329 210.443C181.93 210.522 181.67 210.901 181.75 211.3C181.83 211.699 182.209 211.958 182.608 211.879L183.366 211.719C183.765 211.639 184.024 211.26 183.944 210.861C183.864 210.483 183.485 210.223 183.086 210.303Z" fill="white"/>
<path d="M180.574 210.762L179.816 210.902C179.417 210.961 179.158 211.34 179.218 211.759C179.277 212.158 179.656 212.437 180.055 212.358L180.813 212.218C181.212 212.158 181.471 211.779 181.411 211.36C181.332 210.981 180.973 210.702 180.574 210.762Z" fill="white"/>
<path d="M178.041 211.181L177.283 211.301C176.884 211.36 176.605 211.739 176.665 212.138C176.725 212.537 177.084 212.816 177.483 212.757L178.26 212.637C178.659 212.577 178.938 212.198 178.879 211.799C178.819 211.4 178.44 211.121 178.041 211.181Z" fill="white"/>
<path d="M175.508 211.539L174.75 211.639C174.351 211.679 174.072 212.058 174.112 212.457C174.152 212.856 174.511 213.155 174.909 213.095L175.687 212.995C176.086 212.955 176.365 212.577 176.325 212.178C176.266 211.779 175.907 211.5 175.508 211.539Z" fill="white"/>
<path d="M172.975 211.819L172.217 211.899C171.819 211.939 171.519 212.298 171.559 212.697C171.599 213.095 171.958 213.395 172.357 213.355L173.135 213.275C173.534 213.235 173.833 212.876 173.793 212.477C173.733 212.078 173.374 211.779 172.975 211.819Z" fill="white"/>
<path d="M170.422 212.039L169.664 212.098C169.265 212.118 168.966 212.477 168.986 212.876C169.006 213.275 169.365 213.594 169.764 213.554L170.542 213.494C170.941 213.475 171.24 213.116 171.22 212.717C171.16 212.318 170.821 212.019 170.422 212.039Z" fill="white"/>
<path d="M167.869 212.178L167.112 212.198C166.713 212.218 166.394 212.557 166.413 212.956C166.433 213.354 166.772 213.674 167.171 213.674L167.949 213.654C168.348 213.634 168.667 213.295 168.647 212.896C168.607 212.497 168.268 212.178 167.869 212.178Z" fill="white"/>
<path d="M165.317 212.258H164.559C164.16 212.258 163.841 212.597 163.841 212.996C163.841 213.395 164.18 213.734 164.579 213.734H165.357C165.755 213.734 166.075 213.395 166.075 212.996C166.055 212.577 165.716 212.258 165.317 212.258Z" fill="white"/>
<path d="M162.764 212.258L162.006 212.238C161.607 212.238 161.268 212.557 161.268 212.956C161.268 213.355 161.587 213.694 161.986 213.714L162.764 213.734C163.163 213.734 163.502 213.414 163.502 213.016C163.482 212.597 163.163 212.258 162.764 212.258Z" fill="white"/>
<path d="M160.211 212.158L159.453 212.118C159.054 212.098 158.715 212.397 158.695 212.816C158.675 213.215 158.974 213.574 159.373 213.594L160.151 213.634C160.55 213.654 160.889 213.355 160.909 212.936C160.929 212.537 160.61 212.178 160.211 212.158Z" fill="white"/>
<path d="M157.658 211.998L156.9 211.939C156.502 211.899 156.143 212.198 156.103 212.617C156.063 213.016 156.362 213.375 156.761 213.414L157.539 213.494C157.938 213.534 158.297 213.235 158.336 212.816C158.356 212.377 158.077 212.018 157.658 211.998Z" fill="white"/>
<path d="M155.125 211.719L154.367 211.619C153.969 211.56 153.61 211.859 153.55 212.258C153.51 212.657 153.789 213.035 154.188 213.075L154.966 213.175C155.365 213.235 155.724 212.936 155.783 212.537C155.803 212.158 155.524 211.779 155.125 211.719Z" fill="white"/>
<path d="M152.592 211.38L151.834 211.261C151.436 211.201 151.057 211.48 150.997 211.879C150.937 212.278 151.196 212.657 151.595 212.716L152.373 212.836C152.772 212.896 153.151 212.617 153.211 212.218C153.27 211.819 152.991 211.44 152.592 211.38Z" fill="white"/>
<path d="M150.08 210.942L149.322 210.802C148.923 210.722 148.544 210.982 148.464 211.38C148.384 211.779 148.644 212.178 149.042 212.238L149.8 212.398C150.199 212.477 150.578 212.218 150.658 211.819C150.738 211.42 150.478 211.021 150.08 210.942Z" fill="white"/>
<path d="M147.587 210.423L146.849 210.244C146.45 210.144 146.071 210.403 145.971 210.802C145.871 211.201 146.131 211.6 146.51 211.68L147.268 211.859C147.666 211.959 148.045 211.699 148.145 211.301C148.225 210.902 147.986 210.503 147.587 210.423Z" fill="white"/>
<path d="M145.093 209.804L144.355 209.605C143.977 209.505 143.558 209.725 143.458 210.124C143.358 210.522 143.578 210.921 143.977 211.021L144.734 211.22C145.113 211.32 145.532 211.101 145.632 210.702C145.732 210.323 145.492 209.924 145.093 209.804Z" fill="white"/>
<path d="M142.64 209.106L141.902 208.887C141.523 208.767 141.105 208.987 140.985 209.386C140.865 209.785 141.085 210.183 141.464 210.303L142.201 210.542C142.58 210.662 142.999 210.443 143.119 210.044C143.258 209.645 143.039 209.226 142.64 209.106Z" fill="white"/>
<path d="M140.227 208.309L139.509 208.05C139.13 207.91 138.711 208.129 138.572 208.508C138.432 208.887 138.632 209.326 139.03 209.446L139.768 209.705C140.147 209.845 140.566 209.625 140.706 209.246C140.805 208.867 140.606 208.449 140.227 208.309Z" fill="white"/>
<path d="M137.814 207.431L137.096 207.152C136.717 207.013 136.298 207.192 136.158 207.571C136.019 207.95 136.198 208.389 136.577 208.528L137.295 208.807C137.674 208.947 138.093 208.768 138.233 208.389C138.392 208.01 138.213 207.591 137.814 207.431Z" fill="white"/>
<path d="M135.46 206.454L134.762 206.135C134.384 205.975 133.965 206.135 133.805 206.514C133.646 206.893 133.805 207.331 134.184 207.491L134.902 207.81C135.281 207.97 135.7 207.81 135.859 207.431C135.999 207.052 135.839 206.633 135.46 206.454Z" fill="white"/>
<path d="M133.147 205.397L132.469 205.058C132.11 204.878 131.671 205.038 131.492 205.397C131.312 205.756 131.472 206.215 131.831 206.394L132.529 206.733C132.888 206.913 133.326 206.753 133.506 206.394C133.665 206.015 133.506 205.577 133.147 205.397Z" fill="white"/>
<path d="M130.853 204.24L130.175 203.881C129.816 203.682 129.378 203.822 129.178 204.18C128.979 204.539 129.118 204.998 129.477 205.178L130.175 205.557C130.534 205.756 130.973 205.616 131.173 205.257C131.352 204.879 131.232 204.42 130.853 204.24Z" fill="white"/>
<path d="M128.64 202.984L127.982 202.585C127.643 202.385 127.184 202.485 126.985 202.844C126.785 203.203 126.885 203.662 127.244 203.861L127.922 204.26C128.261 204.459 128.72 204.36 128.919 204.001C129.099 203.642 128.999 203.183 128.64 202.984Z" fill="white"/>
<path d="M126.466 201.628L125.828 201.209C125.489 200.989 125.03 201.089 124.81 201.428C124.591 201.767 124.691 202.226 125.03 202.465L125.688 202.904C126.027 203.123 126.486 203.024 126.705 202.685C126.905 202.326 126.805 201.847 126.466 201.628Z" fill="white"/>
<path d="M124.352 200.191L123.733 199.733C123.414 199.493 122.956 199.573 122.716 199.912C122.477 200.251 122.557 200.71 122.876 200.949L123.514 201.408C123.833 201.647 124.292 201.568 124.531 201.228C124.771 200.889 124.691 200.431 124.352 200.191Z" fill="white"/>
<path d="M122.318 198.636L121.719 198.157C121.4 197.898 120.942 197.958 120.682 198.277C120.423 198.596 120.483 199.075 120.802 199.314L121.42 199.813C121.739 200.072 122.198 200.012 122.457 199.693C122.697 199.374 122.637 198.915 122.318 198.636Z" fill="white"/>
<path d="M120.343 197.021L119.765 196.522C119.466 196.243 119.007 196.283 118.728 196.602C118.469 196.921 118.489 197.38 118.808 197.659L119.406 198.177C119.705 198.457 120.164 198.417 120.443 198.098C120.682 197.759 120.662 197.28 120.343 197.021Z" fill="white"/>
<path d="M118.448 195.285L117.89 194.747C117.591 194.468 117.132 194.468 116.853 194.767C116.574 195.066 116.574 195.525 116.873 195.824L117.431 196.382C117.731 196.662 118.189 196.662 118.468 196.362C118.768 196.043 118.748 195.585 118.448 195.285Z" fill="white"/>
<path d="M116.654 193.471L116.135 192.912C115.856 192.613 115.397 192.593 115.098 192.872C114.799 193.152 114.799 193.63 115.078 193.929L115.617 194.508C115.896 194.807 116.354 194.827 116.654 194.548C116.933 194.248 116.933 193.77 116.654 193.471Z" fill="white"/>
<path d="M114.938 191.556L114.44 190.977C114.18 190.658 113.722 190.618 113.403 190.898C113.103 191.157 113.064 191.636 113.323 191.955L113.821 192.553C114.081 192.872 114.539 192.912 114.858 192.633C115.178 192.354 115.217 191.875 114.938 191.556Z" fill="white"/>
<path d="M113.323 189.582L112.864 188.963V188.943C112.625 188.624 112.166 188.544 111.847 188.804C111.528 189.043 111.468 189.522 111.707 189.841L112.186 190.479C112.425 190.798 112.884 190.878 113.203 190.619C113.522 190.379 113.582 189.921 113.323 189.582Z" fill="white"/>
<path d="M111.847 187.487L111.428 186.849C111.209 186.51 110.75 186.43 110.431 186.65C110.092 186.869 110.012 187.328 110.232 187.667L110.67 188.325C110.89 188.664 111.348 188.764 111.687 188.524C111.987 188.305 112.066 187.846 111.847 187.487Z" fill="white"/>
<path d="M110.471 185.334L110.072 184.675C109.873 184.336 109.434 184.217 109.095 184.436C108.756 184.655 108.656 185.094 108.855 185.433L109.254 186.111C109.454 186.45 109.893 186.57 110.252 186.371C110.571 186.131 110.67 185.693 110.471 185.334Z" fill="white"/>
<path d="M109.175 183.1L108.816 182.422C108.636 182.063 108.197 181.943 107.858 182.142C107.519 182.342 107.38 182.781 107.579 183.12L107.958 183.818C108.138 184.177 108.576 184.296 108.935 184.117C109.235 183.898 109.374 183.459 109.175 183.1Z" fill="white"/>
<path d="M107.978 180.826L107.639 180.128C107.459 179.769 107.06 179.63 106.701 179.809C106.362 179.989 106.223 180.407 106.382 180.746L106.721 181.464C106.881 181.823 107.3 181.963 107.659 181.803C107.998 181.624 108.157 181.185 107.978 180.826C107.978 180.846 107.978 180.846 107.978 180.826Z" fill="white"/>
<path d="M106.901 178.493L106.602 177.775V177.755C106.462 177.396 106.063 177.236 105.704 177.396C105.365 177.535 105.206 177.934 105.345 178.293L105.645 179.031C105.784 179.39 106.183 179.55 106.542 179.41C106.881 179.271 107.061 178.872 106.901 178.493C106.901 178.513 106.901 178.513 106.901 178.493Z" fill="white"/>
<path d="M105.944 176.099L105.684 175.381V175.361C105.565 175.002 105.186 174.823 104.847 174.962C104.508 175.082 104.328 175.461 104.448 175.82L104.707 176.578C104.827 176.937 105.206 177.116 105.545 176.997C105.884 176.877 106.083 176.498 105.963 176.139C105.963 176.119 105.963 176.119 105.944 176.099Z" fill="white"/>
<path d="M105.166 173.666L104.966 172.928V172.908C104.867 172.569 104.528 172.37 104.189 172.45C103.85 172.549 103.65 172.888 103.75 173.227L103.949 174.005C104.029 174.364 104.388 174.564 104.727 174.484C105.066 174.404 105.286 174.045 105.186 173.686C105.166 173.686 105.166 173.686 105.166 173.666Z" fill="white"/>
<path d="M104.568 171.173L104.448 170.416V170.396C104.388 170.057 104.069 169.837 103.75 169.897C103.431 169.957 103.211 170.276 103.251 170.595L103.371 171.393C103.431 171.732 103.73 171.971 104.069 171.911C104.408 171.852 104.627 171.532 104.588 171.193L104.568 171.173Z" fill="white"/>
<path d="M104.249 168.661L104.209 167.903V167.883C104.189 167.564 103.93 167.304 103.61 167.324C103.291 167.344 103.052 167.604 103.072 167.923L103.092 168.74C103.092 169.059 103.371 169.339 103.69 169.319C104.009 169.319 104.269 169.04 104.269 168.7C104.269 168.7 104.269 168.7 104.269 168.681L104.249 168.661Z" fill="white"/>
<path d="M104.229 166.127L104.308 165.369V165.33C104.348 165.03 104.129 164.751 103.83 164.731C103.531 164.691 103.271 164.911 103.231 165.21L103.132 166.008C103.092 166.307 103.311 166.586 103.61 166.626C103.909 166.666 104.189 166.446 104.229 166.147C104.229 166.147 104.229 166.147 104.229 166.127Z" fill="white"/>
<path d="M104.667 163.654L104.887 162.936L104.906 162.897C104.986 162.637 104.847 162.358 104.587 162.278C104.328 162.198 104.069 162.338 103.969 162.597L103.71 163.375C103.61 163.654 103.75 163.934 104.029 164.033C104.288 164.133 104.587 163.993 104.687 163.714V163.694L104.667 163.654Z" fill="white"/>
<path d="M105.565 161.341L105.944 160.703L105.964 160.683C106.083 160.463 106.023 160.184 105.804 160.064C105.605 159.945 105.325 160.004 105.206 160.204L104.767 160.882C104.627 161.101 104.687 161.381 104.907 161.52C105.126 161.66 105.405 161.6 105.545 161.381C105.545 161.381 105.545 161.381 105.545 161.361L105.565 161.341Z" fill="white"/>
<path d="M107.001 159.287L107.519 158.748L107.539 158.728C107.699 158.569 107.679 158.309 107.539 158.17C107.38 158.03 107.141 158.03 107.001 158.17L106.423 158.728C106.263 158.888 106.263 159.147 106.403 159.306C106.562 159.466 106.821 159.486 106.981 159.326C106.981 159.326 106.981 159.326 107.001 159.306V159.287Z" fill="white"/>
<path d="M108.855 157.591L109.474 157.153L109.494 157.133C109.653 157.033 109.673 156.814 109.573 156.674C109.474 156.534 109.274 156.495 109.135 156.574L108.456 156.993C108.297 157.093 108.237 157.312 108.337 157.492C108.437 157.651 108.656 157.711 108.815 157.611C108.835 157.611 108.835 157.611 108.855 157.591Z" fill="white"/>
<path d="M81.3726 117.105C78.3013 117.105 76.0277 119.957 76.7058 122.949L106.542 254.419C107.04 256.633 109.035 258.188 111.328 258.148L323.531 253.162C326.164 253.103 328.258 250.909 328.198 248.256L325.207 121.712C325.147 119.12 323.013 117.045 320.42 117.045L81.3726 117.105Z" fill="url(#paint0_linear_13755_48248)"/>
<path d="M101.456 81.7648C98.764 81.705 96.6101 83.9985 96.8693 86.691L109.195 215.748C109.414 218.101 111.408 219.876 113.782 219.816L303.648 215.349C306.001 215.289 307.936 213.414 308.035 211.061L313.4 91.3778C313.52 88.8648 311.525 86.7508 309.013 86.691L101.456 81.7648Z" fill="url(#paint1_linear_13755_48248)"/>
<path d="M284.541 197.838C288.251 198.317 291.661 195.684 292.14 191.974L307.576 75.0235C308.075 71.294 305.442 67.8636 301.713 67.385L126.566 44.27C122.836 43.7714 119.426 46.384 118.927 50.1135L103.052 167.962C102.553 171.711 105.186 175.162 108.955 175.62L284.541 197.838Z" fill="url(#paint2_linear_13755_48248)"/>
<path d="M118.608 170.256C114.759 169.797 112.046 166.287 112.565 162.438L127.004 57.9516C127.523 54.1822 131.013 51.5296 134.782 52.0482L291.9 73.5277C295.63 74.0263 298.263 77.4168 297.824 81.1463L286.276 183C285.838 186.809 282.407 189.541 278.598 189.083L118.608 170.256Z" fill="url(#paint3_linear_13755_48248)"/>
<path opacity="0.6" d="M118.768 156.435C118.588 157.791 119.546 159.047 120.902 159.227L121.759 159.346C123.115 159.526 124.372 158.569 124.551 157.212L137.316 60.4447C137.495 59.0885 136.538 57.832 135.182 57.6525L134.324 57.5329C132.968 57.3534 131.711 58.3107 131.532 59.6669L118.768 156.435Z" fill="white"/>
<path opacity="0.6" d="M133.227 149.853C134.523 149.953 135.68 149.035 135.879 147.739L148.584 63.3364C148.783 61.9603 147.826 60.6839 146.45 60.5044L146.25 60.4844C144.914 60.3049 143.677 61.2423 143.478 62.5785L130.973 147.021C130.754 148.437 131.791 149.753 133.227 149.853Z" fill="white"/>
<path opacity="0.61" d="M281.41 178.572C281.41 178.552 281.41 178.532 281.41 178.493L292.838 83.0411C293.017 81.4656 292.599 79.9299 291.601 78.6933C290.624 77.4568 289.208 76.679 287.652 76.4995L158.037 61.9006C156.481 61.7211 154.926 62.1599 153.709 63.1571C152.473 64.1343 151.695 65.5503 151.535 67.106L140.826 162.498C140.467 165.729 142.8 168.64 146.011 168.999L274.888 183.678C278.099 184.017 280.991 181.743 281.41 178.572ZM146.25 167.025C144.096 166.786 142.541 164.831 142.78 162.677L153.49 67.2854C153.61 66.2484 154.128 65.311 154.946 64.6529C155.764 63.9947 156.801 63.6955 157.838 63.8152L165.017 64.6329L151.456 167.444C151.456 167.504 151.456 167.563 151.456 167.623L146.25 167.025ZM275.128 181.704L153.37 167.843C153.39 167.803 153.39 167.763 153.39 167.703L166.952 64.8523L287.433 78.4341C288.49 78.5537 289.427 79.0723 290.066 79.89C290.724 80.7077 291.003 81.7448 290.883 82.8018L279.456 178.253C279.456 178.273 279.456 178.293 279.456 178.293C279.196 180.427 277.262 181.943 275.128 181.704Z" fill="white"/>
<path d="M322.355 260.242H104.787C101.496 260.242 98.8037 257.57 98.8037 254.259V124.225C98.8037 118.681 103.291 114.193 108.835 114.193H317.728C323.691 114.193 328.537 119.04 328.537 125.003V254.04C328.557 257.47 325.765 260.242 322.355 260.242Z" fill="url(#paint4_linear_13755_48248)"/>
<path d="M201.774 120.157C201.574 120.157 201.395 119.997 201.395 119.798C201.395 119.598 201.555 119.419 201.754 119.419L223.433 119C223.652 118.98 223.812 119.16 223.812 119.359C223.812 119.558 223.652 119.738 223.453 119.738L201.774 120.157Z" fill="white"/>
<path d="M152.971 121.094C152.772 121.094 152.592 120.935 152.592 120.735C152.592 120.536 152.752 120.356 152.951 120.356L195.412 119.539C195.611 119.539 195.791 119.698 195.791 119.898C195.791 120.097 195.631 120.276 195.432 120.276L152.971 121.094Z" fill="white"/>
<path d="M105.983 148.258C105.784 148.258 105.604 148.098 105.604 147.879L105.644 128.433C105.644 124.465 108.875 121.194 112.844 121.114L137.475 120.635C137.694 120.615 137.854 120.795 137.854 120.994C137.854 121.194 137.694 121.373 137.495 121.373L112.864 121.852C109.314 121.912 106.402 124.863 106.402 128.433L106.362 147.879C106.362 148.098 106.203 148.258 105.983 148.258Z" fill="white"/>
<g filter="url(#filter0_d_13755_48248)">
<path d="M199.64 168.76L209.432 158.967V199.813C209.432 202.365 211.128 204.061 213.68 204.061C216.233 204.061 217.929 202.365 217.929 199.813V158.967L227.721 168.76C229.416 170.455 231.969 170.455 233.684 168.76C235.379 167.065 235.379 164.512 233.684 162.797L216.672 145.784C216.253 145.366 215.814 144.927 215.396 144.927C214.538 144.508 213.262 144.508 211.985 144.927C211.566 144.927 211.128 145.346 210.709 145.784L193.697 162.797C192.001 164.492 192.001 167.045 193.697 168.76C195.372 170.455 197.925 170.455 199.64 168.76ZM251.973 195.564C249.42 195.564 247.725 197.26 247.725 199.813V216.825C247.725 219.377 246.029 221.073 243.477 221.073H183.884C181.331 221.073 179.636 219.377 179.636 216.825V199.813C179.636 197.26 177.941 195.564 175.388 195.564C172.835 195.564 171.14 197.26 171.14 199.813V216.825C171.14 224.064 176.665 229.589 183.904 229.589H243.477C250.716 229.589 256.241 224.064 256.241 216.825V199.813C256.221 197.26 254.526 195.564 251.973 195.564Z" fill="white"/>
</g>
<defs>
<filter id="filter0_d_13755_48248" x="161.14" y="139.613" width="105.101" height="104.976" filterUnits="userSpaceOnUse" color-interpolation-filters="sRGB">
<feFlood flood-opacity="0" result="BackgroundImageFix"/>
<feColorMatrix in="SourceAlpha" type="matrix" values="0 0 0 0 0 0 0 0 0 0 0 0 0 0 0 0 0 0 127 0" result="hardAlpha"/>
<feOffset dy="5"/>
<feGaussianBlur stdDeviation="5"/>
<feComposite in2="hardAlpha" operator="out"/>
<feColorMatrix type="matrix" values="0 0 0 0 0 0 0 0 0 0 0 0 0 0 0 0 0 0 0.2 0"/>
<feBlend mode="normal" in2="BackgroundImageFix" result="effect1_dropShadow_13755_48248"/>
<feBlend mode="normal" in="SourceGraphic" in2="effect1_dropShadow_13755_48248" result="shape"/>
</filter>
<linearGradient id="paint0_linear_13755_48248" x1="168.023" y1="131.117" x2="20.1718" y2="-43.6167" gradientUnits="userSpaceOnUse">
<stop stop-color="#FDF53F"/>
<stop offset="1" stop-color="#D93C65"/>
</linearGradient>
<linearGradient id="paint1_linear_13755_48248" x1="87.6308" y1="120.674" x2="316.089" y2="180.848" gradientUnits="userSpaceOnUse">
<stop stop-color="#9CFFFB"/>
<stop offset="1" stop-color="#9BFFFA"/>
</linearGradient>
<linearGradient id="paint2_linear_13755_48248" x1="212.902" y1="81.0181" x2="151.341" y2="415.698" gradientUnits="userSpaceOnUse">
<stop stop-color="#53D8FF"/>
<stop offset="1" stop-color="#3840F7"/>
</linearGradient>
<linearGradient id="paint3_linear_13755_48248" x1="205.529" y1="113.71" x2="211.441" y2="-32.1427" gradientUnits="userSpaceOnUse">
<stop stop-color="#53D8FF"/>
<stop offset="1" stop-color="#3840F7"/>
</linearGradient>
<linearGradient id="paint4_linear_13755_48248" x1="115.427" y1="102.23" x2="483.349" y2="425.458" gradientUnits="userSpaceOnUse">
<stop stop-color="#FDF53F"/>
<stop offset="1" stop-color="#D93C65"/>
</linearGradient>
</defs>
</svg>
