<svg width="92" height="24" viewBox="0 0 92 24" fill="none" xmlns="http://www.w3.org/2000/svg">
<g id="Group 9">
<g id="Group">
<g id="Group_2">
<path id="Vector" d="M46 0C39.3832 0 34 5.38323 34 12C34 18.6163 39.3832 24 46 24C52.6163 24 58 18.6163 58 12C58 5.38323 52.6173 0 46 0ZM51.3533 9.25352C51.3586 9.37243 51.3615 9.49231 51.3615 9.61218C51.3615 13.2621 48.5841 17.4693 43.5025 17.4693C41.9426 17.4693 40.4906 17.0135 39.2687 16.2294C39.4847 16.2551 39.7047 16.2681 39.9275 16.2681C41.2219 16.2681 42.4125 15.8263 43.3579 15.0858C42.1495 15.0636 41.1291 14.265 40.7777 13.1673C40.9459 13.1992 41.1195 13.2171 41.2969 13.2171C41.5487 13.2171 41.7933 13.1842 42.0248 13.1209C40.7613 12.8676 39.8096 11.7516 39.8096 10.4126C39.8096 10.401 39.8096 10.3889 39.81 10.3778C40.1822 10.5842 40.6081 10.7089 41.0605 10.723C40.32 10.2285 39.8323 9.38258 39.8323 8.42456C39.8323 7.91799 39.9681 7.44333 40.2059 7.03537C41.5676 8.70684 43.6035 9.80601 45.8985 9.92202C45.8511 9.71949 45.8274 9.50922 45.8274 9.29219C45.8274 7.76718 47.0639 6.53025 48.5889 6.53025C49.3835 6.53025 50.1004 6.86571 50.605 7.40224C51.2348 7.2785 51.8245 7.04938 52.3596 6.73181C52.1518 7.3771 51.7153 7.91799 51.1435 8.26021C51.7027 8.19351 52.2364 8.0456 52.7299 7.82567C52.3616 8.37864 51.8932 8.86538 51.3533 9.25352Z" fill="#252947"/>
</g>
</g>
<g id="Group 3">
<path id="Vector_2" d="M82.2969 12C82.2969 13.2686 81.2686 14.2969 80 14.2969C78.7314 14.2969 77.7031 13.2686 77.7031 12C77.7031 10.7314 78.7314 9.70312 80 9.70312C81.2686 9.70312 82.2969 10.7314 82.2969 12Z" fill="#252947"/>
<path id="Vector_3" d="M85.3715 7.93622C85.261 7.63702 85.0849 7.36621 84.856 7.14392C84.6337 6.91504 84.3631 6.73889 84.0637 6.62848C83.8209 6.53418 83.4562 6.42194 82.7844 6.39136C82.0576 6.35822 81.8397 6.35107 79.9999 6.35107C78.1599 6.35107 77.942 6.35803 77.2154 6.39117C76.5436 6.42194 76.1787 6.53418 75.936 6.62848C75.6367 6.73889 75.3658 6.91504 75.1437 7.14392C74.9149 7.36621 74.7387 7.63684 74.6281 7.93622C74.5338 8.17902 74.4216 8.54395 74.391 9.21576C74.3578 9.94232 74.3507 10.1602 74.3507 12.0002C74.3507 13.8401 74.3578 14.058 74.391 14.7847C74.4216 15.4565 74.5338 15.8213 74.6281 16.0641C74.7387 16.3635 74.9147 16.6341 75.1436 16.8564C75.3658 17.0853 75.6365 17.2614 75.9359 17.3718C76.1787 17.4663 76.5436 17.5786 77.2154 17.6091C77.942 17.6423 78.1597 17.6492 79.9997 17.6492C81.8399 17.6492 82.0578 17.6423 82.7842 17.6091C83.456 17.5786 83.8209 17.4663 84.0637 17.3718C84.6647 17.14 85.1396 16.665 85.3715 16.0641C85.4658 15.8213 85.578 15.4565 85.6088 14.7847C85.6419 14.058 85.6489 13.8401 85.6489 12.0002C85.6489 10.1602 85.6419 9.94232 85.6088 9.21576C85.5782 8.54395 85.4659 8.17902 85.3715 7.93622ZM79.9999 15.5384C78.0456 15.5384 76.4614 13.9543 76.4614 12.0001C76.4614 10.0458 78.0456 8.46173 79.9999 8.46173C81.954 8.46173 83.5382 10.0458 83.5382 12.0001C83.5382 13.9543 81.954 15.5384 79.9999 15.5384ZM83.6781 9.14874C83.2214 9.14874 82.8512 8.7785 82.8512 8.32184C82.8512 7.86517 83.2214 7.49493 83.6781 7.49493C84.1348 7.49493 84.505 7.86517 84.505 8.32184C84.5048 8.7785 84.1348 9.14874 83.6781 9.14874Z" fill="#252947"/>
<path id="Vector_4" d="M80 0C73.3736 0 68 5.3736 68 12C68 18.6264 73.3736 24 80 24C86.6264 24 92 18.6264 92 12C92 5.3736 86.6264 0 80 0ZM86.8491 14.8409C86.8157 15.5744 86.6991 16.0752 86.5288 16.5135C86.1708 17.4391 85.4391 18.1708 84.5135 18.5288C84.0754 18.6991 83.5744 18.8156 82.8411 18.8491C82.1063 18.8826 81.8715 18.8906 80.0002 18.8906C78.1287 18.8906 77.8941 18.8826 77.1591 18.8491C76.4258 18.8156 75.9248 18.6991 75.4866 18.5288C75.0267 18.3558 74.6103 18.0846 74.2661 17.7339C73.9156 17.3899 73.6444 16.9733 73.4714 16.5135C73.3011 16.0754 73.1844 15.5744 73.1511 14.8411C73.1172 14.1061 73.1094 13.8713 73.1094 12C73.1094 10.1287 73.1172 9.89392 73.1509 9.15912C73.1843 8.4256 73.3007 7.9248 73.471 7.48645C73.644 7.02667 73.9154 6.61011 74.2661 6.26605C74.6101 5.91541 75.0267 5.64423 75.4865 5.47119C75.9248 5.3009 76.4256 5.18445 77.1591 5.15094C77.8939 5.11743 78.1287 5.10938 80 5.10938C81.8713 5.10938 82.1061 5.11743 82.8409 5.15112C83.5744 5.18445 84.0752 5.3009 84.5135 5.47101C84.9733 5.64404 85.3899 5.91541 85.7341 6.26605C86.0846 6.61029 86.356 7.02667 86.5288 7.48645C86.6993 7.9248 86.8157 8.4256 86.8492 9.15912C86.8828 9.89392 86.8906 10.1287 86.8906 12C86.8906 13.8713 86.8828 14.1061 86.8491 14.8409Z" fill="#252947"/>
</g>
<g id="Group_3">
<g id="Group_4">
<path id="Vector_5" d="M12 0C5.38323 0 0 5.38323 0 12C0 18.6163 5.38323 24 12 24C18.6163 24 24 18.6163 24 12C24 5.38323 18.6173 0 12 0ZM14.9843 12.4225H13.032V19.381H10.139C10.139 19.381 10.139 15.5788 10.139 12.4225H8.76388V9.9631H10.139V8.37235C10.139 7.23306 10.6804 5.45283 13.0586 5.45283L15.2023 5.46105V7.84838C15.2023 7.84838 13.8996 7.84838 13.6463 7.84838C13.3931 7.84838 13.0329 7.97503 13.0329 8.51833V9.96359H15.2371L14.9843 12.4225Z" fill="#252947"/>
</g>
</g>
</g>
</svg>
