<svg width="260" height="260" viewBox="0 0 260 260" fill="none" xmlns="http://www.w3.org/2000/svg">
<path d="M250.512 89.9875C243.656 85.8685 239.283 76.2185 240.938 68.3336C242.592 60.5665 237.391 52.917 229.59 51.3871C221.67 49.8573 214.341 42.2078 213.159 34.323C211.977 26.4382 204.53 21.0247 196.61 22.3192C188.69 23.6138 179.115 18.9064 175.333 11.8454C171.55 4.78433 162.684 2.31297 155.71 6.19654C148.736 10.0801 138.097 8.90326 132.069 3.60749C126.04 -1.68829 116.82 -1.09987 111.619 5.0197C106.299 11.1393 95.8972 13.6106 88.4501 10.6685C81.0031 7.72643 72.6103 11.3746 69.7734 18.9064C66.9364 26.3205 58.0708 32.3224 50.0327 32.087C41.9946 31.8516 35.375 38.2066 35.2568 46.2091C35.1386 54.2116 28.8736 62.8025 21.1901 65.2739C13.5067 67.8629 9.48762 76.1008 12.0882 83.6325C14.6887 91.1643 11.7336 101.403 5.46857 106.346C-0.796416 111.288 -1.86028 120.468 3.22263 126.587C8.30555 132.824 9.01479 143.416 4.75933 150.242C0.503865 157.067 2.7498 165.894 9.60583 170.013C16.4619 174.131 20.8355 183.782 19.1806 191.666C17.5257 199.433 22.7268 207.083 30.5285 208.613C38.4484 210.143 45.7773 217.792 46.9594 225.677C48.1414 233.562 55.5885 238.975 63.5084 237.681C71.4283 236.386 81.0031 241.094 84.9039 248.155C88.6865 255.216 97.5521 257.687 104.526 253.803C111.501 249.92 122.139 251.097 128.168 256.392C134.196 261.688 143.417 261.1 148.618 254.98C153.819 248.978 164.221 246.389 171.668 249.331C179.115 252.274 187.508 248.625 190.345 241.094C193.182 233.68 202.047 227.678 210.085 227.913C218.124 228.148 224.743 221.793 224.861 213.791C224.98 205.788 231.245 197.197 238.928 194.726C246.493 192.255 250.631 184.017 247.912 176.485C245.311 168.953 248.266 158.715 254.531 153.772C260.796 148.829 261.86 139.65 256.777 133.531C251.694 127.293 250.985 116.702 255.241 109.876C259.614 103.05 257.487 94.1064 250.512 89.9875ZM159.02 241.564C97.0793 257.452 34.0747 220.264 18.1168 158.715C2.15877 97.1662 39.3941 34.323 101.335 18.4357C163.157 2.66602 226.28 39.7364 242.238 101.285C258.196 162.951 220.842 225.795 159.02 241.564Z" fill="#50CD89"/>
<path d="M102.871 24.3198C44.2406 39.3833 8.89661 98.9314 23.9089 157.303C39.0395 215.674 98.8524 250.861 157.483 235.915C216.114 220.852 251.458 161.304 236.446 102.933C221.315 44.4437 161.502 9.25624 102.871 24.3198ZM156.419 231.679C100.034 246.154 42.5857 212.379 28.0462 156.243C13.5067 99.9905 47.4322 42.7961 103.935 28.321C160.32 13.8459 217.887 47.7389 232.308 103.874C246.848 160.009 212.804 217.321 156.419 231.679Z" fill="#50CD89"/>
<path d="M70.4827 157.773L65.9908 158.95L64.3359 152.477C65.9908 152.242 67.6457 152.007 69.0642 151.536C72.2558 150.712 74.9745 149.653 77.3387 148.476C79.7028 147.299 81.5941 145.769 83.1308 144.004C84.6675 142.239 85.6132 140.121 85.9678 137.649C86.3224 135.178 86.086 132.471 85.2586 129.411C84.7857 127.646 84.1947 126.116 83.4855 124.704C82.7762 123.292 82.067 122.233 81.2395 121.291C80.4121 120.35 79.4664 119.644 78.5208 119.055C77.5751 118.467 76.5112 117.996 75.3292 117.761C74.2653 117.525 73.0832 117.29 71.9011 117.172C70.7191 117.055 69.4188 117.172 68.2367 117.29C66.9364 117.408 65.6362 117.643 64.3359 117.878C63.0356 118.114 61.6171 118.349 60.3168 118.702C59.0165 119.055 57.5981 119.408 56.2978 119.761C55.9431 119.879 55.7067 119.879 55.5885 119.997C55.3521 119.997 55.2339 120.114 54.8793 120.114C54.6429 120.232 54.4065 120.232 54.17 120.35L33.8384 125.528L36.6754 136.472L41.4036 135.296L48.7325 163.54L43.886 164.834L46.723 176.014L73.556 169.189L70.4827 157.773ZM58.6619 130.706L61.2625 130C62.9174 129.529 64.3359 129.647 65.6362 130.235C66.9364 130.824 67.8821 132 68.3549 133.883C69.4188 138.002 67.6457 140.709 62.9174 141.886L61.6171 142.239L58.6619 130.706Z" fill="#50CD89"/>
<path d="M140.107 140.003L137.388 140.71C137.033 140.827 136.797 140.71 136.442 140.474C136.088 140.239 135.851 140.003 135.733 139.768C135.497 139.415 135.26 139.062 134.906 138.474L115.993 104.345L85.0222 112.23L87.8592 123.175L94.4788 121.527L94.597 144.005C94.597 146.358 94.597 147.771 94.4788 148.359C94.2424 150.124 93.2967 151.419 91.76 152.243C91.0508 152.596 90.3415 152.831 89.3959 153.066L92.2329 164.246L113.392 158.833L110.555 147.653L107.954 148.359C107.482 148.477 107.127 148.241 106.654 147.535C106.181 146.829 105.945 146.241 105.827 145.652C105.708 145.182 105.709 144.828 105.59 144.593C105.59 144.358 105.59 144.122 105.708 143.887C105.827 143.652 105.945 143.416 106.3 143.416L114.81 141.18C116.229 140.827 117.293 142.357 118.238 145.77L114.456 146.711L117.411 157.891L143.18 151.301L140.107 140.003ZM104.881 135.296L104.29 118.585L111.973 133.413L104.881 135.296Z" fill="#50CD89"/>
<path d="M161.857 104.227L159.02 93.2827L132.069 100.226L134.906 111.171L139.397 109.994L146.726 138.238L142.116 139.415L144.953 150.595L171.904 143.769L168.949 132.589L164.576 133.648L157.247 105.404L161.857 104.227Z" fill="#50CD89"/>
<path d="M163.63 92.106L166.467 103.051L171.786 101.756L179.115 130L174.032 131.295L176.869 142.475L201.811 136.12C205.948 135.061 209.613 133.413 212.686 131.177C215.759 128.941 218.005 126.352 219.542 123.41C221.079 120.468 222.024 117.408 222.379 114.113C222.734 110.818 222.497 107.405 221.67 104.11C219.542 95.8719 215.759 90.2231 210.44 87.0456C205.121 83.8681 198.146 83.3974 189.517 85.6334L163.63 92.106ZM197.792 98.3433C198.619 99.0494 199.447 99.9908 200.156 101.285C200.865 102.462 201.456 103.639 201.929 104.816C202.402 105.993 202.757 107.287 203.111 108.699C203.466 110.112 203.702 111.406 203.939 112.701C204.057 113.995 204.175 115.29 204.057 116.702C203.939 118.114 203.702 119.409 203.229 120.468C202.757 121.527 202.047 122.586 201.102 123.41C200.156 124.351 198.856 124.94 197.319 125.293L196.255 125.528L188.926 97.2841L190.345 96.9311C191.881 96.578 193.3 96.4603 194.6 96.8134C195.782 97.0487 196.846 97.6372 197.792 98.3433Z" fill="#50CD89"/>
<path d="M54.3459 98.3348L52.2363 103.579L55.0894 104.716L57.1989 99.4724L54.3459 98.3348Z" fill="#50CD89"/>
<path d="M51.8059 87.2809L65.1633 95.2834L67.291 91.6352L53.9336 83.7504L55.8249 80.4552L52.6333 78.5723L46.6047 88.6931L49.7963 90.576L51.8059 87.2809Z" fill="#50CD89"/>
<path d="M74.3837 82.3382L68.3551 76.8071L71.0739 73.9827L77.1024 79.5138L79.9394 76.454L65.6363 63.2734L62.7994 66.3332L68.2369 71.3936L65.6363 74.218L60.1988 69.2753L57.3618 72.3351L71.5467 85.398L74.3837 82.3382Z" fill="#50CD89"/>
<path d="M86.0861 71.6288L84.904 68.8044L89.1595 65.9799L91.4054 68.0982L94.8335 65.7446L79.8211 52.4463L76.2749 54.8L82.6581 73.8648L86.0861 71.6288ZM80.6486 57.6244L86.7954 63.6263L83.722 65.7446L80.6486 57.6244Z" fill="#50CD89"/>
<path d="M101.926 62.6851L97.5521 51.2697H97.6703L106.654 60.9198L110.791 59.3899L103.817 41.2666L100.153 42.6788L104.408 53.8588H104.29L95.5426 44.4441L91.2871 46.0916L98.1431 64.0973L101.926 62.6851Z" fill="#50CD89"/>
<path d="M118.475 48.092H118.593L123.676 57.1537L128.168 56.5653L122.375 47.1506L125.212 37.5005L120.957 38.0889L118.475 47.2683H118.356L117.174 38.5596L113.037 39.1481L115.638 58.2129L119.775 57.7421L118.475 48.092Z" fill="#50CD89"/>
<path d="M139.989 57.2719L140.698 48.7986L145.899 38.4425L141.762 38.0894L138.925 43.9736L136.915 37.7364L132.423 37.3833L136.561 48.4456L135.851 56.9188L139.989 57.2719Z" fill="#50CD89"/>
<path d="M149.209 56.9183C149.918 58.8012 151.336 59.9781 153.346 60.5665C155.356 61.1549 157.129 60.9195 158.784 59.8604C160.438 58.8012 161.857 56.4475 163.039 52.6817C163.63 50.9164 163.866 49.3865 163.985 48.2097C163.985 47.0328 163.866 45.9737 163.512 45.0322C163.157 44.0907 162.566 43.3846 161.975 42.6785C161.384 42.0901 160.438 41.6194 159.256 41.2663C157.838 40.7956 156.538 40.7956 155.356 41.1486C154.173 41.5017 153.228 42.2078 152.282 43.2669C151.336 44.3261 150.509 46.0914 149.682 48.6804C148.618 52.4463 148.5 55.0353 149.209 56.9183ZM152.991 54.0939C153.11 53.3878 153.346 52.0932 153.937 50.2103L154.292 49.0335C154.765 47.3859 155.356 46.3267 155.947 45.7383C156.538 45.1499 157.247 44.9145 158.074 45.1499C158.665 45.3853 159.138 45.7383 159.375 46.209C159.611 46.7975 159.729 47.3859 159.729 48.092C159.611 48.7981 159.375 49.9749 158.902 51.6225C158.311 53.3878 157.838 54.6823 157.483 55.2707C157.129 55.9768 156.656 56.3299 156.183 56.5652C155.71 56.8006 155.237 56.8006 154.764 56.6829C154.173 56.4475 153.701 56.2122 153.464 55.7414C153.11 55.2707 152.873 54.8 152.991 54.0939Z" fill="#50CD89"/>
<path d="M166.112 63.862C166.467 65.2742 167.531 66.5687 169.304 67.5102C170.959 68.4517 172.496 68.8047 174.032 68.4517C175.451 68.0986 176.633 67.1571 177.578 65.6272L184.553 53.6235L180.888 51.5052L174.269 62.8028C173.914 63.5089 173.441 63.9797 172.85 64.215C172.259 64.4504 171.786 64.4504 171.313 64.0974C170.722 63.7443 170.486 63.2736 170.368 62.6851C170.25 62.0967 170.486 61.3906 170.959 60.5668L177.46 49.3869L173.796 47.2686L166.94 58.9193C165.994 60.8022 165.64 62.3321 166.112 63.862Z" fill="#50CD89"/>
<path d="M183.272 66.6815L181.297 69.0259L185.644 72.6558L187.619 70.3114L183.272 66.6815Z" fill="#50CD89"/>
<path d="M73.6793 190.047L71.6047 192.305L75.791 196.118L77.8655 193.86L73.6793 190.047Z" fill="#50CD89"/>
<path d="M95.3061 197.08L97.4338 194.02L87.5044 187.547L85.4949 190.725L88.6865 192.843L80.1755 205.788L83.6035 208.142L92.2327 195.079L95.3061 197.08Z" fill="#50CD89"/>
<path d="M108.191 198.375L105.59 205.318L101.807 203.906L104.526 196.962L100.507 195.55L93.7693 213.556L97.6701 215.086L100.507 207.436L104.172 208.849L101.335 216.498L105.235 217.91L112.091 199.905L108.191 198.375Z" fill="#50CD89"/>
<path d="M112.919 219.91L116.938 220.381L118.002 217.439L123.085 218.028L123.321 221.087L127.34 221.558L124.858 201.787L120.603 201.316L112.919 219.91ZM122.258 206.377L122.967 214.968L119.302 214.497L122.258 206.377Z" fill="#50CD89"/>
<path d="M144.126 213.085H144.008L137.743 201.787L133.133 202.376L135.615 221.558L139.634 221.087L138.097 208.966H138.215L144.599 220.381L148.972 219.911L146.608 200.728L142.589 201.199L144.126 213.085Z" fill="#50CD89"/>
<path d="M162.566 195.079L158.547 196.609L158.192 206.141V206.259L155.001 198.021L151.1 199.433L157.956 217.557L161.857 216.027L158.429 206.847L165.521 214.615L169.658 213.085L161.975 205.2L162.566 195.079Z" fill="#50CD89"/>
<path d="M176.16 186.371L172.732 188.724L174.151 195.079L168.713 191.313L164.93 193.902L175.214 200.022L179.943 207.083L183.371 204.847L178.642 197.668L176.16 186.371Z" fill="#50CD89"/>
<path d="M190.7 178.486C189.636 177.898 188.572 177.545 187.626 177.545C186.562 177.427 185.735 177.545 184.907 177.898C184.08 178.133 183.253 178.721 182.425 179.663C181.361 180.722 180.77 181.899 180.652 183.076C180.534 184.253 180.652 185.547 181.243 186.842C181.716 188.136 183.016 189.666 185.026 191.549C187.744 194.138 190.109 195.433 192 195.55C194.009 195.668 195.664 194.962 197.083 193.432C198.501 191.902 199.092 190.254 198.974 188.254C198.738 186.253 197.319 184.017 194.482 181.311C192.946 180.016 191.764 179.075 190.7 178.486ZM194.837 189.195C194.837 189.784 194.6 190.254 194.246 190.608C193.773 191.078 193.3 191.314 192.709 191.314C192.118 191.431 191.527 191.196 191.054 190.843C190.463 190.49 189.518 189.666 187.981 188.254L187.035 187.43C185.853 186.253 185.026 185.312 184.789 184.488C184.553 183.664 184.671 182.958 185.262 182.252C185.735 181.781 186.208 181.546 186.799 181.546C187.39 181.546 187.981 181.781 188.69 182.134C189.281 182.487 190.227 183.311 191.409 184.488C192.827 185.782 193.655 186.724 194.128 187.312C194.6 188.018 194.837 188.607 194.837 189.195Z" fill="#50CD89"/>
<path d="M195.9 160.833L193.773 164.482L205.239 170.954C205.948 171.307 206.421 171.778 206.657 172.367C206.894 172.955 206.894 173.426 206.539 173.896C206.185 174.485 205.712 174.72 205.121 174.838C204.53 174.956 203.82 174.72 202.993 174.249L191.763 167.895L189.635 171.543L201.456 178.251C203.229 179.192 204.766 179.545 206.185 179.075C207.603 178.721 208.903 177.545 209.849 175.897C210.795 174.249 211.149 172.602 210.795 171.19C210.44 169.777 209.494 168.601 207.839 167.659L195.9 160.833Z" fill="#50CD89"/>
<path d="M209.543 155.497L207.667 160.828L210.567 161.84L212.443 156.509L209.543 155.497Z" fill="#50CD89"/>
</svg>
