<svg width="79" height="24" viewBox="0 0 79 24" fill="none" xmlns="http://www.w3.org/2000/svg">
<g id="Group 12">
<rect id="Rectangle 7" x="0.796143" width="78.2039" height="23.1715" rx="3" fill="black"/>
<g id="Group 11">
<g id="App Store">
<path d="M52.6738 10.3027V11.6298H51.8419V12.5002H52.6738V15.4574C52.6738 16.4672 53.1306 16.8712 54.2799 16.8712C54.4818 16.8712 54.6742 16.8471 54.8425 16.8183V15.9575C54.6982 15.972 54.6068 15.9816 54.4482 15.9816C53.9336 15.9816 53.7076 15.7411 53.7076 15.193V12.5002H54.8425V11.6298H53.7076V10.3027H52.6738Z" fill="white"/>
<path d="M57.7701 16.9433C59.2992 16.9433 60.2369 15.9191 60.2369 14.2216C60.2369 12.5338 59.2944 11.5048 57.7701 11.5048C56.241 11.5048 55.2985 12.5338 55.2985 14.2216C55.2985 15.9191 56.2362 16.9433 57.7701 16.9433ZM57.7701 16.0248C56.8709 16.0248 56.366 15.3661 56.366 14.2216C56.366 13.0868 56.8709 12.4232 57.7701 12.4232C58.6645 12.4232 59.1742 13.0868 59.1742 14.2216C59.1742 15.3613 58.6645 16.0248 57.7701 16.0248Z" fill="white"/>
<path d="M61.0391 16.8423H62.073V13.7504C62.073 13.0147 62.6259 12.5194 63.4097 12.5194C63.5925 12.5194 63.9002 12.5531 63.9868 12.5819V11.5625C63.8762 11.5337 63.679 11.5192 63.5251 11.5192C62.8423 11.5192 62.2605 11.8943 62.1114 12.4088H62.0345V11.6058H61.0391V16.8423Z" fill="white"/>
<path d="M66.5538 12.3848C67.3183 12.3848 67.8184 12.9185 67.8424 13.7408H65.1977C65.2555 12.9233 65.7892 12.3848 66.5538 12.3848ZM67.8376 15.4286C67.6453 15.8373 67.2173 16.0633 66.5922 16.0633C65.7652 16.0633 65.2314 15.4815 65.1977 14.563V14.5053H68.8955V14.1447C68.8955 12.5002 68.0156 11.5048 66.5586 11.5048C65.0823 11.5048 64.1447 12.5675 64.1447 14.2409C64.1447 15.9142 65.0631 16.9433 66.5634 16.9433C67.7607 16.9433 68.5974 16.3663 68.833 15.4286H67.8376Z" fill="white"/>
<path d="M45.8941 14.9085C45.9738 16.1944 47.0453 17.0167 48.6402 17.0167C50.3447 17.0167 51.4112 16.1545 51.4112 14.779C51.4112 13.6974 50.8032 13.0994 49.328 12.7555L48.5355 12.5611C47.5986 12.3418 47.2198 12.0478 47.2198 11.5344C47.2198 10.8865 47.8079 10.4629 48.69 10.4629C49.5273 10.4629 50.1055 10.8766 50.2101 11.5394H51.2966C51.2318 10.3283 50.1653 9.47607 48.705 9.47607C47.135 9.47607 46.0884 10.3283 46.0884 11.6092C46.0884 12.6658 46.6815 13.2938 47.9823 13.5978L48.9093 13.822C49.8612 14.0463 50.2799 14.3753 50.2799 14.9235C50.2799 15.5614 49.622 16.0249 48.7249 16.0249C47.763 16.0249 47.0952 15.5913 47.0005 14.9085H45.8941Z" fill="white"/>
<path d="M35.1846 11.5192C34.4729 11.5192 33.8574 11.8751 33.54 12.4713H33.4631V11.6058H32.4677V18.583H33.5016V16.0489H33.5833C33.8574 16.6019 34.4489 16.9289 35.1942 16.9289C36.5165 16.9289 37.358 15.8854 37.358 14.2216C37.358 12.5579 36.5165 11.5192 35.1846 11.5192ZM34.8912 16.0008C34.0257 16.0008 33.4823 15.318 33.4823 14.2265C33.4823 13.1301 34.0257 12.4473 34.896 12.4473C35.7712 12.4473 36.2953 13.1157 36.2953 14.2216C36.2953 15.3324 35.7712 16.0008 34.8912 16.0008Z" fill="white"/>
<path d="M40.9756 11.5192C40.2639 11.5192 39.6484 11.8751 39.3311 12.4713H39.2541V11.6058H38.2588V18.583H39.2926V16.0489H39.3743C39.6484 16.6019 40.2399 16.9289 40.9852 16.9289C42.3076 16.9289 43.149 15.8854 43.149 14.2216C43.149 12.5579 42.3076 11.5192 40.9756 11.5192ZM40.6823 16.0008C39.8167 16.0008 39.2734 15.318 39.2734 14.2265C39.2734 13.1301 39.8167 12.4473 40.6871 12.4473C41.5622 12.4473 42.0864 13.1157 42.0864 14.2216C42.0864 15.3324 41.5622 16.0008 40.6823 16.0008Z" fill="white"/>
<path d="M30.6129 16.8423H31.799L29.2024 9.65051H28.0013L25.4047 16.8423H26.551L27.2138 14.9335H29.955L30.6129 16.8423ZM28.5445 10.9563H28.6293L29.6709 13.9965H27.4979L28.5445 10.9563Z" fill="white"/>
</g>
<g id="Download on the">
<path d="M26.0991 4.22588V7.69524H27.3517C28.3856 7.69524 28.9842 7.05811 28.9842 5.94974C28.9842 4.8582 28.3808 4.22588 27.3517 4.22588H26.0991ZM26.6377 4.71635H27.2916C28.0105 4.71635 28.4361 5.17316 28.4361 5.95695C28.4361 6.75277 28.0177 7.20477 27.2916 7.20477H26.6377V4.71635Z" fill="white"/>
<path d="M30.8177 7.74573C31.5823 7.74573 32.0511 7.23362 32.0511 6.38492C32.0511 5.54102 31.5799 5.0265 30.8177 5.0265C30.0532 5.0265 29.5819 5.54102 29.5819 6.38492C29.5819 7.23362 30.0508 7.74573 30.8177 7.74573ZM30.8177 7.28652C30.3681 7.28652 30.1157 6.95713 30.1157 6.38492C30.1157 5.81751 30.3681 5.48572 30.8177 5.48572C31.2649 5.48572 31.5198 5.81751 31.5198 6.38492C31.5198 6.95473 31.2649 7.28652 30.8177 7.28652Z" fill="white"/>
<path d="M36.0437 5.07699H35.5268L35.0603 7.07494H35.0195L34.4809 5.07699H33.9856L33.4471 7.07494H33.4086L32.9398 5.07699H32.4156L33.1369 7.69524H33.6682L34.2068 5.76702H34.2477L34.7886 7.69524H35.3248L36.0437 5.07699Z" fill="white"/>
<path d="M36.639 7.69524H37.1559V6.16372C37.1559 5.755 37.3987 5.50014 37.781 5.50014C38.1633 5.50014 38.346 5.70931 38.346 6.13006V7.69524H38.8629V6.00023C38.8629 5.37753 38.5407 5.0265 37.9565 5.0265C37.5622 5.0265 37.3025 5.20201 37.1751 5.49293H37.1367V5.07699H36.639V7.69524Z" fill="white"/>
<path d="M39.677 7.69524H40.1939V4.05518H39.677V7.69524Z" fill="white"/>
<path d="M42.138 7.74573C42.9026 7.74573 43.3714 7.23362 43.3714 6.38492C43.3714 5.54102 42.9002 5.0265 42.138 5.0265C41.3735 5.0265 40.9022 5.54102 40.9022 6.38492C40.9022 7.23362 41.3711 7.74573 42.138 7.74573ZM42.138 7.28652C41.6884 7.28652 41.436 6.95713 41.436 6.38492C41.436 5.81751 41.6884 5.48572 42.138 5.48572C42.5852 5.48572 42.8401 5.81751 42.8401 6.38492C42.8401 6.95473 42.5852 7.28652 42.138 7.28652Z" fill="white"/>
<path d="M44.9116 7.30335C44.6303 7.30335 44.4259 7.1663 44.4259 6.93068C44.4259 6.69987 44.5894 6.57726 44.9501 6.55321L45.5896 6.51234V6.73113C45.5896 7.05571 45.3011 7.30335 44.9116 7.30335ZM44.7793 7.73852C45.1232 7.73852 45.4093 7.58946 45.5655 7.32739H45.6064V7.69524H46.1041V5.90647C46.1041 5.35348 45.7338 5.0265 45.0775 5.0265C44.4836 5.0265 44.0605 5.31501 44.0076 5.76461H44.5077C44.5654 5.57948 44.7649 5.4737 45.0534 5.4737C45.4069 5.4737 45.5896 5.62997 45.5896 5.90647V6.13247L44.8803 6.17334C44.2576 6.21181 43.9066 6.48349 43.9066 6.95473C43.9066 7.43318 44.2745 7.73852 44.7793 7.73852Z" fill="white"/>
<path d="M47.8583 7.73852C48.2189 7.73852 48.5242 7.56782 48.6805 7.28171H48.7214V7.69524H49.2167V4.05518H48.6998V5.49293H48.6613C48.5194 5.20442 48.2165 5.03371 47.8583 5.03371C47.1971 5.03371 46.7715 5.55785 46.7715 6.38492C46.7715 7.21439 47.1923 7.73852 47.8583 7.73852ZM48.0049 5.49774C48.4377 5.49774 48.7094 5.84155 48.7094 6.38732C48.7094 6.93549 48.4401 7.2745 48.0049 7.2745C47.5673 7.2745 47.3053 6.9403 47.3053 6.38492C47.3053 5.83434 47.5697 5.49774 48.0049 5.49774Z" fill="white"/>
<path d="M52.5687 7.74573C53.3333 7.74573 53.8021 7.23362 53.8021 6.38492C53.8021 5.54102 53.3309 5.0265 52.5687 5.0265C51.8042 5.0265 51.3329 5.54102 51.3329 6.38492C51.3329 7.23362 51.8017 7.74573 52.5687 7.74573ZM52.5687 7.28652C52.1191 7.28652 51.8667 6.95713 51.8667 6.38492C51.8667 5.81751 52.1191 5.48572 52.5687 5.48572C53.0159 5.48572 53.2708 5.81751 53.2708 6.38492C53.2708 6.95473 53.0159 7.28652 52.5687 7.28652Z" fill="white"/>
<path d="M54.4864 7.69524H55.0033V6.16372C55.0033 5.755 55.2461 5.50014 55.6284 5.50014C56.0107 5.50014 56.1934 5.70931 56.1934 6.13006V7.69524H56.7103V6.00023C56.7103 5.37753 56.3881 5.0265 55.8039 5.0265C55.4096 5.0265 55.1499 5.20201 55.0225 5.49293H54.984V5.07699H54.4864V7.69524Z" fill="white"/>
<path d="M59.091 4.42543V5.08901H58.6751V5.52419H59.091V7.00281C59.091 7.50771 59.3194 7.70967 59.894 7.70967C59.995 7.70967 60.0912 7.69765 60.1753 7.68322V7.25286C60.1032 7.26007 60.0575 7.26488 59.9782 7.26488C59.7209 7.26488 59.6079 7.14467 59.6079 6.87058V5.52419H60.1753V5.08901H59.6079V4.42543H59.091Z" fill="white"/>
<path d="M60.8692 7.69524H61.3861V6.16613C61.3861 5.76942 61.6218 5.50255 62.0449 5.50255C62.4104 5.50255 62.6051 5.71412 62.6051 6.13247V7.69524H63.122V6.00504C63.122 5.38233 62.7782 5.02891 62.2204 5.02891C61.8261 5.02891 61.5496 5.20442 61.4222 5.49774H61.3813V4.05518H60.8692V7.69524Z" fill="white"/>
<path d="M64.9868 5.46648C65.369 5.46648 65.6191 5.73336 65.6311 6.14449H64.3088C64.3376 5.73576 64.6045 5.46648 64.9868 5.46648ZM65.6287 6.98839C65.5325 7.19275 65.3186 7.30575 65.006 7.30575C64.5925 7.30575 64.3256 7.01483 64.3088 6.55562V6.52677H66.1576V6.34645C66.1576 5.52419 65.7177 5.0265 64.9892 5.0265C64.2511 5.0265 63.7822 5.55785 63.7822 6.39453C63.7822 7.23122 64.2414 7.74573 64.9916 7.74573C65.5902 7.74573 66.0086 7.45722 66.1264 6.98839H65.6287Z" fill="white"/>
</g>
<g id="Apple logo">
<path d="M19.7952 10.9403C19.8078 9.96651 20.3307 9.0451 21.1604 8.53506C20.637 7.78759 19.7604 7.31367 18.8483 7.28514C17.8756 7.18303 16.9325 7.86723 16.4368 7.86723C15.9315 7.86723 15.1683 7.29528 14.3465 7.31219C13.2752 7.3468 12.2765 7.95585 11.7553 8.89241C10.635 10.8321 11.4707 13.6828 12.5439 15.2507C13.0808 16.0185 13.7083 16.8761 14.5295 16.8457C15.333 16.8123 15.6331 16.3333 16.603 16.3333C17.5639 16.3333 17.8454 16.8457 18.6832 16.8263C19.5454 16.8123 20.0886 16.0552 20.6067 15.2801C20.9925 14.7331 21.2894 14.1285 21.4863 13.4887C20.4731 13.0601 19.7964 12.0404 19.7952 10.9403Z" fill="white"/>
<path d="M18.2128 6.25401C18.6829 5.68966 18.9145 4.96429 18.8584 4.23193C18.1402 4.30737 17.4768 4.65063 17.0003 5.19333C16.5344 5.72357 16.292 6.43618 16.3378 7.14054C17.0563 7.14794 17.7626 6.81398 18.2128 6.25401Z" fill="white"/>
</g>
</g>
</g>
</svg>
