<svg width="305" height="261" viewBox="0 0 305 261" fill="none" xmlns="http://www.w3.org/2000/svg">
<path d="M30.6353 190.467C41.4724 193.37 50.2184 196.345 49.7331 209.496C48.958 230.675 62.0795 241.712 75.7193 245.458C88.9041 249.074 121.081 252.058 133.842 237.037C134.294 236.517 134.718 235.958 135.119 235.38C131.744 235.34 118.429 249.583 109.03 218.799C99.6302 188.015 89.0426 204.424 75.5495 193.556C62.0564 182.687 80.4037 168.044 72.202 136.659C69.9517 128.073 57.6517 117.585 49.1116 116.117C41.718 114.845 33.983 116.851 27.1508 120.781C27.0128 120.864 26.8748 120.947 26.7354 121.019C17.7849 126.305 10.4161 134.895 7.44644 143.757C1.14767 162.598 10.3546 185.026 30.6353 190.467Z" fill="#50CD89"/>
<path opacity="0.4" d="M30.6354 190.467C41.4725 193.37 50.2185 196.345 49.7331 209.496C48.9581 230.675 62.0796 241.712 75.7194 245.458C88.9042 249.074 121.081 252.058 133.842 237.037C127.954 240.071 120.679 242.632 114.17 242.764C104.876 242.957 95.4726 237.203 89.2245 230.655C84.0693 225.238 80.3634 218.642 75.2653 213.175C71.729 209.381 66.8658 207.273 63.2977 203.559C59.829 199.948 57.2837 195.369 55.0141 190.933C52.1759 185.381 50.7858 179.343 50.3021 173.149C48.9891 156.201 55.0936 132.971 35.9627 124.003C33.0466 122.642 29.9279 121.671 26.7341 121.009C17.7835 126.295 10.4148 134.884 7.44511 143.747C1.14776 162.598 10.3547 185.026 30.6354 190.467Z" fill="white"/>
<path d="M270.461 36.7676C264.11 47.6931 245.419 54.128 252.382 69.6711C254.4 74.183 257.475 78.6103 257.781 83.6821C258.098 88.8807 253.703 92.5261 250.755 96.256C247.659 100.155 245.408 104.244 245.049 109.295C244.51 116.765 249.413 121.964 252.931 127.987C257.01 134.939 253.935 139.282 248.736 144.449C237.599 155.512 244.679 172.672 243.062 186.292C241.467 199.764 234.43 209.855 221.792 215.053C215.653 217.579 209.07 218.9 202.498 219.703C197.437 220.315 191.858 219.903 186.617 220.284L186.606 220.294C185.856 220.347 185.116 220.516 184.387 220.516C183.479 220.516 182.581 220.78 181.714 220.971C190.167 219.111 207.507 196.974 204.791 184.876C202.065 172.767 195.102 163.997 203.365 152.11C211.617 140.223 203.28 139.176 195.408 126.465C187.536 113.754 186.332 103.462 197.395 97.133C208.458 90.8144 207.813 90.751 199.645 59.7493C191.467 28.7371 221.433 5.1108 239.597 0.683505C244.246 -0.447093 251.515 0.271418 255.837 2.34242C256.608 2.71224 257.348 3.12433 258.077 3.58925C261.004 5.43836 263.614 8.01654 265.79 10.9857C270.915 17.97 275.237 28.5364 270.461 36.7676Z" fill="#50CD89"/>
<path opacity="0.3" d="M270.461 36.7675C264.11 47.6931 245.418 54.128 252.382 69.6711C254.4 74.1829 257.475 78.6102 257.781 83.682C258.098 88.8807 253.702 92.5261 250.754 96.256C247.658 100.155 245.408 104.244 245.049 109.295C244.51 116.765 249.412 121.964 252.931 127.987C257.01 134.939 253.935 139.282 248.736 144.449C237.599 155.512 244.679 172.672 243.062 186.292C241.467 199.764 234.429 209.855 221.792 215.053C215.653 217.579 209.07 218.899 202.498 219.703C197.437 220.315 191.858 219.903 186.617 220.284C189.882 219.703 193.326 218.086 196.042 216.702C204.822 212.243 213.899 206.621 218.474 197.555C220.873 192.811 219.531 190.518 217.534 185.742C214.47 178.367 213.212 170.284 216.953 162.782C220.63 155.427 226.431 148.38 226.219 139.736C225.892 126.423 208.584 117.294 217.227 103.526C222.511 95.1148 232.411 89.652 233.964 79.0329C235.021 71.8477 230.478 65.8778 228.28 59.4006C225.945 52.5113 225.892 45.0621 227.107 37.9403C230.657 17.1775 245.123 7.80515 258.056 3.57861C260.983 5.42772 263.592 8.00591 265.769 10.9751C270.915 17.97 275.237 28.5363 270.461 36.7675Z" fill="#96E1B8"/>
<path d="M283.933 143.593C273.588 147.936 265.325 152.068 267.587 165.032C271.221 185.912 259.715 198.623 246.708 204.181C234.134 209.548 202.656 216.86 187.98 203.705C187.462 203.251 186.965 202.754 186.49 202.236C189.829 201.74 204.949 214.05 210.095 182.277C215.241 150.504 227.952 165.328 239.85 152.733C251.748 140.138 231.587 128.114 235.465 95.9074C236.532 87.0951 247.299 75.0389 255.562 72.429C262.716 70.1678 270.651 71.1082 277.952 74.0774C278.1 74.1408 278.248 74.2042 278.396 74.257C287.98 78.2828 296.443 85.7954 300.585 94.1745C309.377 111.989 303.29 135.457 283.933 143.593Z" fill="#50CD89"/>
<path opacity="0.3" d="M283.933 143.593C273.588 147.936 265.325 152.068 267.587 165.033C271.221 185.912 259.715 198.623 246.707 204.181C234.133 209.549 202.656 216.86 187.98 203.705C194.224 205.914 201.779 207.467 208.246 206.717C217.481 205.65 226.019 198.676 231.323 191.343C235.697 185.278 238.476 178.24 242.787 172.133C245.778 167.896 250.311 165.149 253.343 160.986C256.291 156.939 258.193 152.057 259.841 147.355C261.902 141.47 262.462 135.299 262.103 129.096C261.109 112.127 251.917 89.9376 269.658 78.4625C272.363 76.7191 275.321 75.3349 278.396 74.2466C287.98 78.2724 296.443 85.785 300.585 94.1641C309.376 111.99 303.29 135.457 283.933 143.593Z" fill="#96E1B8"/>
<path d="M264.956 151.581C264.956 204.329 222.215 249.045 167.682 251.539C111.047 254.128 63.498 210.51 63.498 154.012C63.498 97.5135 111.036 52.7545 167.682 53.9802C222.204 55.153 264.956 98.8343 264.956 151.581Z" fill="url(#paint0_linear_13754_47979)"/>
<path d="M271.285 151.581C271.285 204.329 228.544 249.045 174.011 251.539C117.376 254.128 69.8274 210.51 69.8274 154.012C69.8274 97.5135 117.365 52.7545 174.011 53.9802C228.544 55.153 271.285 98.8343 271.285 151.581Z" fill="url(#paint1_linear_13754_47979)"/>
<path d="M265.262 151.655C265.262 201.359 224.941 243.403 173.61 245.654C120.408 247.978 75.8501 206.949 75.8501 153.948C75.8501 100.947 120.408 58.8406 173.61 59.8761C224.952 60.8694 265.262 101.951 265.262 151.655Z" fill="url(#paint2_linear_13754_47979)"/>
<g opacity="0.5">
<path opacity="0.3" d="M130.108 110.341C126.759 99.4259 126.917 82.8473 143.242 58.3545C101.114 70.4952 69.8169 108.693 69.8169 154.403C69.8169 210.89 117.355 254.519 174.001 251.93C194.88 250.979 214.005 243.847 229.633 232.541C229.147 217.473 225.871 200.979 216.657 185.774C191.309 143.931 140.622 144.597 130.108 110.341Z" fill="url(#paint3_linear_13754_47979)"/>
</g>
<mask id="mask0_13754_47979" style="mask-type:luminance" maskUnits="userSpaceOnUse" x="24" y="15" width="220" height="163">
<path d="M156.989 15.1699C62.1031 15.1699 51.3677 96.2243 51.3677 96.2243H24.1594V103.589L77.6568 177.162L143.02 91.7548H117.27L153.703 49.0456C153.703 49.0456 195.577 56.5266 210.021 61.3765C228.703 68.2658 243.39 83.8828 243.39 83.8828C243.39 83.8828 228.808 15.1699 156.989 15.1699Z" fill="white"/>
</mask>
<g mask="url(#mask0_13754_47979)">
<path d="M241.393 98.2V98.5065C238.561 94.8294 233.489 89.7153 230.457 86.7461C230.404 86.6193 230.309 86.482 230.246 86.3552C228.555 82.4879 226.262 78.2931 223.282 74.1088C220.313 69.9139 216.552 65.7825 212.156 61.9892C211.628 61.4926 211.025 61.0594 210.465 60.5944C210.18 60.3725 209.884 60.1295 209.599 59.9076L209.176 59.5589C209.028 59.4427 208.87 59.337 208.722 59.2314C208.12 58.7982 207.517 58.3544 206.915 57.9106L206.461 57.583L205.985 57.2766C205.668 57.0653 205.351 56.8645 205.034 56.6532C203.787 55.7973 202.446 55.0471 201.135 54.2652C200.47 53.8848 199.772 53.5361 199.085 53.1769C198.747 52.9972 198.409 52.807 198.06 52.638C197.712 52.4689 197.353 52.2999 197.004 52.1414C191.393 49.4469 185.265 47.4922 178.988 46.4144C178.206 46.2876 177.414 46.1714 176.621 46.0446C175.829 45.9389 175.036 45.8755 174.244 45.791L173.05 45.6642L171.856 45.6008L170.662 45.5268C170.26 45.5057 169.869 45.474 169.468 45.474C168.675 45.474 167.883 45.4634 167.091 45.4634C166.9 45.4634 166.689 45.4529 166.509 45.4634L165.981 45.4951L164.924 45.548L163.868 45.6008C163.773 45.6008 163.709 45.6008 163.593 45.6114L162.515 45.6853L161.068 45.7804L159.99 45.8544L159.81 45.865H159.747C159.747 45.865 159.367 45.865 160.001 45.8755L157.665 46.2031C157.285 46.2559 156.894 46.2982 156.514 46.3721L155.372 46.594L154.231 46.8054L153.661 46.911C153.471 46.9427 153.28 46.9956 153.101 47.0378C152.35 47.2174 151.6 47.3971 150.861 47.5767C150.48 47.6507 150.121 47.7775 149.762 47.8831L148.673 48.2107L147.585 48.5277L146.518 48.8975C145.81 49.1511 145.091 49.373 144.405 49.6477C143.718 49.9224 143.02 50.1972 142.344 50.4824C136.902 52.7859 132.01 55.7656 127.858 59.1574L127.076 59.7808L126.336 60.4465C125.84 60.8903 125.332 61.3024 124.867 61.7567C124.846 61.7673 124.836 61.799 124.815 61.8096C123.895 62.7077 122.976 63.553 122.152 64.4934C121.93 64.7259 121.719 64.9478 121.507 65.1802L121.18 65.5183L120.884 65.8776C120.482 66.3425 120.091 66.818 119.69 67.2829C119.595 67.3992 119.489 67.5048 119.394 67.6316L119.119 67.9909C118.929 68.2339 118.75 68.4769 118.57 68.7094C118.211 69.1954 117.83 69.6392 117.503 70.1464C114.798 73.9926 112.748 77.8493 111.343 81.5264C109.927 85.1929 109.092 88.6269 108.616 91.67C108.564 92.0504 108.511 92.4202 108.458 92.7901C108.416 93.1599 108.342 93.5191 108.321 93.8678C108.257 94.5863 108.204 95.2626 108.141 95.9177C108.099 96.5834 108.099 97.2174 108.067 97.8091C108.056 98.1049 108.035 98.4008 108.035 98.6861C108.046 98.9714 108.056 99.2567 108.056 99.5208C108.067 100.06 108.078 100.577 108.078 101.053C108.078 101.19 108.099 101.254 108.109 101.349C108.12 101.433 108.13 101.528 108.141 101.613C108.162 101.782 108.183 101.761 108.194 101.909C108.204 102.036 108.225 102.099 108.236 102.099H134.863L118.686 119.174L81.0805 158.333L27.2979 102.099H55.5734C55.6156 102.099 55.6579 101.634 55.7002 101.275C55.8058 100.493 55.9221 99.7322 56.0594 98.8023C56.1334 98.3374 56.1968 97.9042 56.2708 97.4076C56.313 97.1645 56.3447 96.9321 56.387 96.6785C56.4187 96.4249 56.4609 96.1607 56.5138 95.9388C56.7145 95.009 56.9153 94.0263 57.1372 92.9803C57.2534 92.4625 57.3697 91.9342 57.4859 91.3848C57.6127 90.8353 57.7712 90.2859 57.9191 89.7153C58.2255 88.5741 58.5214 87.3907 58.9018 86.1544C59.3033 84.9287 59.7154 83.6713 60.138 82.3505C60.3494 81.6848 60.6135 81.0403 60.8671 80.3641C61.1207 79.6984 61.3849 79.0221 61.649 78.3248C63.8468 72.8408 66.8371 66.8603 70.8523 60.8586C74.8464 54.8463 79.9288 48.8552 85.9622 43.3079C86.6912 42.6 87.5049 41.9448 88.2868 41.258C88.6883 40.9199 89.0792 40.5818 89.4702 40.2437L90.0725 39.7365L90.6853 39.2504C91.5095 38.6059 92.3548 37.9613 93.1895 37.3062L93.8235 36.8202L94.4786 36.3552C94.9224 36.0383 95.3556 35.7318 95.7994 35.4254C97.5217 34.168 99.3814 33.0269 101.231 31.8646C102.16 31.294 103.122 30.7657 104.083 30.2162C104.559 29.9415 105.034 29.6773 105.52 29.4026C106.017 29.149 106.503 28.8954 107 28.6418C114.872 24.5421 123.568 21.425 132.591 19.5548C133.722 19.3434 134.853 19.1321 135.983 18.9208C137.114 18.72 138.266 18.5827 139.407 18.4136L141.118 18.1811L142.841 18.0227L144.563 17.8642C145.134 17.8113 145.704 17.7479 146.285 17.7374C147.437 17.6845 148.589 17.5577 149.741 17.5049C150.026 17.4943 150.311 17.3887 150.607 17.3887H151.473L153.196 17.4838L154.918 17.5366C155.489 17.5366 156.07 17.6106 156.64 17.6317L160.053 17.8325C160.825 17.843 160.318 17.8536 160.518 17.8536L160.603 17.8642L160.782 17.8853L161.142 17.9276L161.86 18.0121L163.287 18.1811L164.005 18.2657L164.364 18.3079L164.808 18.3608L166.615 18.6144L168.422 18.8785L169.32 19.0159C169.616 19.0582 169.88 19.1216 170.165 19.1744C171.264 19.3963 172.374 19.6287 173.473 19.8401C174.022 19.9457 174.561 20.0937 175.11 20.231L176.738 20.6431L178.354 21.0552L179.95 21.5412C181.006 21.8688 182.074 22.1752 183.109 22.5345C184.145 22.9043 185.18 23.2741 186.216 23.6439C194.394 26.7399 201.864 30.8713 208.278 35.679C208.68 35.9749 209.081 36.2707 209.483 36.5771C209.874 36.8836 210.265 37.2006 210.645 37.5175C211.416 38.141 212.188 38.7432 212.927 39.3772C214.385 40.6875 215.844 41.9343 217.175 43.2868C217.513 43.6143 217.851 43.9524 218.189 44.28L218.686 44.7766L219.161 45.2838C219.795 45.9706 220.419 46.6469 221.042 47.3231L221.507 47.8303L221.951 48.3586C222.236 48.7073 222.532 49.056 222.817 49.4047C223.388 50.1021 223.99 50.7677 224.508 51.4863C227.435 55.2584 229.918 59.0729 231.978 62.8451C232.982 64.673 233.88 66.4905 234.662 68.2973C237.103 73.7918 238.667 79.0116 239.65 83.6713C239.755 84.2525 239.871 84.8336 239.988 85.3936C240.093 85.9537 240.22 86.5031 240.284 87.0526C240.442 88.1514 240.59 89.1975 240.727 90.2119C240.844 91.2263 240.918 92.2089 241.002 93.1388C241.034 93.6037 241.087 94.0475 241.118 94.5018C241.139 94.9456 241.235 95.3683 241.256 95.7909C241.245 96.6468 241.393 97.4498 241.393 98.2Z" fill="url(#paint4_linear_13754_47979)"/>
<path opacity="0.4" d="M241.393 98.2004V98.5068C238.561 94.8297 233.489 89.7156 230.457 86.7465C230.404 86.6197 230.309 86.4823 230.245 86.3555C228.555 82.4882 226.262 78.2934 223.282 74.1091C220.313 69.9143 216.551 65.7829 212.156 61.9895C211.627 61.4929 211.025 61.0597 210.465 60.5948C210.18 60.3729 209.884 60.1299 209.599 59.908L209.176 59.5593C209.028 59.4431 208.87 59.3374 208.722 59.2317C208.119 58.7985 207.517 58.3547 206.915 57.9109L206.461 57.5834L205.985 57.2769C205.668 57.0656 205.351 56.8649 205.034 56.6535C203.787 55.7977 202.445 55.0475 201.135 54.2655C200.469 53.8852 199.772 53.5365 199.085 53.1772C198.747 52.9976 198.409 52.8074 198.06 52.6383C197.712 52.4693 197.352 52.3002 197.004 52.1417C191.393 49.4473 185.264 47.4925 178.988 46.4148C178.206 46.288 177.414 46.1717 176.621 46.0449C175.829 45.9393 175.036 45.8759 174.244 45.7913L173.05 45.6645L171.856 45.6011L170.662 45.5272C170.26 45.506 169.869 45.4743 169.468 45.4743C168.675 45.4743 167.883 45.4638 167.09 45.4638C166.9 45.4638 166.689 45.4532 166.509 45.4638L165.981 45.4955L164.924 45.5483L163.868 45.6011C163.773 45.6011 163.709 45.6011 163.593 45.6117L162.515 45.6857L161.068 45.7808L159.99 45.8547L159.81 45.8653H159.747C159.747 45.8653 159.366 45.8653 160 45.8759L157.665 46.2034C157.285 46.2563 156.894 46.2985 156.513 46.3725L155.372 46.5944L154.231 46.8057L153.661 46.9114C153.47 46.9431 153.28 46.9959 153.101 47.0382C152.35 47.2178 151.6 47.3974 150.86 47.5771C150.48 47.651 150.121 47.7778 149.762 47.8835L148.673 48.211L147.585 48.528L146.518 48.8978C145.81 49.1514 145.091 49.3733 144.404 49.6481C143.718 49.9228 143.02 50.1975 142.344 50.4828C136.902 52.7863 132.01 55.766 127.858 59.1578L127.076 59.7812L126.336 60.4468C125.839 60.8906 125.332 61.3027 124.867 61.7571C124.846 61.7676 124.836 61.7993 124.814 61.8099C136.765 47.725 156.123 38.564 177.974 38.564C200.353 38.564 220.133 48.1688 231.999 62.8454C233.003 64.6734 233.901 66.4908 234.683 68.2976C237.124 73.7921 238.688 79.0119 239.671 83.6717C239.776 84.2528 239.892 84.834 240.009 85.394C240.114 85.954 240.241 86.5034 240.305 87.0529C240.463 88.1518 240.611 89.1979 240.748 90.2122C240.865 91.2266 240.939 92.2093 241.023 93.1391C241.055 93.604 241.108 94.0478 241.139 94.5022C241.16 94.9459 241.256 95.3686 241.277 95.7913C241.245 96.6471 241.393 97.4502 241.393 98.2004Z" fill="url(#paint5_linear_13754_47979)"/>
</g>
<path d="M170.641 81.8328C173.198 82.0759 175.258 84.3687 175.258 86.9681V95.8121C180.362 96.3827 185.465 97.2703 190.59 98.4748C194.362 99.3624 198.113 100.419 201.833 101.645C204.062 102.374 205.584 104.635 205.351 106.949L204.263 118.044C203.978 120.981 201.061 122.714 198.325 121.488C195.873 120.4 193.358 119.46 190.78 118.678C186.29 117.315 181.545 116.427 176.558 116.015L175.258 115.909V141.237C188.572 144.956 198.346 149.975 204.664 156.273C210.951 162.549 214.079 170.358 214.079 179.741C214.079 189.884 210.613 198.01 203.661 204.138C196.666 210.298 186.871 213.764 174.191 214.514V224.278C174.191 226.866 172.12 228.885 169.574 228.789H169.489C166.932 228.684 164.851 226.497 164.851 223.897V214.271L162.79 214.176C156.852 213.912 151.157 213.299 145.715 212.359C141.689 211.661 137.758 210.753 133.912 209.643C131.588 208.978 130.003 206.759 130.214 204.392L131.493 190.138C131.767 187.052 134.863 185.267 137.801 186.418C141.214 187.771 144.679 188.902 148.177 189.821C153.629 191.258 159.166 192.177 164.766 192.589L164.851 164.409C152.076 161.249 142.503 156.569 136.226 150.366C129.908 144.132 126.748 136.154 126.748 126.465C126.748 116.427 130.182 108.682 137.029 103.251C143.845 97.8408 153.523 95.1464 166.013 95.157V86.1122C166.013 83.5023 168.084 81.5898 170.641 81.8328ZM166.013 115.645C162.061 115.93 158.986 117.019 156.778 118.9C154.569 120.791 153.46 123.316 153.46 126.507C153.46 129.519 154.485 132.044 156.524 134.062C158.564 136.08 161.723 137.697 166.002 138.902V115.645H166.013ZM174.202 166.67V192.505C178.492 192.515 181.788 191.49 184.081 189.43C186.374 187.38 187.526 184.474 187.526 180.734C187.526 177.321 186.459 174.478 184.324 172.228C182.19 169.977 178.819 168.118 174.202 166.67Z" fill="white"/>
<defs>
<linearGradient id="paint0_linear_13754_47979" x1="93.2899" y1="288.251" x2="245.22" y2="-2.18541" gradientUnits="userSpaceOnUse">
<stop stop-color="#FCB148"/>
<stop offset="0.0520724" stop-color="#FDBA46"/>
<stop offset="0.1424" stop-color="#FFC244"/>
<stop offset="0.3183" stop-color="#FFC444"/>
<stop offset="0.4849" stop-color="#FDB946"/>
<stop offset="0.7754" stop-color="#F99C4D"/>
<stop offset="0.8658" stop-color="#F8924F"/>
<stop offset="1" stop-color="#F8924F"/>
</linearGradient>
<linearGradient id="paint1_linear_13754_47979" x1="0.274881" y1="478.169" x2="152.205" y2="187.732" gradientUnits="userSpaceOnUse">
<stop stop-color="#FCB148"/>
<stop offset="0.0520724" stop-color="#FDBA46"/>
<stop offset="0.1424" stop-color="#FFC244"/>
<stop offset="0.3183" stop-color="#FFC444"/>
<stop offset="0.4849" stop-color="#FDB946"/>
<stop offset="0.7754" stop-color="#F99C4D"/>
<stop offset="0.8658" stop-color="#F8924F"/>
<stop offset="1" stop-color="#F8924F"/>
</linearGradient>
<linearGradient id="paint2_linear_13754_47979" x1="223.959" y1="93.6226" x2="-40.4851" y2="386.159" gradientUnits="userSpaceOnUse">
<stop stop-color="#FCB148"/>
<stop offset="0.0520724" stop-color="#FDBA46"/>
<stop offset="0.1424" stop-color="#FFC244"/>
<stop offset="0.3183" stop-color="#FFC444"/>
<stop offset="0.4849" stop-color="#FDB946"/>
<stop offset="0.7754" stop-color="#F99C4D"/>
<stop offset="0.8658" stop-color="#F8924F"/>
<stop offset="1" stop-color="#F8924F"/>
</linearGradient>
<linearGradient id="paint3_linear_13754_47979" x1="69.8282" y1="155.193" x2="229.636" y2="155.193" gradientUnits="userSpaceOnUse">
<stop stop-color="#FCB148"/>
<stop offset="0.0520724" stop-color="#FDBA46"/>
<stop offset="0.1424" stop-color="#FFC244"/>
<stop offset="0.3183" stop-color="#FFC444"/>
<stop offset="0.4849" stop-color="#FDB946"/>
<stop offset="0.7754" stop-color="#F99C4D"/>
<stop offset="0.8658" stop-color="#F8924F"/>
<stop offset="1" stop-color="#F8924F"/>
</linearGradient>
<linearGradient id="paint4_linear_13754_47979" x1="-7.85507" y1="8.38094" x2="364.206" y2="48.3513" gradientUnits="userSpaceOnUse">
<stop stop-color="#1D425B"/>
<stop offset="1" stop-color="#7FACD6"/>
</linearGradient>
<linearGradient id="paint5_linear_13754_47979" x1="171.551" y1="95.9629" x2="209.479" y2="43.9824" gradientUnits="userSpaceOnUse">
<stop stop-color="#AA80F9"/>
<stop offset="0.9964" stop-color="#6165D7"/>
</linearGradient>
</defs>
</svg>
