<svg width="282" height="261" viewBox="0 0 282 261" fill="none" xmlns="http://www.w3.org/2000/svg">
<g clip-path="url(#clip0_12521_46335)">
<path d="M141 261C218.872 261 282 257.323 282 252.787C282 248.251 218.872 244.574 141 244.574C63.1278 244.574 0 248.251 0 252.787C0 257.323 63.1278 261 141 261Z" fill="#F0F6FF"/>
<path d="M117.73 93.9772C117.512 94.2679 117.439 94.486 117.221 94.6313C117.076 94.8494 116.93 95.0674 116.785 95.2128C116.494 95.5762 116.203 95.9396 115.84 96.303C115.185 97.0298 114.531 97.7567 113.876 98.4108C112.495 99.7191 111.04 100.955 109.513 102.045C107.986 103.135 106.386 104.153 104.641 105.025C103.768 105.461 102.968 105.897 102.096 106.188L100.787 106.697L100.423 106.842C100.205 106.915 100.06 106.987 99.8416 107.06C99.4053 107.133 98.969 107.205 98.5327 107.205C97.5874 107.205 96.7148 106.915 96.0603 106.551C95.4058 106.188 94.8241 105.752 94.3878 105.316C93.5152 104.443 92.8607 103.571 92.3517 102.699C91.3336 100.955 90.6065 99.2103 90.0247 97.4659C88.8612 93.9772 88.0613 90.4885 87.5523 86.9271L90.6065 86.2729C91.1882 87.8719 91.6972 89.5436 92.3517 91.0699C92.9334 92.6689 93.5879 94.2679 94.3151 95.7216C95.0422 97.1752 95.7694 98.7015 96.642 99.8644C97.0783 100.446 97.5147 100.955 97.951 101.318C98.1691 101.463 98.3146 101.536 98.3873 101.609C98.46 101.609 98.46 101.609 98.46 101.609H98.3873L98.6054 101.463L99.6962 100.955C100.423 100.591 101.078 100.155 101.805 99.7917C103.187 98.9923 104.496 98.0474 105.804 97.1025C107.041 96.085 108.277 95.0674 109.368 93.9045C109.949 93.3231 110.458 92.7416 110.967 92.1602C111.186 91.8694 111.476 91.5787 111.695 91.288L112.058 90.8519L112.349 90.4885L117.73 93.9772Z" fill="#CE7A63"/>
<path d="M108.931 93.6865L112.567 102.481L109.949 104.153L105.805 96.1577L108.931 93.6865Z" fill="#14365B"/>
<path d="M119.33 86.2002C113.294 86.1275 107.186 93.7591 107.041 93.9045L111.767 105.097C111.767 105.097 122.311 96.521 122.893 93.1777C123.475 89.6889 123.184 86.2729 119.33 86.2002Z" fill="#252947"/>
<path d="M90.0974 85.2556L85.9525 82.0576L85.0799 88.4536C85.0799 88.4536 89.1521 90.0526 91.2609 88.6717L91.1882 87.5087C91.1882 86.5639 90.8246 85.7644 90.0974 85.2556Z" fill="#CE7A63"/>
<path d="M80.426 81.6938L80.6441 86.5635L85.0799 88.3806L85.9525 82.0573L80.426 81.6938Z" fill="#CE7A63"/>
<path d="M171.469 84.7468L177.868 83.1478L173.359 78.5688C173.359 78.5688 169.215 80.2405 170.233 83.8746L171.469 84.7468Z" fill="#CE7A63"/>
<path d="M181.14 81.9848L180.631 76.9697L173.432 78.5687L177.941 83.1477L181.14 81.9848Z" fill="#CE7A63"/>
<path d="M150.599 246.391L144.563 246.972L139.618 232.872L145.581 232.291L150.599 246.391Z" fill="#CE7A63"/>
<path d="M214.663 216.737L210.227 221.025L198.883 212.158L203.319 207.87L214.663 216.737Z" fill="#CE7A63"/>
<path d="M208.919 220.153L212.336 214.12C212.482 213.902 212.7 213.83 212.918 213.902L218.081 215.865C218.59 216.083 218.808 216.737 218.517 217.246C217.281 219.353 216.627 220.226 215.1 222.915C214.154 224.514 212.409 228.293 211.1 230.546C209.864 232.727 207.537 231.637 207.9 230.619C209.355 225.895 209.137 223.278 208.7 221.243C208.7 220.88 208.773 220.516 208.919 220.153Z" fill="#14365B"/>
<path d="M143.4 245.155H150.671C150.962 245.155 151.18 245.373 151.253 245.591L152.853 251.333C152.998 251.915 152.562 252.496 151.98 252.496C149.435 252.423 148.199 252.278 144.999 252.278C143.036 252.278 136.637 252.496 133.874 252.496C131.183 252.496 130.674 249.807 131.765 249.589C136.71 248.499 140.855 246.972 142.382 245.519C142.672 245.301 143.036 245.155 143.4 245.155Z" fill="#14365B"/>
<path d="M139.618 232.872L142.163 240.14H148.344L145.581 232.291L139.618 232.872Z" fill="#BC6753"/>
<path d="M203.319 207.87L198.883 212.158L204.774 216.737L209.137 212.449L203.319 207.87Z" fill="#BC6753"/>
<path d="M113.513 88.1629C113.513 88.1629 111.04 90.0526 127.693 122.541C137.146 119.489 146.89 116.363 151.471 114.91C147.981 105.388 146.017 99.4286 144.2 78.1328C144.2 78.1328 138.891 78.6416 133.655 80.0225C126.602 81.9123 123.257 83.2932 122.893 83.5113C118.385 85.401 113.513 88.1629 113.513 88.1629Z" fill="#252947"/>
<path d="M128.711 68.1753C129.147 71.8821 130.529 78.4234 133.728 79.9497C133.728 79.9497 133.946 83.8019 127.474 85.8369C120.421 88.0901 122.966 83.4385 122.966 83.4385C126.529 81.258 125.511 78.4234 123.984 75.9522L128.711 68.1753Z" fill="#CE7A63"/>
<path d="M116.785 86.4186C118.53 85.4738 120.784 84.3835 122.893 83.5113C126.311 82.0577 129.656 81.1128 133.655 80.0226C135.764 79.4412 137.8 79.0051 139.618 78.7144C139.764 79.2231 139.255 80.4587 138.019 82.2758C134.164 85.4737 125.802 89.6893 119.694 89.5439C117.076 88.5264 116.421 87.4362 116.785 86.4186Z" fill="#CE7A63"/>
<path d="M138.019 82.2759C136.346 84.6744 133.292 88.0177 128.638 91.5791C124.42 90.925 121.584 90.2709 119.694 89.544C125.875 89.6894 134.164 85.4739 138.019 82.2759Z" fill="#14365B"/>
<path d="M126.747 71.373L123.911 75.952C124.275 76.5334 124.638 77.1149 124.857 77.769C126.238 77.0422 128.056 75.0071 127.693 73.4081C127.547 72.6813 126.965 71.6638 126.747 71.373Z" fill="#BC6753"/>
<path d="M130.165 61.3431C130.529 67.4483 130.819 69.9922 128.129 73.4809C124.129 78.714 116.567 77.8418 114.385 71.9546C112.422 66.7215 112.131 57.6363 117.803 54.511C123.257 51.4584 129.801 55.3105 130.165 61.3431Z" fill="#CE7A63"/>
<path d="M142.103 50.4798C143.474 44.4521 139.697 38.4546 133.666 37.0841C127.635 35.7136 121.635 39.4891 120.263 45.5169C118.892 51.5447 122.67 57.5422 128.7 58.9126C134.731 60.2831 140.732 56.5076 142.103 50.4798Z" fill="#0F264C"/>
<path d="M128.42 52.8397C130.747 54.366 131.91 56.6918 130.965 58.0727C130.092 59.4537 127.474 59.3083 125.147 57.782C122.82 56.2557 121.657 53.9299 122.602 52.5489C123.475 51.2407 126.093 51.3133 128.42 52.8397Z" fill="#9FC6FF"/>
<path d="M127.184 65.5588C127.765 64.1779 125.656 60.035 126.165 58.436C124.929 57.3458 112.713 61.2706 113.731 58.3634C114.676 55.6014 117.657 51.8947 124.493 53.421C131.765 55.0927 132.419 61.3433 131.619 63.3784C130.819 65.4135 129.656 67.4486 129.656 67.4486L127.184 65.5588Z" fill="#0F264C"/>
<path d="M131.765 66.7219C131.765 67.9575 131.256 69.1204 130.529 69.8472C129.438 70.9374 128.129 70.1379 127.765 68.757C127.474 67.4487 127.693 65.3409 129.074 64.7595C130.383 64.178 131.692 65.2683 131.765 66.7219Z" fill="#CE7A63"/>
<path d="M127.693 122.541C127.693 122.541 116.712 176.18 122.821 193.915C129.22 212.303 139.618 238.032 139.618 238.032L149.29 237.451C149.29 237.451 141.291 204.962 139.327 190.281C136.637 170.075 148.199 115.854 148.199 115.854L127.693 122.541Z" fill="#9FC6FF"/>
<path d="M150.09 237.669L138.818 238.323L137 233.889L149.435 232.654L150.09 237.669Z" fill="#252947"/>
<path d="M139.327 126.684C137.655 132.935 139.037 142.238 142.236 148.852C143.036 143.764 143.836 138.822 144.636 134.388C142.963 131.263 141.218 128.428 139.327 126.684Z" fill="#77B3FC"/>
<path d="M133.946 120.506C133.946 120.506 150.308 159.536 161.143 180.977C169.869 198.348 202.228 216.446 202.228 216.446L208.046 210.268C208.046 210.268 183.831 188.754 177.795 177.052C158.452 139.403 162.452 122.977 151.399 114.837L133.946 120.506Z" fill="#9FC6FF"/>
<path d="M209.137 209.469L201.138 217.972L196.047 215.283L205.283 205.907L209.137 209.469Z" fill="#252947"/>
<path d="M151.326 113.383L153.071 115.127C153.217 115.273 153.071 115.491 152.78 115.564L127.911 123.631C127.693 123.704 127.474 123.631 127.402 123.559L126.529 121.523C126.456 121.378 126.602 121.233 126.82 121.087L150.89 113.31C151.035 113.238 151.253 113.31 151.326 113.383Z" fill="#14365B"/>
<path d="M148.999 117.09L149.653 116.872C149.799 116.799 149.872 116.727 149.799 116.654L148.635 113.965C148.635 113.892 148.49 113.892 148.344 113.892L147.69 114.11C147.545 114.183 147.472 114.256 147.545 114.328L148.708 117.017C148.708 117.09 148.854 117.163 148.999 117.09Z" fill="#9FC6FF"/>
<path d="M129.801 123.268L130.456 123.05C130.601 122.977 130.674 122.904 130.601 122.832L129.438 120.143C129.438 120.07 129.292 120.07 129.147 120.07L128.493 120.288C128.347 120.361 128.274 120.433 128.347 120.506L129.511 123.195C129.511 123.268 129.656 123.341 129.801 123.268Z" fill="#9FC6FF"/>
<path d="M139.4 120.216L140.055 119.998C140.2 119.925 140.273 119.852 140.2 119.779L139.037 117.09C139.037 117.018 138.891 117.018 138.746 117.018L138.091 117.236C137.946 117.308 137.873 117.381 137.946 117.454L139.109 120.143C139.109 120.216 139.255 120.216 139.4 120.216Z" fill="#9FC6FF"/>
<path d="M148.999 83.729L149.29 84.0924L149.653 84.5285C149.872 84.8192 150.162 85.1099 150.381 85.4006C150.89 85.9821 151.399 86.4909 151.98 86.9996C153.071 88.0899 154.235 89.1074 155.471 90.0523C156.707 90.9971 157.943 91.8693 159.325 92.6688C159.979 93.0322 160.634 93.4683 161.361 93.8317L162.379 94.3405L162.888 94.6312C163.034 94.7039 163.106 94.7766 163.252 94.7766C163.761 94.9946 164.124 94.9946 164.415 94.9946C164.706 94.9946 165.07 94.9219 165.433 94.6312C166.233 94.1224 167.033 92.9595 167.687 91.6513C168.342 90.343 168.851 88.8894 169.287 87.3631C169.724 85.8367 170.087 84.2377 170.378 82.7114L173.505 82.9295C173.505 86.4909 173.141 89.9069 171.978 93.4683C171.687 94.3405 171.251 95.2127 170.742 96.1575C170.233 97.0297 169.578 97.9746 168.706 98.7741C167.833 99.5736 166.597 100.228 165.215 100.446C163.906 100.664 162.524 100.518 161.434 100.155C161.143 100.082 160.852 100.01 160.634 99.8643L159.979 99.5736L158.743 99.0648C157.943 98.7014 157.143 98.338 156.343 97.9019C154.744 97.0297 153.217 96.0849 151.762 95.0673C150.308 93.9771 148.926 92.8869 147.617 91.6513C146.963 90.9971 146.308 90.343 145.727 89.6889C145.436 89.3255 145.145 88.9621 144.854 88.5986L144.418 88.0172C144.272 87.7991 144.127 87.6538 143.909 87.3631L148.999 83.729Z" fill="#CE7A63"/>
<path d="M154.162 87.5814L149.581 95.213L147.399 93.1052L151.544 85.4736L154.162 87.5814Z" fill="#14365B"/>
<path d="M144.2 78.0601C146.817 77.9874 153.144 85.5463 153.144 85.5463L147.617 95.1403C147.617 95.1403 140.564 88.9623 140.564 85.5463C140.636 81.9849 141.218 78.1328 144.2 78.0601Z" fill="#252947"/>
<path d="M207.755 223.423C207.537 223.423 207.391 223.351 207.173 223.205C206.955 223.06 206.955 222.842 206.955 222.769C207.028 221.97 208.991 220.952 209.209 220.807C209.282 220.807 209.355 220.807 209.355 220.807C209.355 220.807 209.427 220.879 209.427 220.952C209.209 221.752 208.7 223.06 207.973 223.351C207.9 223.423 207.828 223.423 207.755 223.423ZM209.064 221.243C208.264 221.679 207.319 222.333 207.246 222.769C207.246 222.842 207.246 222.914 207.319 222.987C207.464 223.132 207.682 223.132 207.828 223.132C208.337 222.987 208.773 222.26 209.064 221.243Z" fill="#252947"/>
<path d="M207.464 221.534C207.101 221.534 206.737 221.461 206.592 221.316C206.519 221.243 206.373 221.025 206.446 220.661C206.519 220.443 206.664 220.298 206.882 220.225C207.755 219.935 209.282 220.807 209.355 220.807C209.428 220.807 209.428 220.879 209.428 220.952C209.428 221.025 209.428 221.025 209.355 221.098C208.991 221.316 208.191 221.534 207.464 221.534ZM207.319 220.443C207.173 220.443 207.101 220.443 207.028 220.516C206.882 220.589 206.81 220.661 206.737 220.807C206.664 220.952 206.737 221.025 206.737 221.098C207.028 221.388 208.264 221.243 208.991 220.952C208.555 220.734 207.828 220.443 207.319 220.443Z" fill="#252947"/>
<path d="M140.127 246.318C139.546 246.318 139.037 246.245 138.673 245.955C138.455 245.809 138.309 245.518 138.309 245.228C138.309 245.01 138.382 244.864 138.528 244.864C139.182 244.428 141.654 245.519 142.163 245.809C142.236 245.809 142.236 245.882 142.236 245.955C142.236 246.027 142.163 246.1 142.091 246.1C141.654 246.173 140.855 246.318 140.127 246.318ZM138.964 245.082C138.818 245.082 138.746 245.082 138.673 245.155C138.673 245.155 138.6 245.228 138.6 245.3C138.6 245.518 138.673 245.664 138.891 245.809C139.473 246.245 140.855 246.1 141.654 245.955C140.782 245.518 139.618 245.082 138.964 245.082Z" fill="#252947"/>
<path d="M142.091 246.1C141.218 245.737 139.546 244.428 139.618 243.702C139.618 243.556 139.764 243.338 140.127 243.338C141.582 243.12 142.163 245.809 142.236 245.882C142.236 245.955 142.236 245.955 142.163 246.027C142.163 246.1 142.163 246.1 142.091 246.1ZM140.346 243.629H140.273C140.127 243.629 140.055 243.702 140.055 243.774C139.982 244.138 141.145 245.228 142.018 245.664C141.727 245.01 141.218 243.629 140.346 243.629Z" fill="#252947"/>
<path d="M75.1176 12.5737C73.8086 14.1727 66.755 16.0625 61.083 15.5537C59.1196 28.273 65.9551 42.9547 65.9551 42.9547C65.9551 42.9547 80.6441 41.2103 81.0804 35.1051C81.444 29.0725 75.1176 12.5737 75.1176 12.5737Z" fill="#3A4166"/>
<path d="M186.594 2.90723C187.903 4.72427 194.593 6.61399 199.756 5.66913C202.519 20.7142 197.429 38.6666 197.429 38.6666C197.429 38.6666 183.685 37.431 182.885 30.2355C182.086 22.9674 186.594 2.90723 186.594 2.90723Z" fill="#3A4166"/>
<path d="M90.0974 133.444C89.6611 133.516 89.2248 133.225 89.1521 132.789L71.8452 10.3207C71.7725 9.88465 72.0634 9.44856 72.4997 9.37588C72.936 9.3032 73.3723 9.59392 73.445 10.03L90.7519 132.499C90.8246 133.007 90.5337 133.371 90.0974 133.444Z" fill="#252947"/>
<path d="M172.414 124.359C172.85 124.431 173.287 124.141 173.359 123.704L190.594 1.23578C190.666 0.799688 190.375 0.363598 189.939 0.290916C189.503 0.218234 189.066 0.508961 188.994 0.945051L171.687 123.414C171.614 123.85 171.978 124.286 172.414 124.359Z" fill="#252947"/>
<path d="M71.1908 12.9373L74.4631 36.9949C74.5358 37.6491 75.1903 38.0852 75.8447 37.8671C83.1892 35.7594 123.839 25.3659 186.303 31.9799C186.885 32.0526 187.394 31.6892 187.467 31.1077C188.63 25.0025 190.666 7.70422 191.175 3.19795C191.248 2.6165 190.812 2.10773 190.23 2.03505C181.867 0.94482 124.638 -5.37849 71.9907 11.7017C71.4817 11.9198 71.1181 12.3558 71.1908 12.9373Z" fill="#525F93"/>
<path d="M81.7349 17.08L85.1526 16.3532L87.625 22.6765L88.2068 15.6991L91.6245 14.9723L94.6786 21.1502L94.7514 14.3181L98.1691 13.5913L97.7328 25.8745L94.1696 26.6013L90.7519 19.6239L90.0247 27.4735L86.4615 28.2003L81.7349 17.08Z" fill="white"/>
<path d="M99.8416 13.5186L109.659 12.0649L109.949 14.6088L103.841 15.481L104.059 17.3707L109.731 16.5712L110.022 18.9697L104.35 19.7692L104.641 22.095L110.967 21.1502L111.331 23.8394L101.369 25.293L99.8416 13.5186Z" fill="white"/>
<path d="M112.131 11.8473L115.84 11.4839L116.639 20.4964L122.384 19.8423L122.675 22.7495L113.294 23.7671L112.131 11.8473Z" fill="white"/>
<path d="M131.619 17.1526L134.892 17.8794C134.746 18.8243 134.383 19.5511 134.019 20.2053C133.583 20.8594 133.001 21.3682 132.347 21.7316C131.692 22.095 130.819 22.313 129.729 22.3857C128.42 22.4584 127.329 22.3857 126.529 22.0223C125.656 21.7316 124.929 21.0774 124.275 20.2053C123.62 19.2604 123.257 18.0975 123.184 16.6438C123.111 14.6814 123.548 13.0824 124.493 11.9922C125.511 10.8293 126.965 10.2479 128.856 10.1025C130.383 10.0298 131.547 10.2479 132.419 10.7566C133.292 11.3381 134.019 12.2103 134.455 13.4459L131.256 14.3907C131.11 14.0273 130.965 13.8093 130.892 13.5912C130.674 13.3005 130.383 13.1551 130.092 13.0098C129.801 12.8644 129.438 12.7917 129.074 12.8644C128.274 12.9371 127.62 13.3005 127.184 14.0273C126.893 14.5361 126.747 15.3356 126.82 16.4258C126.893 17.7341 127.111 18.6789 127.547 19.115C127.983 19.5511 128.565 19.7692 129.292 19.6965C130.02 19.6238 130.529 19.4058 130.892 18.9697C131.256 18.5336 131.474 17.9521 131.619 17.1526Z" fill="white"/>
<path d="M136.201 15.7719C136.201 13.8095 136.71 12.2832 137.8 11.1203C138.891 10.03 140.345 9.3759 142.309 9.30322C144.272 9.23054 145.799 9.73931 146.89 10.7569C147.981 11.7744 148.563 13.3007 148.563 15.1904C148.563 16.5714 148.344 17.7343 147.908 18.6792C147.472 19.624 146.745 20.2782 145.872 20.8596C144.999 21.3684 143.909 21.6591 142.527 21.7318C141.145 21.8045 140.055 21.5864 139.182 21.223C138.309 20.7869 137.582 20.1328 137 19.2606C136.491 18.3157 136.201 17.1528 136.201 15.7719ZM139.909 15.6265C139.909 16.8621 140.127 17.7343 140.636 18.2431C141.073 18.7518 141.727 18.9699 142.454 18.9699C143.254 18.9699 143.836 18.6792 144.272 18.0977C144.709 17.5889 144.927 16.6441 144.854 15.2631C144.854 14.1002 144.636 13.3007 144.127 12.7919C143.691 12.2832 143.036 12.0651 142.236 12.0651C141.509 12.0651 140.927 12.3558 140.418 12.9373C140.127 13.5188 139.909 14.4636 139.909 15.6265Z" fill="white"/>
<path d="M150.817 9.30322L155.689 9.3759L157.361 16.7168L159.398 9.44859L164.27 9.52127L163.906 21.5137H160.852L161.07 12.3559L158.525 21.5137H155.762L153.653 12.3559L153.435 21.5137H150.381L150.817 9.30322Z" fill="white"/>
<path d="M166.888 9.52148L176.777 9.95757L176.632 12.5014L170.451 12.2107L170.305 14.1004L176.05 14.3912L175.905 16.8623L170.16 16.6443L170.014 19.0428L176.341 19.3335L176.195 22.0227L166.16 21.5866L166.888 9.52148Z" fill="white"/>
</g>
<defs>
<clipPath id="clip0_12521_46335">
<rect width="282" height="261" fill="white"/>
</clipPath>
</defs>
</svg>
